SplineFontDB: 3.2
FontName: Lentariso
FullName: Lentariso
FamilyName: Lentariso
Weight: Regular
Copyright: (C) 2023 Bryndan Meyerholt
UComments: "2023-12-30: Created with FontForge (http://fontforge.org)"
Version: 1.025
ItalicAngle: 0
UnderlinePosition: -200
UnderlineWidth: 100
Ascent: 2000
Descent: 400
InvalidEm: 0
LayerCount: 2
Layer: 0 0 "Back" 1
Layer: 1 0 "Fore" 0
XUID: [1021 820 -1991800453 9196]
StyleMap: 0x0040
FSType: 0
OS2Version: 0
OS2_WeightWidthSlopeOnly: 0
OS2_UseTypoMetrics: 1
CreationTime: 1703937616
ModificationTime: 1743193505
PfmFamily: 17
TTFWeight: 400
TTFWidth: 5
LineGap: 0
VLineGap: 0
OS2TypoAscent: 2000
OS2TypoAOffset: 0
OS2TypoDescent: -400
OS2TypoDOffset: 0
OS2TypoLinegap: 0
OS2WinAscent: 2000
OS2WinAOffset: 0
OS2WinDescent: 400
OS2WinDOffset: 0
HheadAscent: 2000
HheadAOffset: 0
HheadDescent: -400
HheadDOffset: 0
OS2CapHeight: 1600
OS2XHeight: 1200
OS2Vendor: 'PfEd'
Lookup: 1 0 0 "'pnum' Proportional Numbers lookup 0" { "'pnum' Proportional Numbers lookup 0-1" ("pnum") } ['pnum' ('DFLT' <'dflt' > 'cyrl' <'BGR ' 'MKD ' 'SRB ' 'dflt' > 'grek' <'dflt' > 'latn' <'AZE ' 'CAT ' 'CRT ' 'KAZ ' 'LTH ' 'MOL ' 'NLD ' 'ROM ' 'TAT ' 'TRK ' 'dflt' > ) ]
Lookup: 1 0 0 "'onum' Oldstyle Figures lookup 1" { "'onum' Oldstyle Figures lookup 1-1" ("onum") } ['onum' ('DFLT' <'dflt' > 'cyrl' <'BGR ' 'MKD ' 'SRB ' 'dflt' > 'grek' <'dflt' > 'latn' <'AZE ' 'CAT ' 'CRT ' 'KAZ ' 'LTH ' 'MOL ' 'NLD ' 'ROM ' 'TAT ' 'TRK ' 'dflt' > ) ]
Lookup: 1 0 0 "'zero' Slashed Zero lookup 2" { "'zero' Slashed Zero lookup 2-1" ("zero") } ['zero' ('DFLT' <'dflt' > 'cyrl' <'BGR ' 'MKD ' 'SRB ' 'dflt' > 'grek' <'dflt' > 'latn' <'AZE ' 'CAT ' 'CRT ' 'KAZ ' 'LTH ' 'MOL ' 'NLD ' 'ROM ' 'TAT ' 'TRK ' 'dflt' > ) ]
Lookup: 1 0 0 "'locl' Localized Forms in Latin lookup 3" { "'locl' Localized Forms in Latin lookup 3-1"  } ['locl' ('latn' <'AZE ' 'CRT ' 'KAZ ' 'TAT ' 'TRK ' > ) ]

StartChar: .notdef
Encoding: 0 -1 0
Width: 1200
Flags: HMW
LayerCount: 2
Fore
SplineSet
100 -400 m 1
 100 2000 l 1
 1100 2000 l 1
 1100 -400 l 1
 100 -400 l 1
200 -300 m 1
 1000 -300 l 1
 1000 1900 l 1
 200 1900 l 1
 200 -300 l 1
EndSplineSet
Validated: 1
EndChar

StartChar: exclam
Encoding: 3 33 3
Width: 400
Flags: HMW
LayerCount: 2
Fore
SplineSet
100 0 m 1
 100 200 l 1
 300 200 l 1
 300 0 l 1
 100 0 l 1
100 400 m 1
 100 1600 l 1
 300 1600 l 1
 300 400 l 1
 100 400 l 1
EndSplineSet
Validated: 1
EndChar

StartChar: quotedbl
Encoding: 4 34 4
Width: 800
Flags: HMW
LayerCount: 2
Fore
SplineSet
100 1200 m 1
 100 1600 l 1
 300 1600 l 1
 300 1200 l 1
 100 1200 l 1
500 1200 m 1
 500 1600 l 1
 700 1600 l 1
 700 1200 l 1
 500 1200 l 1
EndSplineSet
Validated: 1
EndChar

StartChar: numbersign
Encoding: 5 35 5
Width: 1600
Flags: HMW
LayerCount: 2
Fore
SplineSet
100 400 m 1
 125 600 l 1
 375 600 l 1
 425 1000 l 1
 175 1000 l 1
 200 1200 l 1
 450 1200 l 1
 500 1600 l 1
 700 1600 l 1
 650 1200 l 1
 1050 1200 l 1
 1100 1600 l 1
 1300 1600 l 1
 1250 1200 l 1
 1500 1200 l 1
 1475 1000 l 1
 1225 1000 l 1
 1175 600 l 1
 1425 600 l 1
 1400 400 l 1
 1150 400 l 1
 1100 0 l 1
 900 0 l 1
 950 400 l 1
 550 400 l 1
 500 0 l 1
 300 0 l 1
 350 400 l 1
 100 400 l 1
575 600 m 1
 975 600 l 1
 1025 1000 l 1
 625 1000 l 1
 575 600 l 1
EndSplineSet
Validated: 1
EndChar

StartChar: dollar
Encoding: 6 36 6
Width: 1400
Flags: HMW
LayerCount: 2
Fore
SplineSet
100 400 m 1
 100 500 l 1
 300 500 l 1
 400 400 l 1
 600 400 l 1
 600 700 l 1
 300 700 l 1
 100 900 l 1
 100 1200 l 1
 300 1400 l 1
 600 1400 l 1
 600 1600 l 1
 800 1600 l 1
 800 1400 l 1
 1100 1400 l 1
 1300 1200 l 1
 1300 1100 l 1
 1100 1100 l 1
 1000 1200 l 1
 800 1200 l 1
 800 900 l 1
 1100 900 l 1
 1300 700 l 1
 1300 400 l 1
 1100 200 l 1
 800 200 l 1
 800 0 l 1
 600 0 l 1
 600 200 l 1
 300 200 l 1
 100 400 l 1
300 1000 m 1
 400 900 l 1
 600 900 l 1
 600 1200 l 1
 400 1200 l 1
 300 1100 l 1
 300 1000 l 1
800 400 m 1
 1000 400 l 1
 1100 500 l 1
 1100 600 l 1
 1000 700 l 1
 800 700 l 1
 800 400 l 1
EndSplineSet
Validated: 1
EndChar

StartChar: percent
Encoding: 7 37 7
Width: 1200
Flags: HMW
LayerCount: 2
Fore
SplineSet
100 1400 m 1
 100 1600 l 1
 300 1600 l 1
 300 1400 l 1
 100 1400 l 1
200 0 m 1
 800 1600 l 1
 1000 1600 l 1
 400 0 l 1
 200 0 l 1
900 0 m 1
 900 200 l 1
 1100 200 l 1
 1100 0 l 1
 900 0 l 1
EndSplineSet
Validated: 1
EndChar

StartChar: ampersand
Encoding: 8 38 8
Width: 1400
Flags: HMW
LayerCount: 2
Fore
SplineSet
100 200 m 1
 100 550 l 1
 350 800 l 1
 100 1050 l 1
 100 1400 l 1
 300 1600 l 1
 700 1600 l 1
 900 1400 l 1
 900 1050 l 1
 650 800 l 1
 925 525 l 1
 1150 750 l 1
 1300 750 l 1
 1300 600 l 1
 1075 375 l 1
 1300 150 l 1
 1300 0 l 1
 1150 0 l 1
 925 225 l 1
 700 0 l 1
 300 0 l 1
 100 200 l 1
300 300 m 1
 400 200 l 1
 600 200 l 1
 775 375 l 1
 500 650 l 1
 300 450 l 1
 300 300 l 1
300 1150 m 1
 500 950 l 1
 700 1150 l 1
 700 1300 l 1
 600 1400 l 1
 400 1400 l 1
 300 1300 l 1
 300 1150 l 1
EndSplineSet
Validated: 1
EndChar

StartChar: quotesingle
Encoding: 9 39 9
Width: 400
Flags: HMW
LayerCount: 2
Fore
SplineSet
100 1200 m 1
 100 1600 l 1
 300 1600 l 1
 300 1200 l 1
 100 1200 l 1
EndSplineSet
Validated: 1
EndChar

StartChar: parenleft
Encoding: 10 40 10
Width: 800
Flags: HMW
LayerCount: 2
Fore
SplineSet
100 100 m 1
 100 1100 l 1
 600 1600 l 1
 700 1600 l 1
 700 1400 l 1
 300 1000 l 1
 300 200 l 1
 700 -200 l 1
 700 -400 l 1
 600 -400 l 1
 100 100 l 1
EndSplineSet
Validated: 1
EndChar

StartChar: parenright
Encoding: 11 41 11
Width: 800
Flags: HMW
LayerCount: 2
Fore
SplineSet
100 -200 m 1
 500 200 l 1
 500 1000 l 1
 100 1400 l 1
 100 1600 l 1
 200 1600 l 1
 700 1100 l 1
 700 100 l 1
 200 -400 l 1
 100 -400 l 1
 100 -200 l 1
EndSplineSet
Validated: 1
EndChar

StartChar: asterisk
Encoding: 12 42 12
Width: 1400
Flags: HMW
LayerCount: 2
Fore
SplineSet
100 700 m 1
 100 900 l 1
 500 900 l 1
 300 1100 l 1
 300 1200 l 1
 500 1200 l 1
 700 1000 l 1
 900 1200 l 1
 1100 1200 l 1
 1100 1100 l 1
 900 900 l 1
 1300 900 l 1
 1300 700 l 1
 900 700 l 1
 1100 500 l 1
 1100 400 l 1
 900 400 l 1
 700 600 l 1
 500 400 l 1
 300 400 l 1
 300 500 l 1
 500 700 l 1
 100 700 l 1
EndSplineSet
Validated: 1
EndChar

StartChar: plus
Encoding: 13 43 13
Width: 1000
Flags: HMW
LayerCount: 2
Fore
SplineSet
100 700 m 1
 100 900 l 1
 400 900 l 1
 400 1200 l 1
 600 1200 l 1
 600 900 l 1
 900 900 l 1
 900 700 l 1
 600 700 l 1
 600 400 l 1
 400 400 l 1
 400 700 l 1
 100 700 l 1
EndSplineSet
Validated: 1
EndChar

StartChar: comma
Encoding: 14 44 14
Width: 400
Flags: HMW
LayerCount: 2
Fore
SplineSet
100 0 m 1
 100 200 l 1
 300 200 l 1
 300 0 l 1
 250 -200 l 1
 100 -200 l 1
 150 0 l 1
 100 0 l 1
EndSplineSet
Validated: 1
EndChar

StartChar: hyphen
Encoding: 15 45 15
Width: 1000
Flags: HMW
LayerCount: 2
Fore
SplineSet
100 700 m 1
 100 900 l 1
 900 900 l 1
 900 700 l 1
 100 700 l 1
EndSplineSet
Validated: 1
EndChar

StartChar: period
Encoding: 16 46 16
Width: 400
Flags: HMW
LayerCount: 2
Fore
SplineSet
100 0 m 1
 100 200 l 1
 300 200 l 1
 300 0 l 1
 100 0 l 1
EndSplineSet
Validated: 1
EndChar

StartChar: slash
Encoding: 17 47 17
Width: 800
Flags: HMW
LayerCount: 2
Fore
SplineSet
100 0 m 1
 500 1600 l 1
 700 1600 l 1
 300 0 l 1
 100 0 l 1
EndSplineSet
Validated: 1
EndChar

StartChar: zero
Encoding: 18 48 18
Width: 1200
Flags: HMW
LayerCount: 2
Fore
SplineSet
100 300 m 1
 100 1300 l 1
 400 1600 l 1
 800 1600 l 1
 1100 1300 l 1
 1100 300 l 1
 800 0 l 1
 400 0 l 1
 100 300 l 1
300 400 m 1
 500 200 l 1
 700 200 l 1
 900 400 l 1
 900 1200 l 1
 700 1400 l 1
 500 1400 l 1
 300 1200 l 1
 300 400 l 1
EndSplineSet
Validated: 1
Substitution2: "'zero' Slashed Zero lookup 2-1" zero.zero
Substitution2: "'onum' Oldstyle Figures lookup 1-1" zero.onum
Substitution2: "'pnum' Proportional Numbers lookup 0-1" zero.pnum
EndChar

StartChar: one
Encoding: 19 49 19
Width: 1200
Flags: HMW
LayerCount: 2
Fore
SplineSet
100 0 m 1
 100 200 l 1
 500 200 l 1
 500 1400 l 1
 300 1200 l 1
 100 1200 l 1
 100 1300 l 1
 400 1600 l 1
 700 1600 l 1
 700 200 l 1
 1100 200 l 1
 1100 0 l 1
 100 0 l 1
EndSplineSet
Validated: 1
Substitution2: "'onum' Oldstyle Figures lookup 1-1" one.onum
Substitution2: "'pnum' Proportional Numbers lookup 0-1" one.pnum
EndChar

StartChar: two
Encoding: 20 50 20
Width: 1200
Flags: HMW
LayerCount: 2
Fore
SplineSet
100 0 m 1
 100 200 l 1
 900 1000 l 1
 900 1200 l 1
 700 1400 l 1
 500 1400 l 1
 300 1200 l 1
 100 1200 l 1
 100 1300 l 1
 400 1600 l 1
 800 1600 l 1
 1100 1300 l 1
 1100 900 l 1
 400 200 l 1
 1100 200 l 1
 1100 0 l 1
 100 0 l 1
EndSplineSet
Validated: 1
Substitution2: "'onum' Oldstyle Figures lookup 1-1" two.onum
Substitution2: "'pnum' Proportional Numbers lookup 0-1" two.pnum
EndChar

StartChar: three
Encoding: 21 51 21
Width: 1200
Flags: HMW
LayerCount: 2
Fore
SplineSet
100 300 m 1
 100 400 l 1
 300 400 l 1
 500 200 l 1
 700 200 l 1
 900 400 l 1
 900 500 l 1
 700 700 l 1
 400 700 l 1
 400 900 l 1
 700 900 l 1
 900 1100 l 1
 900 1200 l 1
 700 1400 l 1
 500 1400 l 1
 300 1200 l 1
 100 1200 l 1
 100 1300 l 1
 400 1600 l 1
 800 1600 l 1
 1100 1300 l 1
 1100 1000 l 1
 900 800 l 1
 1100 600 l 1
 1100 300 l 1
 800 0 l 1
 400 0 l 1
 100 300 l 1
EndSplineSet
Validated: 1
Substitution2: "'onum' Oldstyle Figures lookup 1-1" three.onum
Substitution2: "'pnum' Proportional Numbers lookup 0-1" three.pnum
EndChar

StartChar: four
Encoding: 22 52 22
Width: 1200
Flags: HMW
LayerCount: 2
Fore
SplineSet
100 400 m 1
 100 1000 l 1
 700 1600 l 1
 900 1600 l 1
 900 600 l 1
 1100 600 l 1
 1100 400 l 1
 900 400 l 1
 900 0 l 1
 700 0 l 1
 700 400 l 1
 100 400 l 1
300 600 m 1
 700 600 l 1
 700 1300 l 1
 300 900 l 1
 300 600 l 1
EndSplineSet
Validated: 1
Substitution2: "'onum' Oldstyle Figures lookup 1-1" four.onum
Substitution2: "'pnum' Proportional Numbers lookup 0-1" four.pnum
EndChar

StartChar: five
Encoding: 23 53 23
Width: 1200
Flags: HMW
LayerCount: 2
Fore
SplineSet
100 300 m 1
 100 400 l 1
 300 400 l 1
 500 200 l 1
 700 200 l 1
 900 400 l 1
 900 700 l 1
 700 900 l 1
 100 900 l 1
 100 1600 l 1
 1100 1600 l 1
 1100 1400 l 1
 300 1400 l 1
 300 1100 l 1
 800 1100 l 1
 1100 800 l 1
 1100 300 l 1
 800 0 l 1
 400 0 l 1
 100 300 l 1
EndSplineSet
Validated: 1
Substitution2: "'onum' Oldstyle Figures lookup 1-1" five.onum
Substitution2: "'pnum' Proportional Numbers lookup 0-1" five.pnum
EndChar

StartChar: six
Encoding: 24 54 24
Width: 1200
Flags: HMW
LayerCount: 2
Fore
SplineSet
100 300 m 1
 100 1100 l 1
 600 1600 l 1
 800 1600 l 1
 800 1500 l 1
 300 1000 l 1
 300 900 l 1
 800 900 l 1
 1100 600 l 1
 1100 300 l 1
 800 0 l 1
 400 0 l 1
 100 300 l 1
300 400 m 1
 500 200 l 1
 700 200 l 1
 900 400 l 1
 900 500 l 1
 700 700 l 1
 300 700 l 1
 300 400 l 1
EndSplineSet
Validated: 1
Substitution2: "'onum' Oldstyle Figures lookup 1-1" six.onum
Substitution2: "'pnum' Proportional Numbers lookup 0-1" six.pnum
EndChar

StartChar: seven
Encoding: 25 55 25
Width: 1200
Flags: HMW
LayerCount: 2
Fore
SplineSet
100 1400 m 1
 100 1600 l 1
 1100 1600 l 1
 1100 900 l 1
 600 400 l 1
 600 0 l 1
 400 0 l 1
 400 500 l 1
 900 1000 l 1
 900 1400 l 1
 100 1400 l 1
EndSplineSet
Validated: 1
Substitution2: "'onum' Oldstyle Figures lookup 1-1" seven.onum
Substitution2: "'pnum' Proportional Numbers lookup 0-1" seven.pnum
EndChar

StartChar: eight
Encoding: 26 56 26
Width: 1200
Flags: HMW
LayerCount: 2
Fore
SplineSet
100 300 m 1
 100 600 l 1
 300 800 l 1
 100 1000 l 1
 100 1300 l 1
 400 1600 l 1
 800 1600 l 1
 1100 1300 l 1
 1100 1000 l 1
 900 800 l 1
 1100 600 l 1
 1100 300 l 1
 800 0 l 1
 400 0 l 1
 100 300 l 1
300 400 m 1
 500 200 l 1
 700 200 l 1
 900 400 l 1
 900 500 l 1
 700 700 l 1
 500 700 l 1
 300 500 l 1
 300 400 l 1
300 1100 m 1
 500 900 l 1
 700 900 l 1
 900 1100 l 1
 900 1200 l 1
 700 1400 l 1
 500 1400 l 1
 300 1200 l 1
 300 1100 l 1
EndSplineSet
Validated: 1
Substitution2: "'onum' Oldstyle Figures lookup 1-1" eight.onum
Substitution2: "'pnum' Proportional Numbers lookup 0-1" eight.pnum
EndChar

StartChar: nine
Encoding: 27 57 27
Width: 1200
Flags: HMW
LayerCount: 2
Fore
SplineSet
100 1000 m 1
 100 1300 l 1
 400 1600 l 1
 800 1600 l 1
 1100 1300 l 1
 1100 500 l 1
 600 0 l 1
 400 0 l 1
 400 100 l 1
 900 600 l 1
 900 700 l 1
 400 700 l 1
 100 1000 l 1
300 1100 m 1
 500 900 l 1
 900 900 l 1
 900 1200 l 1
 700 1400 l 1
 500 1400 l 1
 300 1200 l 1
 300 1100 l 1
EndSplineSet
Validated: 1
Substitution2: "'onum' Oldstyle Figures lookup 1-1" nine.onum
Substitution2: "'pnum' Proportional Numbers lookup 0-1" nine.pnum
EndChar

StartChar: colon
Encoding: 28 58 28
Width: 400
Flags: HMW
LayerCount: 2
Fore
SplineSet
100 0 m 1
 100 200 l 1
 300 200 l 1
 300 0 l 1
 100 0 l 1
100 1000 m 1
 100 1200 l 1
 300 1200 l 1
 300 1000 l 1
 100 1000 l 1
EndSplineSet
Validated: 1
EndChar

StartChar: semicolon
Encoding: 29 59 29
Width: 400
Flags: HMW
LayerCount: 2
Fore
SplineSet
100 0 m 1
 100 200 l 1
 300 200 l 1
 300 0 l 1
 250 -200 l 1
 100 -200 l 1
 150 0 l 1
 100 0 l 1
100 1000 m 1
 100 1200 l 1
 300 1200 l 1
 300 1000 l 1
 100 1000 l 1
EndSplineSet
Validated: 1
EndChar

StartChar: less
Encoding: 30 60 30
Width: 1000
Flags: HMW
LayerCount: 2
Fore
SplineSet
100 700 m 1
 100 900 l 1
 800 1600 l 1
 900 1600 l 1
 900 1400 l 1
 300 800 l 1
 900 200 l 1
 900 0 l 1
 800 0 l 1
 100 700 l 1
EndSplineSet
Validated: 1
EndChar

StartChar: equal
Encoding: 31 61 31
Width: 1000
Flags: HMW
LayerCount: 2
Fore
SplineSet
100 400 m 1
 100 600 l 1
 900 600 l 1
 900 400 l 1
 100 400 l 1
100 1000 m 1
 100 1200 l 1
 900 1200 l 1
 900 1000 l 1
 100 1000 l 1
EndSplineSet
Validated: 1
EndChar

StartChar: greater
Encoding: 32 62 32
Width: 1000
Flags: HMW
LayerCount: 2
Fore
SplineSet
100 0 m 1
 100 200 l 1
 700 800 l 1
 100 1400 l 1
 100 1600 l 1
 200 1600 l 1
 900 900 l 1
 900 700 l 1
 200 0 l 1
 100 0 l 1
EndSplineSet
Validated: 1
EndChar

StartChar: question
Encoding: 33 63 33
Width: 1200
Flags: HMW
LayerCount: 2
Fore
SplineSet
100 1200 m 1
 100 1300 l 1
 400 1600 l 1
 800 1600 l 1
 1100 1300 l 1
 1100 900 l 1
 700 500 l 1
 700 400 l 1
 500 400 l 1
 500 600 l 1
 900 1000 l 1
 900 1200 l 1
 700 1400 l 1
 500 1400 l 1
 300 1200 l 1
 100 1200 l 1
500 0 m 1
 500 200 l 1
 700 200 l 1
 700 0 l 1
 500 0 l 1
EndSplineSet
Validated: 1
EndChar

StartChar: at
Encoding: 34 64 34
Width: 1600
Flags: HMW
LayerCount: 2
Fore
SplineSet
100 100 m 1
 100 1100 l 1
 600 1600 l 1
 1500 1600 l 1
 1500 200 l 1
 900 200 l 1
 700 400 l 1
 700 800 l 1
 900 1000 l 1
 1300 1000 l 1
 1300 1400 l 1
 700 1400 l 1
 300 1000 l 1
 300 200 l 1
 700 -200 l 1
 1300 -200 l 1
 1300 -400 l 1
 600 -400 l 1
 100 100 l 1
900 500 m 1
 1000 400 l 1
 1300 400 l 1
 1300 800 l 1
 1000 800 l 1
 900 700 l 1
 900 500 l 1
EndSplineSet
Validated: 1
EndChar

StartChar: A
Encoding: 35 65 35
Width: 1400
Flags: HMW
LayerCount: 2
Fore
SplineSet
100 0 m 1
 100 1100 l 1
 600 1600 l 1
 800 1600 l 1
 1300 1100 l 1
 1300 0 l 1
 1100 0 l 1
 1100 400 l 1
 300 400 l 1
 300 0 l 1
 100 0 l 1
300 600 m 1
 1100 600 l 1
 1100 1000 l 1
 700 1400 l 1
 300 1000 l 1
 300 600 l 1
EndSplineSet
Validated: 1
EndChar

StartChar: B
Encoding: 36 66 36
Width: 1400
Flags: HMW
LayerCount: 2
Fore
SplineSet
100 0 m 1
 100 1600 l 1
 1000 1600 l 1
 1300 1300 l 1
 1300 1000 l 1
 1100 800 l 1
 1300 600 l 1
 1300 300 l 1
 1000 0 l 1
 100 0 l 1
300 200 m 1
 900 200 l 1
 1100 400 l 1
 1100 500 l 1
 900 700 l 1
 300 700 l 1
 300 200 l 1
300 900 m 1
 900 900 l 1
 1100 1100 l 1
 1100 1200 l 1
 900 1400 l 1
 300 1400 l 1
 300 900 l 1
EndSplineSet
Validated: 1
EndChar

StartChar: C
Encoding: 37 67 37
Width: 1400
Flags: HMW
LayerCount: 2
Fore
SplineSet
100 300 m 1
 100 1300 l 1
 400 1600 l 1
 1000 1600 l 1
 1300 1300 l 1
 1300 1200 l 1
 1100 1200 l 1
 900 1400 l 1
 500 1400 l 1
 300 1200 l 1
 300 400 l 1
 500 200 l 1
 900 200 l 1
 1100 400 l 1
 1300 400 l 1
 1300 300 l 1
 1000 0 l 1
 400 0 l 1
 100 300 l 1
EndSplineSet
Validated: 1
EndChar

StartChar: D
Encoding: 38 68 38
Width: 1400
Flags: HMW
LayerCount: 2
Fore
SplineSet
100 0 m 1
 100 200 l 1
 300 200 l 1
 300 1400 l 1
 100 1400 l 1
 100 1600 l 1
 900 1600 l 1
 1300 1200 l 1
 1300 400 l 1
 900 0 l 1
 100 0 l 1
500 200 m 1
 800 200 l 1
 1100 500 l 1
 1100 1100 l 1
 800 1400 l 1
 500 1400 l 1
 500 200 l 1
EndSplineSet
Validated: 1
EndChar

StartChar: E
Encoding: 39 69 39
Width: 1400
Flags: HMW
LayerCount: 2
Fore
SplineSet
100 0 m 1
 100 1600 l 1
 1300 1600 l 1
 1300 1400 l 1
 300 1400 l 1
 300 900 l 1
 1100 900 l 1
 1100 700 l 1
 300 700 l 1
 300 200 l 1
 1300 200 l 1
 1300 0 l 1
 100 0 l 1
EndSplineSet
Validated: 1
EndChar

StartChar: F
Encoding: 40 70 40
Width: 1400
Flags: HMW
LayerCount: 2
Fore
SplineSet
100 0 m 1
 100 1600 l 1
 1300 1600 l 1
 1300 1400 l 1
 300 1400 l 1
 300 900 l 1
 1100 900 l 1
 1100 700 l 1
 300 700 l 1
 300 0 l 1
 100 0 l 1
EndSplineSet
Validated: 1
EndChar

StartChar: G
Encoding: 41 71 41
Width: 1400
Flags: HMW
LayerCount: 2
Fore
SplineSet
100 300 m 1
 100 1300 l 1
 400 1600 l 1
 1000 1600 l 1
 1300 1300 l 1
 1300 1200 l 1
 1100 1200 l 1
 900 1400 l 1
 500 1400 l 1
 300 1200 l 1
 300 400 l 1
 500 200 l 1
 1100 200 l 1
 1100 700 l 1
 700 700 l 1
 700 900 l 1
 1300 900 l 1
 1300 0 l 1
 400 0 l 1
 100 300 l 1
EndSplineSet
Validated: 1
EndChar

StartChar: H
Encoding: 42 72 42
Width: 1400
Flags: HMW
LayerCount: 2
Fore
SplineSet
100 0 m 1
 100 1600 l 1
 300 1600 l 1
 300 900 l 1
 1100 900 l 1
 1100 1600 l 1
 1300 1600 l 1
 1300 0 l 1
 1100 0 l 1
 1100 700 l 1
 300 700 l 1
 300 0 l 1
 100 0 l 1
EndSplineSet
Validated: 1
EndChar

StartChar: I
Encoding: 43 73 43
Width: 1000
Flags: HMW
LayerCount: 2
Fore
SplineSet
100 0 m 1
 100 200 l 1
 400 200 l 1
 400 1400 l 1
 100 1400 l 1
 100 1600 l 1
 900 1600 l 1
 900 1400 l 1
 600 1400 l 1
 600 200 l 1
 900 200 l 1
 900 0 l 1
 100 0 l 1
EndSplineSet
Validated: 1
EndChar

StartChar: J
Encoding: 44 74 44
Width: 1400
Flags: HMW
LayerCount: 2
Fore
SplineSet
100 200 m 1
 100 300 l 1
 300 300 l 1
 400 200 l 1
 600 200 l 1
 800 400 l 1
 800 1400 l 1
 500 1400 l 1
 500 1600 l 1
 1300 1600 l 1
 1300 1400 l 1
 1000 1400 l 1
 1000 300 l 1
 700 0 l 1
 300 0 l 1
 100 200 l 1
EndSplineSet
Validated: 1
Substitution2: "Single Substitution lookup 12-1" Jacute
EndChar

StartChar: K
Encoding: 45 75 45
Width: 1400
Flags: HMW
LayerCount: 2
Fore
SplineSet
100 0 m 1
 100 1600 l 1
 300 1600 l 1
 300 1000 l 1
 900 1600 l 1
 1100 1600 l 1
 1100 1500 l 1
 500 900 l 1
 1300 100 l 1
 1300 0 l 1
 1100 0 l 1
 350 750 l 1
 300 700 l 1
 300 0 l 1
 100 0 l 1
EndSplineSet
Validated: 1
EndChar

StartChar: L
Encoding: 46 76 46
Width: 1400
Flags: HMW
LayerCount: 2
Fore
SplineSet
100 0 m 1
 100 1600 l 1
 300 1600 l 1
 300 200 l 1
 1300 200 l 1
 1300 0 l 1
 100 0 l 1
EndSplineSet
Validated: 1
EndChar

StartChar: M
Encoding: 47 77 47
Width: 1800
Flags: HMW
LayerCount: 2
Fore
SplineSet
100 0 m 1
 100 1600 l 1
 300 1600 l 1
 900 1000 l 1
 1500 1600 l 1
 1700 1600 l 1
 1700 0 l 1
 1500 0 l 1
 1500 1300 l 1
 1000 800 l 1
 1000 300 l 1
 800 300 l 1
 800 800 l 1
 300 1300 l 1
 300 0 l 1
 100 0 l 1
EndSplineSet
Validated: 1
EndChar

StartChar: N
Encoding: 48 78 48
Width: 1400
Flags: HMW
LayerCount: 2
Fore
SplineSet
100 0 m 1
 100 1600 l 1
 300 1600 l 1
 300 1350 l 1
 1100 550 l 1
 1100 1600 l 1
 1300 1600 l 1
 1300 0 l 1
 1100 0 l 1
 1100 250 l 1
 300 1050 l 1
 300 0 l 1
 100 0 l 1
EndSplineSet
Validated: 1
EndChar

StartChar: O
Encoding: 49 79 49
Width: 1400
Flags: HMW
LayerCount: 2
Fore
SplineSet
100 300 m 1
 100 1300 l 1
 400 1600 l 1
 1000 1600 l 1
 1300 1300 l 1
 1300 300 l 1
 1000 0 l 1
 400 0 l 1
 100 300 l 1
300 400 m 1
 500 200 l 1
 900 200 l 1
 1100 400 l 1
 1100 1200 l 1
 900 1400 l 1
 500 1400 l 1
 300 1200 l 1
 300 400 l 1
EndSplineSet
Validated: 1
EndChar

StartChar: P
Encoding: 50 80 50
Width: 1400
Flags: HMW
LayerCount: 2
Fore
SplineSet
100 0 m 1
 100 1600 l 1
 1000 1600 l 1
 1300 1300 l 1
 1300 1000 l 1
 1000 700 l 1
 300 700 l 1
 300 0 l 1
 100 0 l 1
300 900 m 1
 900 900 l 1
 1100 1100 l 1
 1100 1200 l 1
 900 1400 l 1
 300 1400 l 1
 300 900 l 1
EndSplineSet
Validated: 1
EndChar

StartChar: Q
Encoding: 51 81 51
Width: 1400
Flags: HMW
LayerCount: 2
Fore
SplineSet
100 300 m 1
 100 1300 l 1
 400 1600 l 1
 1000 1600 l 1
 1300 1300 l 1
 1300 300 l 1
 1000 0 l 1
 800 0 l 1
 800 -300 l 1
 600 -300 l 1
 600 0 l 1
 400 0 l 1
 100 300 l 1
300 400 m 1
 500 200 l 1
 600 200 l 1
 600 500 l 1
 800 500 l 1
 800 200 l 1
 900 200 l 1
 1100 400 l 1
 1100 1200 l 1
 900 1400 l 1
 500 1400 l 1
 300 1200 l 1
 300 400 l 1
EndSplineSet
Validated: 1
EndChar

StartChar: R
Encoding: 52 82 52
Width: 1400
Flags: HMW
LayerCount: 2
Fore
SplineSet
100 0 m 1
 100 1600 l 1
 1000 1600 l 1
 1300 1300 l 1
 1300 1000 l 1
 1000 700 l 1
 700 700 l 1
 1300 100 l 1
 1300 0 l 1
 1100 0 l 1
 400 700 l 1
 300 700 l 1
 300 0 l 1
 100 0 l 1
300 900 m 1
 900 900 l 1
 1100 1100 l 1
 1100 1200 l 1
 900 1400 l 1
 300 1400 l 1
 300 900 l 1
EndSplineSet
Validated: 1
EndChar

StartChar: S
Encoding: 53 83 53
Width: 1400
Flags: HMW
LayerCount: 2
Fore
SplineSet
100 300 m 1
 100 400 l 1
 300 400 l 1
 500 200 l 1
 900 200 l 1
 1100 400 l 1
 1100 500 l 1
 900 700 l 1
 400 700 l 1
 100 1000 l 1
 100 1300 l 1
 400 1600 l 1
 1000 1600 l 1
 1300 1300 l 1
 1300 1200 l 1
 1100 1200 l 1
 900 1400 l 1
 500 1400 l 1
 300 1200 l 1
 300 1100 l 1
 500 900 l 1
 1000 900 l 1
 1300 600 l 1
 1300 300 l 1
 1000 0 l 1
 400 0 l 1
 100 300 l 1
EndSplineSet
Validated: 1
EndChar

StartChar: T
Encoding: 54 84 54
Width: 1400
Flags: HMW
LayerCount: 2
Fore
SplineSet
100 1400 m 1
 100 1600 l 1
 1300 1600 l 1
 1300 1400 l 1
 800 1400 l 1
 800 0 l 1
 600 0 l 1
 600 1400 l 1
 100 1400 l 1
EndSplineSet
Validated: 1
EndChar

StartChar: U
Encoding: 55 85 55
Width: 1400
Flags: HMW
LayerCount: 2
Fore
SplineSet
100 300 m 1
 100 1600 l 1
 300 1600 l 1
 300 400 l 1
 500 200 l 1
 900 200 l 1
 1100 400 l 1
 1100 1600 l 1
 1300 1600 l 1
 1300 300 l 1
 1000 0 l 1
 400 0 l 1
 100 300 l 1
EndSplineSet
Validated: 1
EndChar

StartChar: V
Encoding: 56 86 56
Width: 1400
Flags: HMW
LayerCount: 2
Fore
SplineSet
100 500 m 1
 100 1600 l 1
 300 1600 l 1
 300 600 l 1
 700 200 l 1
 1100 600 l 1
 1100 1600 l 1
 1300 1600 l 1
 1300 500 l 1
 800 0 l 1
 600 0 l 1
 100 500 l 1
EndSplineSet
Validated: 1
EndChar

StartChar: W
Encoding: 57 87 57
Width: 2400
Flags: HMW
LayerCount: 2
Fore
SplineSet
100 500 m 1
 100 1600 l 1
 300 1600 l 1
 300 600 l 1
 700 200 l 1
 1100 600 l 1
 1100 1600 l 1
 1300 1600 l 1
 1300 600 l 1
 1700 200 l 1
 2100 600 l 1
 2100 1600 l 1
 2300 1600 l 1
 2300 500 l 1
 1800 0 l 1
 1600 0 l 1
 1200 400 l 1
 800 0 l 1
 600 0 l 1
 100 500 l 1
EndSplineSet
Validated: 1
EndChar

StartChar: X
Encoding: 58 88 58
Width: 1400
Flags: HMW
LayerCount: 2
Fore
SplineSet
100 0 m 1
 100 350 l 1
 550 800 l 1
 100 1250 l 1
 100 1600 l 1
 300 1600 l 1
 300 1350 l 1
 700 950 l 1
 1100 1350 l 1
 1100 1600 l 1
 1300 1600 l 1
 1300 1250 l 1
 850 800 l 1
 1300 350 l 1
 1300 0 l 1
 1100 0 l 1
 1100 250 l 1
 700 650 l 1
 300 250 l 1
 300 0 l 1
 100 0 l 1
EndSplineSet
Validated: 1
EndChar

StartChar: Y
Encoding: 59 89 59
Width: 1400
Flags: HMW
LayerCount: 2
Fore
SplineSet
100 1100 m 1
 100 1600 l 1
 300 1600 l 1
 300 1200 l 1
 700 800 l 1
 1100 1200 l 1
 1100 1600 l 1
 1300 1600 l 1
 1300 1100 l 1
 800 600 l 1
 800 0 l 1
 600 0 l 1
 600 600 l 1
 100 1100 l 1
EndSplineSet
Validated: 1
EndChar

StartChar: Z
Encoding: 60 90 60
Width: 1400
Flags: HMW
LayerCount: 2
Fore
SplineSet
100 0 m 1
 100 350 l 1
 1100 1350 l 1
 1100 1400 l 1
 100 1400 l 1
 100 1600 l 1
 1300 1600 l 1
 1300 1250 l 1
 300 250 l 1
 300 200 l 1
 1300 200 l 1
 1300 0 l 1
 100 0 l 1
EndSplineSet
Validated: 1
EndChar

StartChar: bracketleft
Encoding: 61 91 61
Width: 800
Flags: HMW
LayerCount: 2
Fore
SplineSet
100 -400 m 1
 100 1600 l 1
 700 1600 l 1
 700 1400 l 1
 300 1400 l 1
 300 -200 l 1
 700 -200 l 1
 700 -400 l 1
 100 -400 l 1
EndSplineSet
Validated: 1
EndChar

StartChar: backslash
Encoding: 62 92 62
Width: 800
Flags: HMW
LayerCount: 2
Fore
SplineSet
100 1600 m 1
 300 1600 l 1
 700 0 l 1
 500 0 l 1
 100 1600 l 1
EndSplineSet
Validated: 1
EndChar

StartChar: bracketright
Encoding: 63 93 63
Width: 800
Flags: HMW
LayerCount: 2
Fore
SplineSet
100 -200 m 1
 500 -200 l 1
 500 1400 l 1
 100 1400 l 1
 100 1600 l 1
 700 1600 l 1
 700 -400 l 1
 100 -400 l 1
 100 -200 l 1
EndSplineSet
Validated: 1
EndChar

StartChar: asciicircum
Encoding: 64 94 64
Width: 1200
Flags: HMW
LayerCount: 2
Fore
SplineSet
100 1100 m 1
 100 1200 l 1
 500 1600 l 1
 700 1600 l 1
 1100 1200 l 1
 1100 1100 l 1
 900 1100 l 1
 600 1400 l 1
 300 1100 l 1
 100 1100 l 1
EndSplineSet
Validated: 1
EndChar

StartChar: underscore
Encoding: 65 95 65
Width: 1000
Flags: HMW
LayerCount: 2
Fore
SplineSet
0 0 m 1
 1000 0 l 1
 1000 -200 l 1
 0 -200 l 1
 0 0 l 1
EndSplineSet
Validated: 1
EndChar

StartChar: grave
Encoding: 66 96 66
Width: 800
Flags: HMW
LayerCount: 2
Fore
SplineSet
100 1500 m 1
 100 1600 l 1
 300 1600 l 1
 700 1200 l 1
 700 1100 l 1
 500 1100 l 1
 100 1500 l 1
EndSplineSet
Validated: 1
EndChar

StartChar: a
Encoding: 67 97 67
Width: 1200
Flags: HMW
LayerCount: 2
Fore
SplineSet
100 200 m 1
 100 500 l 1
 300 700 l 1
 900 700 l 1
 900 800 l 1
 700 1000 l 1
 500 1000 l 1
 400 900 l 1
 200 900 l 1
 200 1000 l 1
 400 1200 l 1
 800 1200 l 1
 1100 900 l 1
 1100 0 l 1
 300 0 l 1
 100 200 l 1
300 300 m 1
 400 200 l 1
 900 200 l 1
 900 500 l 1
 400 500 l 1
 300 400 l 1
 300 300 l 1
EndSplineSet
Validated: 1
EndChar

StartChar: b
Encoding: 68 98 68
Width: 1200
Flags: HMW
LayerCount: 2
Fore
SplineSet
100 0 m 1
 100 1600 l 1
 300 1600 l 1
 300 1200 l 1
 800 1200 l 1
 1100 900 l 1
 1100 300 l 1
 800 0 l 1
 100 0 l 1
300 200 m 1
 700 200 l 1
 900 400 l 1
 900 800 l 1
 700 1000 l 1
 300 1000 l 1
 300 200 l 1
EndSplineSet
Validated: 1
EndChar

StartChar: c
Encoding: 69 99 69
Width: 1200
Flags: HMW
LayerCount: 2
Fore
SplineSet
100 300 m 1
 100 900 l 1
 400 1200 l 1
 800 1200 l 1
 1100 900 l 1
 1100 800 l 1
 900 800 l 1
 700 1000 l 1
 500 1000 l 1
 300 800 l 1
 300 400 l 1
 500 200 l 1
 700 200 l 1
 900 400 l 1
 1100 400 l 1
 1100 300 l 1
 800 0 l 1
 400 0 l 1
 100 300 l 1
EndSplineSet
Validated: 1
EndChar

StartChar: d
Encoding: 70 100 70
Width: 1200
Flags: HMW
LayerCount: 2
Fore
SplineSet
100 300 m 1
 100 900 l 1
 400 1200 l 1
 900 1200 l 1
 900 1600 l 1
 1100 1600 l 1
 1100 0 l 1
 400 0 l 1
 100 300 l 1
300 400 m 1
 500 200 l 1
 900 200 l 1
 900 1000 l 1
 500 1000 l 1
 300 800 l 1
 300 400 l 1
EndSplineSet
Validated: 1
EndChar

StartChar: e
Encoding: 71 101 71
Width: 1200
Flags: HMW
LayerCount: 2
Fore
SplineSet
100 300 m 1
 100 900 l 1
 400 1200 l 1
 800 1200 l 1
 1100 900 l 1
 1100 500 l 1
 300 500 l 1
 300 400 l 1
 500 200 l 1
 1100 200 l 1
 1100 0 l 1
 400 0 l 1
 100 300 l 1
300 700 m 1
 900 700 l 1
 900 800 l 1
 700 1000 l 1
 500 1000 l 1
 300 800 l 1
 300 700 l 1
EndSplineSet
Validated: 1
EndChar

StartChar: f
Encoding: 72 102 72
Width: 1000
Flags: HMW
LayerCount: 2
Fore
SplineSet
100 1000 m 1
 100 1200 l 1
 400 1200 l 1
 400 1400 l 1
 600 1600 l 1
 900 1600 l 1
 900 1400 l 1
 700 1400 l 1
 600 1300 l 1
 600 1200 l 1
 900 1200 l 1
 900 1000 l 1
 600 1000 l 1
 600 0 l 1
 400 0 l 1
 400 1000 l 1
 100 1000 l 1
EndSplineSet
Validated: 1
EndChar

StartChar: g
Encoding: 73 103 73
Width: 1600
Flags: HMW
LayerCount: 2
Fore
SplineSet
100 100 m 1
 300 300 l 1
 400 300 l 1
 400 100 l 1
 300 0 l 1
 300 -100 l 1
 400 -200 l 1
 1200 -200 l 1
 1300 -100 l 1
 1300 0 l 1
 1200 100 l 1
 800 100 l 1
 800 500 l 1
 300 500 l 1
 100 700 l 1
 100 1000 l 1
 300 1200 l 1
 800 1200 l 1
 1000 1000 l 1
 1000 700 l 1
 1200 700 l 1
 1300 800 l 1
 1300 1200 l 1
 1500 1200 l 1
 1500 700 l 1
 1300 500 l 1
 1000 500 l 1
 1000 300 l 1
 1300 300 l 1
 1500 100 l 1
 1500 -200 l 1
 1300 -400 l 1
 300 -400 l 1
 100 -200 l 1
 100 100 l 1
300 800 m 1
 400 700 l 1
 800 700 l 1
 800 900 l 1
 700 1000 l 1
 400 1000 l 1
 300 900 l 1
 300 800 l 1
EndSplineSet
Validated: 1
EndChar

StartChar: h
Encoding: 74 104 74
Width: 1200
Flags: HMW
LayerCount: 2
Fore
SplineSet
100 0 m 1
 100 1600 l 1
 300 1600 l 1
 300 1200 l 1
 800 1200 l 1
 1100 900 l 1
 1100 0 l 1
 900 0 l 1
 900 800 l 1
 700 1000 l 1
 300 1000 l 1
 300 0 l 1
 100 0 l 1
EndSplineSet
Validated: 1
EndChar

StartChar: i
Encoding: 75 105 75
Width: 400
Flags: HMW
LayerCount: 2
Fore
SplineSet
100 0 m 1
 100 1200 l 1
 300 1200 l 1
 300 0 l 1
 100 0 l 1
100 1400 m 1
 100 1600 l 1
 300 1600 l 1
 300 1400 l 1
 100 1400 l 1
EndSplineSet
Validated: 1
Substitution2: "'locl' Localized Forms in Latin lookup 3-1" i.locl
EndChar

StartChar: j
Encoding: 76 106 76
Width: 400
Flags: HMW
LayerCount: 2
Fore
SplineSet
100 -400 m 1
 100 1200 l 1
 300 1200 l 1
 300 -400 l 1
 100 -400 l 1
100 1400 m 1
 100 1600 l 1
 300 1600 l 1
 300 1400 l 1
 100 1400 l 1
EndSplineSet
Validated: 1
Substitution2: "Single Substitution lookup 12-1" jacute
EndChar

StartChar: k
Encoding: 77 107 77
Width: 1200
Flags: HMW
LayerCount: 2
Fore
SplineSet
100 0 m 1
 100 1600 l 1
 300 1600 l 1
 300 800 l 1
 700 1200 l 1
 900 1200 l 1
 900 1100 l 1
 500 700 l 1
 1100 100 l 1
 1100 0 l 1
 900 0 l 1
 350 550 l 1
 300 500 l 1
 300 0 l 1
 100 0 l 1
EndSplineSet
Validated: 1
EndChar

StartChar: l
Encoding: 78 108 78
Width: 400
Flags: HMW
LayerCount: 2
Fore
SplineSet
100 0 m 1
 100 1600 l 1
 300 1600 l 1
 300 0 l 1
 100 0 l 1
EndSplineSet
Validated: 1
EndChar

StartChar: m
Encoding: 79 109 79
Width: 2000
Flags: HMW
LayerCount: 2
Fore
SplineSet
100 0 m 1
 100 1200 l 1
 1600 1200 l 1
 1900 900 l 1
 1900 0 l 1
 1700 0 l 1
 1700 800 l 1
 1500 1000 l 1
 1100 1000 l 1
 1100 0 l 1
 900 0 l 1
 900 1000 l 1
 300 1000 l 1
 300 0 l 1
 100 0 l 1
EndSplineSet
Validated: 1
EndChar

StartChar: n
Encoding: 80 110 80
Width: 1200
Flags: HMW
LayerCount: 2
Fore
SplineSet
100 0 m 1
 100 1200 l 1
 800 1200 l 1
 1100 900 l 1
 1100 0 l 1
 900 0 l 1
 900 800 l 1
 700 1000 l 1
 300 1000 l 1
 300 0 l 1
 100 0 l 1
EndSplineSet
Validated: 1
EndChar

StartChar: o
Encoding: 81 111 81
Width: 1200
Flags: HMW
LayerCount: 2
Fore
SplineSet
100 300 m 1
 100 900 l 1
 400 1200 l 1
 800 1200 l 1
 1100 900 l 1
 1100 300 l 1
 800 0 l 1
 400 0 l 1
 100 300 l 1
300 400 m 1
 500 200 l 1
 700 200 l 1
 900 400 l 1
 900 800 l 1
 700 1000 l 1
 500 1000 l 1
 300 800 l 1
 300 400 l 1
EndSplineSet
Validated: 1
EndChar

StartChar: p
Encoding: 82 112 82
Width: 1200
Flags: HMW
LayerCount: 2
Fore
SplineSet
100 -400 m 1
 100 1200 l 1
 800 1200 l 1
 1100 900 l 1
 1100 300 l 1
 800 0 l 1
 300 0 l 1
 300 -400 l 1
 100 -400 l 1
300 200 m 1
 700 200 l 1
 900 400 l 1
 900 800 l 1
 700 1000 l 1
 300 1000 l 1
 300 200 l 1
EndSplineSet
Validated: 1
EndChar

StartChar: q
Encoding: 83 113 83
Width: 1200
Flags: HMW
LayerCount: 2
Fore
SplineSet
100 300 m 1
 100 900 l 1
 400 1200 l 1
 1100 1200 l 1
 1100 -400 l 1
 900 -400 l 1
 900 0 l 1
 400 0 l 1
 100 300 l 1
300 400 m 1
 500 200 l 1
 900 200 l 1
 900 1000 l 1
 500 1000 l 1
 300 800 l 1
 300 400 l 1
EndSplineSet
Validated: 1
EndChar

StartChar: r
Encoding: 84 114 84
Width: 800
Flags: HMW
LayerCount: 2
Fore
SplineSet
100 0 m 1
 100 1200 l 1
 700 1200 l 1
 700 1000 l 1
 300 1000 l 1
 300 0 l 1
 100 0 l 1
EndSplineSet
Validated: 1
EndChar

StartChar: s
Encoding: 85 115 85
Width: 1200
Flags: HMW
LayerCount: 2
Fore
SplineSet
100 200 m 1
 100 300 l 1
 300 300 l 1
 400 200 l 1
 800 200 l 1
 900 300 l 1
 900 400 l 1
 800 500 l 1
 300 500 l 1
 100 700 l 1
 100 1000 l 1
 300 1200 l 1
 900 1200 l 1
 1100 1000 l 1
 1100 900 l 1
 900 900 l 1
 800 1000 l 1
 400 1000 l 1
 300 900 l 1
 300 800 l 1
 400 700 l 1
 900 700 l 1
 1100 500 l 1
 1100 200 l 1
 900 0 l 1
 300 0 l 1
 100 200 l 1
EndSplineSet
Validated: 1
EndChar

StartChar: t
Encoding: 86 116 86
Width: 1000
Flags: HMW
LayerCount: 2
Fore
SplineSet
100 1000 m 1
 100 1200 l 1
 400 1200 l 1
 400 1600 l 1
 600 1600 l 1
 600 1200 l 1
 900 1200 l 1
 900 1000 l 1
 600 1000 l 1
 600 0 l 1
 400 0 l 1
 400 1000 l 1
 100 1000 l 1
EndSplineSet
Validated: 1
EndChar

StartChar: u
Encoding: 87 117 87
Width: 1200
Flags: HMW
LayerCount: 2
Fore
SplineSet
100 300 m 1
 100 1200 l 1
 300 1200 l 1
 300 400 l 1
 500 200 l 1
 900 200 l 1
 900 1200 l 1
 1100 1200 l 1
 1100 0 l 1
 400 0 l 1
 100 300 l 1
EndSplineSet
Validated: 1
EndChar

StartChar: v
Encoding: 88 118 88
Width: 1200
Flags: HMW
LayerCount: 2
Fore
SplineSet
100 400 m 1
 100 1200 l 1
 300 1200 l 1
 300 500 l 1
 600 200 l 1
 900 500 l 1
 900 1200 l 1
 1100 1200 l 1
 1100 400 l 1
 700 0 l 1
 500 0 l 1
 100 400 l 1
EndSplineSet
Validated: 1
EndChar

StartChar: w
Encoding: 89 119 89
Width: 2000
Flags: HMW
LayerCount: 2
Fore
SplineSet
100 400 m 1
 100 1200 l 1
 300 1200 l 1
 300 500 l 1
 600 200 l 1
 900 500 l 1
 900 1200 l 1
 1100 1200 l 1
 1100 500 l 1
 1400 200 l 1
 1700 500 l 1
 1700 1200 l 1
 1900 1200 l 1
 1900 400 l 1
 1500 0 l 1
 1300 0 l 1
 1000 300 l 1
 700 0 l 1
 500 0 l 1
 100 400 l 1
EndSplineSet
Validated: 1
EndChar

StartChar: x
Encoding: 90 120 90
Width: 1200
Flags: HMW
LayerCount: 2
Fore
SplineSet
100 0 m 1
 100 250 l 1
 450 600 l 1
 100 950 l 1
 100 1200 l 1
 300 1200 l 1
 300 1050 l 1
 600 750 l 1
 900 1050 l 1
 900 1200 l 1
 1100 1200 l 1
 1100 950 l 1
 750 600 l 1
 1100 250 l 1
 1100 0 l 1
 900 0 l 1
 900 150 l 1
 600 450 l 1
 300 150 l 1
 300 0 l 1
 100 0 l 1
EndSplineSet
Validated: 1
EndChar

StartChar: y
Encoding: 91 121 91
Width: 1200
Flags: HMW
LayerCount: 2
Fore
SplineSet
100 -300 m 1
 450 50 l 1
 100 400 l 1
 100 1200 l 1
 300 1200 l 1
 300 500 l 1
 600 200 l 1
 900 500 l 1
 900 1200 l 1
 1100 1200 l 1
 1100 400 l 1
 300 -400 l 1
 100 -400 l 1
 100 -300 l 1
EndSplineSet
Validated: 1
EndChar

StartChar: z
Encoding: 92 122 92
Width: 1200
Flags: HMW
LayerCount: 2
Fore
SplineSet
100 0 m 1
 100 250 l 1
 850 1000 l 1
 100 1000 l 1
 100 1200 l 1
 1100 1200 l 1
 1100 950 l 1
 350 200 l 1
 1100 200 l 1
 1100 0 l 1
 100 0 l 1
EndSplineSet
Validated: 1
EndChar

StartChar: braceleft
Encoding: 93 123 93
Width: 800
Flags: HMW
LayerCount: 2
Fore
SplineSet
100 500 m 1
 100 700 l 1
 200 700 l 1
 300 800 l 1
 300 950 l 1
 200 1050 l 1
 200 1400 l 1
 400 1600 l 1
 700 1600 l 1
 700 1400 l 1
 500 1400 l 1
 400 1300 l 1
 400 1150 l 1
 500 1050 l 1
 500 700 l 1
 400 600 l 1
 500 500 l 1
 500 150 l 1
 400 50 l 1
 400 -100 l 1
 500 -200 l 1
 700 -200 l 1
 700 -400 l 1
 400 -400 l 1
 200 -200 l 1
 200 150 l 1
 300 250 l 1
 300 400 l 1
 200 500 l 1
 100 500 l 1
EndSplineSet
Validated: 1
EndChar

StartChar: bar
Encoding: 94 124 94
Width: 400
Flags: HMW
LayerCount: 2
Fore
SplineSet
100 -400 m 1
 100 1600 l 1
 300 1600 l 1
 300 -400 l 1
 100 -400 l 1
EndSplineSet
Validated: 1
EndChar

StartChar: braceright
Encoding: 95 125 95
Width: 800
Flags: HMW
LayerCount: 2
Fore
SplineSet
100 -200 m 1
 300 -200 l 1
 400 -100 l 1
 400 50 l 1
 300 150 l 1
 300 500 l 1
 400 600 l 1
 300 700 l 1
 300 1050 l 1
 400 1150 l 1
 400 1300 l 1
 300 1400 l 1
 100 1400 l 1
 100 1600 l 1
 400 1600 l 1
 600 1400 l 1
 600 1050 l 1
 500 950 l 1
 500 800 l 1
 600 700 l 1
 700 700 l 1
 700 500 l 1
 600 500 l 1
 500 400 l 1
 500 250 l 1
 600 150 l 1
 600 -200 l 1
 400 -400 l 1
 100 -400 l 1
 100 -200 l 1
EndSplineSet
Validated: 1
EndChar

StartChar: asciitilde
Encoding: 96 126 96
Width: 1600
Flags: HMW
LayerCount: 2
Fore
SplineSet
100 700 m 1
 100 800 l 1
 300 1000 l 1
 750 1000 l 1
 950 800 l 1
 1200 800 l 1
 1300 900 l 1
 1500 900 l 1
 1500 800 l 1
 1300 600 l 1
 850 600 l 1
 650 800 l 1
 400 800 l 1
 300 700 l 1
 100 700 l 1
EndSplineSet
Validated: 1
EndChar

StartChar: Euro
Encoding: 97 8364 97
Width: 1600
Flags: HMW
LayerCount: 2
Fore
SplineSet
100 500 m 1
 100 700 l 1
 300 700 l 1
 300 900 l 1
 100 900 l 1
 100 1100 l 1
 300 1100 l 1
 300 1300 l 1
 600 1600 l 1
 1200 1600 l 1
 1500 1300 l 1
 1500 1200 l 1
 1300 1200 l 1
 1100 1400 l 1
 700 1400 l 1
 500 1200 l 1
 500 1100 l 1
 800 1100 l 1
 800 900 l 1
 500 900 l 1
 500 700 l 1
 800 700 l 1
 800 500 l 1
 500 500 l 1
 500 400 l 1
 700 200 l 1
 1100 200 l 1
 1300 400 l 1
 1500 400 l 1
 1500 300 l 1
 1200 0 l 1
 600 0 l 1
 300 300 l 1
 300 500 l 1
 100 500 l 1
EndSplineSet
Validated: 1
EndChar

StartChar: quotesinglbase
Encoding: 98 8218 98
Width: 400
Flags: HMW
LayerCount: 2
Fore
SplineSet
100 0 m 1
 100 200 l 1
 300 200 l 1
 300 0 l 1
 250 -200 l 1
 100 -200 l 1
 150 0 l 1
 100 0 l 1
EndSplineSet
Validated: 1
EndChar

StartChar: florin
Encoding: 99 402 99
Width: 1000
Flags: HMW
LayerCount: 2
Fore
SplineSet
100 -200 m 1
 300 -200 l 1
 400 -100 l 1
 400 1000 l 1
 100 1000 l 1
 100 1200 l 1
 400 1200 l 1
 400 1400 l 1
 600 1600 l 1
 900 1600 l 1
 900 1400 l 1
 700 1400 l 1
 600 1300 l 1
 600 1200 l 1
 900 1200 l 1
 900 1000 l 1
 600 1000 l 1
 600 -200 l 1
 400 -400 l 1
 100 -400 l 1
 100 -200 l 1
EndSplineSet
Validated: 1
EndChar

StartChar: quotedblbase
Encoding: 100 8222 100
Width: 800
Flags: HMW
LayerCount: 2
Fore
SplineSet
100 0 m 1
 100 200 l 1
 300 200 l 1
 300 0 l 1
 250 -200 l 1
 100 -200 l 1
 150 0 l 1
 100 0 l 1
500 0 m 1
 500 200 l 1
 700 200 l 1
 700 0 l 1
 650 -200 l 1
 500 -200 l 1
 550 0 l 1
 500 0 l 1
EndSplineSet
Validated: 1
EndChar

StartChar: ellipsis
Encoding: 101 8230 101
Width: 1200
Flags: HMW
LayerCount: 2
Fore
SplineSet
100 0 m 1
 100 200 l 1
 300 200 l 1
 300 0 l 1
 100 0 l 1
500 0 m 1
 500 200 l 1
 700 200 l 1
 700 0 l 1
 500 0 l 1
900 0 m 1
 900 200 l 1
 1100 200 l 1
 1100 0 l 1
 900 0 l 1
EndSplineSet
Validated: 1
EndChar

StartChar: dagger
Encoding: 102 8224 102
Width: 800
Flags: HMW
LayerCount: 2
Fore
SplineSet
100 1200 m 1
 100 1400 l 1
 300 1400 l 1
 300 1600 l 1
 500 1600 l 1
 500 1400 l 1
 700 1400 l 1
 700 1200 l 1
 500 1200 l 1
 500 600 l 1
 300 600 l 1
 300 1200 l 1
 100 1200 l 1
EndSplineSet
Validated: 1
EndChar

StartChar: daggerdbl
Encoding: 103 8225 103
Width: 800
Flags: HMW
LayerCount: 2
Fore
SplineSet
100 800 m 1
 100 1000 l 1
 300 1000 l 1
 300 1200 l 1
 100 1200 l 1
 100 1400 l 1
 300 1400 l 1
 300 1600 l 1
 500 1600 l 1
 500 1400 l 1
 700 1400 l 1
 700 1200 l 1
 500 1200 l 1
 500 1000 l 1
 700 1000 l 1
 700 800 l 1
 500 800 l 1
 500 600 l 1
 300 600 l 1
 300 800 l 1
 100 800 l 1
EndSplineSet
Validated: 1
EndChar

StartChar: circumflex
Encoding: 104 710 104
Width: 800
Flags: HMW
LayerCount: 2
Fore
SplineSet
100 1300 m 1
 100 1400 l 1
 300 1600 l 1
 500 1600 l 1
 700 1400 l 1
 700 1300 l 1
 500 1300 l 1
 400 1400 l 1
 300 1300 l 1
 100 1300 l 1
EndSplineSet
Validated: 1
EndChar

StartChar: perthousand
Encoding: 105 8240 105
Width: 1600
Flags: HMW
LayerCount: 2
Fore
SplineSet
100 1400 m 1
 100 1600 l 1
 300 1600 l 1
 300 1400 l 1
 100 1400 l 1
200 0 m 1
 800 1600 l 1
 1000 1600 l 1
 400 0 l 1
 200 0 l 1
900 0 m 1
 900 200 l 1
 1100 200 l 1
 1100 0 l 1
 900 0 l 1
1300 0 m 1
 1300 200 l 1
 1500 200 l 1
 1500 0 l 1
 1300 0 l 1
EndSplineSet
Validated: 1
EndChar

StartChar: Scaron
Encoding: 106 352 106
Width: 1400
Flags: HMW
LayerCount: 2
Fore
SplineSet
100 300 m 1
 100 400 l 1
 300 400 l 1
 500 200 l 1
 900 200 l 1
 1100 400 l 1
 1100 500 l 1
 900 700 l 1
 400 700 l 1
 100 1000 l 1
 100 1300 l 1
 400 1600 l 1
 1000 1600 l 1
 1300 1300 l 1
 1300 1200 l 1
 1100 1200 l 1
 900 1400 l 1
 500 1400 l 1
 300 1200 l 1
 300 1100 l 1
 500 900 l 1
 1000 900 l 1
 1300 600 l 1
 1300 300 l 1
 1000 0 l 1
 400 0 l 1
 100 300 l 1
400 1900 m 1
 400 2000 l 1
 600 2000 l 1
 700 1900 l 1
 800 2000 l 1
 1000 2000 l 1
 1000 1900 l 1
 800 1700 l 1
 600 1700 l 1
 400 1900 l 1
EndSplineSet
Validated: 1
EndChar

StartChar: guilsinglleft
Encoding: 107 8249 107
Width: 600
Flags: HMW
LayerCount: 2
Fore
SplineSet
100 700 m 1
 100 900 l 1
 400 1200 l 1
 500 1200 l 1
 500 1000 l 1
 300 800 l 1
 500 600 l 1
 500 400 l 1
 400 400 l 1
 100 700 l 1
EndSplineSet
Validated: 1
EndChar

StartChar: OE
Encoding: 108 338 108
Width: 2400
Flags: HMW
LayerCount: 2
Fore
SplineSet
100 300 m 1
 100 1300 l 1
 400 1600 l 1
 2300 1600 l 1
 2300 1400 l 1
 1300 1400 l 1
 1300 900 l 1
 2100 900 l 1
 2100 700 l 1
 1300 700 l 1
 1300 200 l 1
 2300 200 l 1
 2300 0 l 1
 400 0 l 1
 100 300 l 1
300 400 m 1
 500 200 l 1
 1100 200 l 1
 1100 1400 l 1
 500 1400 l 1
 300 1200 l 1
 300 400 l 1
EndSplineSet
Validated: 1
EndChar

StartChar: Zcaron
Encoding: 109 381 109
Width: 1400
Flags: HMW
LayerCount: 2
Fore
SplineSet
100 0 m 1
 100 350 l 1
 1100 1350 l 1
 1100 1400 l 1
 100 1400 l 1
 100 1600 l 1
 1300 1600 l 1
 1300 1250 l 1
 300 250 l 1
 300 200 l 1
 1300 200 l 1
 1300 0 l 1
 100 0 l 1
400 1900 m 1
 400 2000 l 1
 600 2000 l 1
 700 1900 l 1
 800 2000 l 1
 1000 2000 l 1
 1000 1900 l 1
 800 1700 l 1
 600 1700 l 1
 400 1900 l 1
EndSplineSet
Validated: 1
EndChar

StartChar: quoteleft
Encoding: 110 8216 110
Width: 400
Flags: HMW
LayerCount: 2
Fore
SplineSet
100 1200 m 1
 100 1400 l 1
 150 1600 l 1
 300 1600 l 1
 250 1400 l 1
 300 1400 l 1
 300 1200 l 1
 100 1200 l 1
EndSplineSet
Validated: 1
EndChar

StartChar: quoteright
Encoding: 111 8217 111
Width: 400
Flags: HMW
LayerCount: 2
Fore
SplineSet
100 1200 m 1
 150 1400 l 1
 100 1400 l 1
 100 1600 l 1
 300 1600 l 1
 300 1400 l 1
 250 1200 l 1
 100 1200 l 1
EndSplineSet
Validated: 1
EndChar

StartChar: quotedblleft
Encoding: 112 8220 112
Width: 800
Flags: HMW
LayerCount: 2
Fore
SplineSet
100 1200 m 1
 100 1400 l 1
 150 1600 l 1
 300 1600 l 1
 250 1400 l 1
 300 1400 l 1
 300 1200 l 1
 100 1200 l 1
500 1200 m 1
 500 1400 l 1
 550 1600 l 1
 700 1600 l 1
 650 1400 l 1
 700 1400 l 1
 700 1200 l 1
 500 1200 l 1
EndSplineSet
Validated: 1
EndChar

StartChar: quotedblright
Encoding: 113 8221 113
Width: 800
Flags: HMW
LayerCount: 2
Fore
SplineSet
100 1200 m 1
 150 1400 l 1
 100 1400 l 1
 100 1600 l 1
 300 1600 l 1
 300 1400 l 1
 250 1200 l 1
 100 1200 l 1
500 1200 m 1
 550 1400 l 1
 500 1400 l 1
 500 1600 l 1
 700 1600 l 1
 700 1400 l 1
 650 1200 l 1
 500 1200 l 1
EndSplineSet
Validated: 1
EndChar

StartChar: bullet
Encoding: 114 8226 114
Width: 600
Flags: HMW
LayerCount: 2
Fore
SplineSet
100 700 m 1
 100 900 l 1
 200 1000 l 1
 400 1000 l 1
 500 900 l 1
 500 700 l 1
 400 600 l 1
 200 600 l 1
 100 700 l 1
EndSplineSet
Validated: 1
EndChar

StartChar: endash
Encoding: 115 8211 115
Width: 1200
Flags: HMW
LayerCount: 2
Fore
SplineSet
0 700 m 1
 0 900 l 1
 1200 900 l 1
 1200 700 l 1
 0 700 l 1
EndSplineSet
Validated: 1
EndChar

StartChar: emdash
Encoding: 116 8212 116
Width: 2400
Flags: HMW
LayerCount: 2
Fore
SplineSet
0 700 m 1
 0 900 l 1
 2400 900 l 1
 2400 700 l 1
 0 700 l 1
EndSplineSet
Validated: 1
EndChar

StartChar: tilde
Encoding: 117 732 117
Width: 1000
Flags: HMW
LayerCount: 2
Fore
SplineSet
100 1300 m 1
 100 1500 l 1
 200 1600 l 1
 300 1600 l 1
 700 1500 l 1
 700 1600 l 1
 900 1600 l 1
 900 1400 l 1
 800 1300 l 1
 700 1300 l 1
 300 1400 l 1
 300 1300 l 1
 100 1300 l 1
EndSplineSet
Validated: 1
EndChar

StartChar: trademark
Encoding: 118 8482 118
Width: 2600
Flags: HMW
LayerCount: 2
Fore
SplineSet
100 1400 m 1
 100 1600 l 1
 1100 1600 l 1
 1100 1400 l 1
 700 1400 l 1
 700 400 l 1
 500 400 l 1
 500 1400 l 1
 100 1400 l 1
1300 400 m 1
 1300 1600 l 1
 1500 1600 l 1
 1900 1200 l 1
 2300 1600 l 1
 2500 1600 l 1
 2500 400 l 1
 2300 400 l 1
 2300 1300 l 1
 2000 1000 l 1
 2000 600 l 1
 1800 600 l 1
 1800 1000 l 1
 1500 1300 l 1
 1500 400 l 1
 1300 400 l 1
EndSplineSet
Validated: 1
EndChar

StartChar: scaron
Encoding: 119 353 119
Width: 1200
Flags: HMW
LayerCount: 2
Fore
SplineSet
100 200 m 1
 100 300 l 1
 300 300 l 1
 400 200 l 1
 800 200 l 1
 900 300 l 1
 900 400 l 1
 800 500 l 1
 300 500 l 1
 100 700 l 1
 100 1000 l 1
 300 1200 l 1
 900 1200 l 1
 1100 1000 l 1
 1100 900 l 1
 900 900 l 1
 800 1000 l 1
 400 1000 l 1
 300 900 l 1
 300 800 l 1
 400 700 l 1
 900 700 l 1
 1100 500 l 1
 1100 200 l 1
 900 0 l 1
 300 0 l 1
 100 200 l 1
300 1500 m 1
 300 1600 l 1
 500 1600 l 1
 600 1500 l 1
 700 1600 l 1
 900 1600 l 1
 900 1500 l 1
 700 1300 l 1
 500 1300 l 1
 300 1500 l 1
EndSplineSet
Validated: 1
EndChar

StartChar: guilsinglright
Encoding: 120 8250 120
Width: 600
Flags: HMW
LayerCount: 2
Fore
SplineSet
100 400 m 1
 100 600 l 1
 300 800 l 1
 100 1000 l 1
 100 1200 l 1
 200 1200 l 1
 500 900 l 1
 500 700 l 1
 200 400 l 1
 100 400 l 1
EndSplineSet
Validated: 1
EndChar

StartChar: oe
Encoding: 121 339 121
Width: 2000
Flags: HMW
LayerCount: 2
Fore
SplineSet
100 300 m 1
 100 900 l 1
 400 1200 l 1
 800 1200 l 1
 1000 1000 l 1
 1200 1200 l 1
 1600 1200 l 1
 1900 900 l 1
 1900 500 l 1
 1100 500 l 1
 1100 400 l 1
 1300 200 l 1
 1900 200 l 1
 1900 0 l 1
 1200 0 l 1
 1000 200 l 1
 800 0 l 1
 400 0 l 1
 100 300 l 1
300 400 m 1
 500 200 l 1
 700 200 l 1
 900 400 l 1
 900 800 l 1
 700 1000 l 1
 500 1000 l 1
 300 800 l 1
 300 400 l 1
1100 700 m 1
 1700 700 l 1
 1700 800 l 1
 1500 1000 l 1
 1300 1000 l 1
 1100 800 l 1
 1100 700 l 1
EndSplineSet
Validated: 1
EndChar

StartChar: zcaron
Encoding: 122 382 122
Width: 1200
Flags: HMW
LayerCount: 2
Fore
SplineSet
100 0 m 1
 100 250 l 1
 850 1000 l 1
 100 1000 l 1
 100 1200 l 1
 1100 1200 l 1
 1100 950 l 1
 350 200 l 1
 1100 200 l 1
 1100 0 l 1
 100 0 l 1
300 1500 m 1
 300 1600 l 1
 500 1600 l 1
 600 1500 l 1
 700 1600 l 1
 900 1600 l 1
 900 1500 l 1
 700 1300 l 1
 500 1300 l 1
 300 1500 l 1
EndSplineSet
Validated: 1
EndChar

StartChar: Ydieresis
Encoding: 123 376 123
Width: 1400
Flags: HMW
LayerCount: 2
Fore
SplineSet
100 1100 m 1
 100 1600 l 1
 300 1600 l 1
 300 1200 l 1
 700 800 l 1
 1100 1200 l 1
 1100 1600 l 1
 1300 1600 l 1
 1300 1100 l 1
 800 600 l 1
 800 0 l 1
 600 0 l 1
 600 600 l 1
 100 1100 l 1
400 1800 m 1
 400 2000 l 1
 600 2000 l 1
 600 1800 l 1
 400 1800 l 1
800 1800 m 1
 800 2000 l 1
 1000 2000 l 1
 1000 1800 l 1
 800 1800 l 1
EndSplineSet
Validated: 1
EndChar

StartChar: exclamdown
Encoding: 125 161 125
Width: 400
Flags: HMW
LayerCount: 2
Fore
SplineSet
100 -400 m 1
 100 800 l 1
 300 800 l 1
 300 -400 l 1
 100 -400 l 1
100 1000 m 1
 100 1200 l 1
 300 1200 l 1
 300 1000 l 1
 100 1000 l 1
EndSplineSet
Validated: 1
EndChar

StartChar: cent
Encoding: 126 162 126
Width: 1400
Flags: HMW
LayerCount: 2
Fore
SplineSet
100 500 m 1
 100 1100 l 1
 400 1400 l 1
 600 1400 l 1
 600 1600 l 1
 800 1600 l 1
 800 1400 l 1
 1000 1400 l 1
 1300 1100 l 1
 1300 1000 l 1
 1100 1000 l 1
 900 1200 l 1
 800 1200 l 1
 800 400 l 1
 900 400 l 1
 1100 600 l 1
 1300 600 l 1
 1300 500 l 1
 1000 200 l 1
 800 200 l 1
 800 0 l 1
 600 0 l 1
 600 200 l 1
 400 200 l 1
 100 500 l 1
300 600 m 1
 500 400 l 1
 600 400 l 1
 600 1200 l 1
 500 1200 l 1
 300 1000 l 1
 300 600 l 1
EndSplineSet
Validated: 1
EndChar

StartChar: sterling
Encoding: 127 163 127
Width: 1600
Flags: HMW
LayerCount: 2
Fore
SplineSet
100 100 m 1
 100 200 l 1
 300 400 l 1
 500 400 l 1
 500 800 l 1
 200 800 l 1
 200 1000 l 1
 500 1000 l 1
 500 1300 l 1
 800 1600 l 1
 1200 1600 l 1
 1500 1300 l 1
 1500 1200 l 1
 1300 1200 l 1
 1100 1400 l 1
 900 1400 l 1
 700 1200 l 1
 700 1000 l 1
 1000 1000 l 1
 1000 800 l 1
 700 800 l 1
 700 400 l 1
 1100 400 l 1
 1300 200 l 1
 1500 200 l 1
 1500 0 l 1
 1200 0 l 1
 1000 200 l 1
 700 200 l 1
 500 0 l 1
 200 0 l 1
 100 100 l 1
EndSplineSet
Validated: 1
EndChar

StartChar: currency
Encoding: 128 164 128
Width: 1200
Flags: HMW
LayerCount: 2
Fore
SplineSet
100 0 m 1
 100 100 l 1
 300 300 l 1
 100 500 l 1
 100 1100 l 1
 300 1300 l 1
 100 1500 l 1
 100 1600 l 1
 300 1600 l 1
 500 1400 l 1
 700 1400 l 1
 900 1600 l 1
 1100 1600 l 1
 1100 1500 l 1
 900 1300 l 1
 1100 1100 l 1
 1100 500 l 1
 900 300 l 1
 1100 100 l 1
 1100 0 l 1
 900 0 l 1
 700 200 l 1
 500 200 l 1
 300 0 l 1
 100 0 l 1
300 600 m 1
 500 400 l 1
 700 400 l 1
 900 600 l 1
 900 1000 l 1
 700 1200 l 1
 500 1200 l 1
 300 1000 l 1
 300 600 l 1
EndSplineSet
Validated: 1
EndChar

StartChar: yen
Encoding: 129 165 129
Width: 1400
Flags: HMW
LayerCount: 2
Fore
SplineSet
100 1300 m 1
 100 1600 l 1
 300 1600 l 1
 300 1400 l 1
 700 1000 l 1
 1100 1400 l 1
 1100 1600 l 1
 1300 1600 l 1
 1300 1300 l 1
 800 800 l 1
 1100 800 l 1
 1100 600 l 1
 800 600 l 1
 800 400 l 1
 1100 400 l 1
 1100 200 l 1
 800 200 l 1
 800 0 l 1
 600 0 l 1
 600 200 l 1
 300 200 l 1
 300 400 l 1
 600 400 l 1
 600 600 l 1
 300 600 l 1
 300 800 l 1
 600 800 l 1
 100 1300 l 1
EndSplineSet
Validated: 1
EndChar

StartChar: brokenbar
Encoding: 130 166 130
Width: 400
Flags: HMW
LayerCount: 2
Fore
SplineSet
100 -400 m 1
 100 400 l 1
 300 400 l 1
 300 -400 l 1
 100 -400 l 1
100 800 m 1
 100 1600 l 1
 300 1600 l 1
 300 800 l 1
 100 800 l 1
EndSplineSet
Validated: 1
EndChar

StartChar: section
Encoding: 131 167 131
Width: 1200
Flags: HMW
LayerCount: 2
Fore
SplineSet
100 200 m 1
 100 300 l 1
 300 300 l 1
 400 200 l 1
 600 200 l 1
 700 300 l 1
 700 400 l 1
 600 500 l 1
 300 500 l 1
 100 700 l 1
 100 1000 l 1
 300 1200 l 1
 300 1400 l 1
 500 1600 l 1
 900 1600 l 1
 1100 1400 l 1
 1100 1300 l 1
 900 1300 l 1
 800 1400 l 1
 600 1400 l 1
 500 1300 l 1
 500 1200 l 1
 600 1100 l 1
 900 1100 l 1
 1100 900 l 1
 1100 600 l 1
 900 400 l 1
 900 200 l 1
 700 0 l 1
 300 0 l 1
 100 200 l 1
300 800 m 1
 400 700 l 1
 700 700 l 1
 800 600 l 1
 900 700 l 1
 900 800 l 1
 800 900 l 1
 500 900 l 1
 400 1000 l 1
 300 900 l 1
 300 800 l 1
EndSplineSet
Validated: 1
EndChar

StartChar: dieresis
Encoding: 132 168 132
Width: 800
Flags: HMW
LayerCount: 2
Fore
SplineSet
100 1400 m 1
 100 1600 l 1
 300 1600 l 1
 300 1400 l 1
 100 1400 l 1
500 1400 m 1
 500 1600 l 1
 700 1600 l 1
 700 1400 l 1
 500 1400 l 1
EndSplineSet
Validated: 1
EndChar

StartChar: copyright
Encoding: 133 169 133
Width: 1400
Flags: HMW
LayerCount: 2
Fore
SplineSet
100 300 m 1
 100 1300 l 1
 400 1600 l 1
 1000 1600 l 1
 1300 1300 l 1
 1300 300 l 1
 1000 0 l 1
 400 0 l 1
 100 300 l 1
300 400 m 1
 500 200 l 1
 900 200 l 1
 1100 400 l 1
 1100 500 l 1
 900 500 l 1
 800 400 l 1
 600 400 l 1
 500 500 l 1
 500 1100 l 1
 600 1200 l 1
 800 1200 l 1
 900 1100 l 1
 1100 1100 l 1
 1100 1200 l 1
 900 1400 l 1
 500 1400 l 1
 300 1200 l 1
 300 400 l 1
EndSplineSet
Validated: 1
EndChar

StartChar: ordfeminine
Encoding: 134 170 134
Width: 1000
Flags: HMW
LayerCount: 2
Fore
SplineSet
100 800 m 1
 100 1000 l 1
 300 1200 l 1
 700 1200 l 1
 700 1300 l 1
 600 1400 l 1
 300 1400 l 1
 300 1600 l 1
 700 1600 l 1
 900 1400 l 1
 900 600 l 1
 300 600 l 1
 100 800 l 1
200 200 m 1
 200 400 l 1
 800 400 l 1
 800 200 l 1
 200 200 l 1
300 900 m 1
 400 800 l 1
 700 800 l 1
 700 1000 l 1
 400 1000 l 1
 300 900 l 1
EndSplineSet
Validated: 1
EndChar

StartChar: guillemotleft
Encoding: 135 171 135
Width: 1200
Flags: HMW
LayerCount: 2
Fore
SplineSet
100 700 m 1
 100 900 l 1
 400 1200 l 1
 500 1200 l 1
 500 1000 l 1
 300 800 l 1
 500 600 l 1
 500 400 l 1
 400 400 l 1
 100 700 l 1
700 700 m 1
 700 900 l 1
 1000 1200 l 1
 1100 1200 l 1
 1100 1000 l 1
 900 800 l 1
 1100 600 l 1
 1100 400 l 1
 1000 400 l 1
 700 700 l 1
EndSplineSet
Validated: 1
EndChar

StartChar: logicalnot
Encoding: 136 172 136
Width: 1000
Flags: HMW
LayerCount: 2
Fore
SplineSet
100 800 m 1
 100 1000 l 1
 900 1000 l 1
 900 600 l 1
 700 600 l 1
 700 800 l 1
 100 800 l 1
EndSplineSet
Validated: 1
EndChar

StartChar: uni00AD
Encoding: 137 173 137
Width: 1000
Flags: HMW
LayerCount: 2
Fore
SplineSet
100 700 m 1
 100 900 l 1
 900 900 l 1
 900 700 l 1
 100 700 l 1
EndSplineSet
Validated: 1
EndChar

StartChar: registered
Encoding: 138 174 138
Width: 1400
Flags: HMW
LayerCount: 2
Fore
SplineSet
100 300 m 1
 100 1300 l 1
 400 1600 l 1
 1000 1600 l 1
 1300 1300 l 1
 1300 300 l 1
 1000 0 l 1
 400 0 l 1
 100 300 l 1
300 200 m 1
 500 200 l 1
 500 600 l 1
 900 200 l 1
 1100 200 l 1
 1100 300 l 1
 700 700 l 1
 900 700 l 1
 1100 900 l 1
 1100 1200 l 1
 900 1400 l 1
 300 1400 l 1
 300 200 l 1
500 900 m 1
 500 1200 l 1
 800 1200 l 1
 900 1100 l 1
 900 1000 l 1
 800 900 l 1
 500 900 l 1
EndSplineSet
Validated: 1
EndChar

StartChar: macron
Encoding: 139 175 139
Width: 800
Flags: HMW
LayerCount: 2
Fore
SplineSet
100 1400 m 1
 100 1600 l 1
 700 1600 l 1
 700 1400 l 1
 100 1400 l 1
EndSplineSet
Validated: 1
EndChar

StartChar: degree
Encoding: 140 176 140
Width: 1000
Flags: HMW
LayerCount: 2
Fore
SplineSet
100 1000 m 1
 100 1400 l 1
 300 1600 l 1
 700 1600 l 1
 900 1400 l 1
 900 1000 l 1
 700 800 l 1
 300 800 l 1
 100 1000 l 1
300 1100 m 1
 400 1000 l 1
 600 1000 l 1
 700 1100 l 1
 700 1300 l 1
 600 1400 l 1
 400 1400 l 1
 300 1300 l 1
 300 1100 l 1
EndSplineSet
Validated: 1
EndChar

StartChar: plusminus
Encoding: 141 177 141
Width: 1000
Flags: HMW
LayerCount: 2
Fore
SplineSet
100 0 m 1
 100 200 l 1
 900 200 l 1
 900 0 l 1
 100 0 l 1
100 700 m 1
 100 900 l 1
 400 900 l 1
 400 1200 l 1
 600 1200 l 1
 600 900 l 1
 900 900 l 1
 900 700 l 1
 600 700 l 1
 600 400 l 1
 400 400 l 1
 400 700 l 1
 100 700 l 1
EndSplineSet
Validated: 1
EndChar

StartChar: uni00B2
Encoding: 142 178 142
Width: 1000
Flags: HMW
LayerCount: 2
Fore
SplineSet
100 600 m 1
 100 800 l 1
 700 1400 l 1
 700 1500 l 1
 600 1600 l 1
 400 1600 l 1
 300 1500 l 1
 100 1500 l 1
 100 1600 l 1
 300 1800 l 1
 700 1800 l 1
 900 1600 l 1
 900 1300 l 1
 400 800 l 1
 900 800 l 1
 900 600 l 1
 100 600 l 1
EndSplineSet
Validated: 1
EndChar

StartChar: uni00B3
Encoding: 143 179 143
Width: 1000
Flags: HMW
LayerCount: 2
Fore
SplineSet
100 800 m 1
 100 900 l 1
 300 900 l 1
 400 800 l 1
 600 800 l 1
 700 900 l 1
 700 1000 l 1
 600 1100 l 1
 300 1100 l 1
 300 1300 l 1
 600 1300 l 1
 700 1400 l 1
 700 1500 l 1
 600 1600 l 1
 400 1600 l 1
 300 1500 l 1
 100 1500 l 1
 100 1600 l 1
 300 1800 l 1
 700 1800 l 1
 900 1600 l 1
 900 1300 l 1
 800 1200 l 1
 900 1100 l 1
 900 800 l 1
 700 600 l 1
 300 600 l 1
 100 800 l 1
EndSplineSet
Validated: 1
EndChar

StartChar: acute
Encoding: 144 180 144
Width: 800
Flags: HMW
LayerCount: 2
Fore
SplineSet
100 1100 m 1
 100 1200 l 1
 500 1600 l 1
 700 1600 l 1
 700 1500 l 1
 300 1100 l 1
 100 1100 l 1
EndSplineSet
Validated: 1
EndChar

StartChar: mu
Encoding: 145 181 145
Width: 1200
Flags: HMW
LayerCount: 2
Fore
SplineSet
100 -400 m 1
 100 1200 l 1
 300 1200 l 1
 300 200 l 1
 700 200 l 1
 900 400 l 1
 900 1200 l 1
 1100 1200 l 1
 1100 300 l 1
 800 0 l 1
 300 0 l 1
 300 -400 l 1
 100 -400 l 1
EndSplineSet
Validated: 1
EndChar

StartChar: paragraph
Encoding: 146 182 146
Width: 1600
Flags: HMW
LayerCount: 2
Fore
SplineSet
100 1000 m 1
 100 1300 l 1
 400 1600 l 1
 1500 1600 l 1
 1500 1400 l 1
 1400 1400 l 1
 1400 0 l 1
 1200 0 l 1
 1200 1400 l 1
 1100 1400 l 1
 1100 0 l 1
 900 0 l 1
 900 700 l 1
 400 700 l 1
 100 1000 l 1
300 1100 m 1
 500 900 l 1
 900 900 l 1
 900 1400 l 1
 500 1400 l 1
 300 1200 l 1
 300 1100 l 1
EndSplineSet
Validated: 1
EndChar

StartChar: periodcentered
Encoding: 147 183 147
Width: 400
Flags: HMW
LayerCount: 2
Fore
SplineSet
100 700 m 1
 100 900 l 1
 300 900 l 1
 300 700 l 1
 100 700 l 1
EndSplineSet
Validated: 1
Substitution2: "Single Substitution lookup 10-1" periodcentered.CATC
Substitution2: "Single Substitution lookup 11-1" periodcentered.CATL
EndChar

StartChar: cedilla
Encoding: 148 184 148
Width: 600
Flags: HMW
LayerCount: 2
Fore
SplineSet
100 0 m 1
 400 0 l 1
 500 -100 l 1
 500 -300 l 1
 400 -400 l 1
 100 -400 l 1
 100 -300 l 1
 300 -300 l 1
 300 -100 l 1
 100 -100 l 1
 100 0 l 1
EndSplineSet
Validated: 1
EndChar

StartChar: uni00B9
Encoding: 149 185 149
Width: 1000
Flags: HMW
LayerCount: 2
Fore
SplineSet
100 600 m 1
 100 800 l 1
 400 800 l 1
 400 1500 l 1
 300 1400 l 1
 100 1400 l 1
 100 1500 l 1
 400 1800 l 1
 600 1800 l 1
 600 800 l 1
 900 800 l 1
 900 600 l 1
 100 600 l 1
EndSplineSet
Validated: 1
EndChar

StartChar: ordmasculine
Encoding: 150 186 150
Width: 1000
Flags: HMW
LayerCount: 2
Fore
SplineSet
100 800 m 1
 100 1400 l 1
 300 1600 l 1
 700 1600 l 1
 900 1400 l 1
 900 800 l 1
 700 600 l 1
 300 600 l 1
 100 800 l 1
200 200 m 1
 200 400 l 1
 800 400 l 1
 800 200 l 1
 200 200 l 1
300 900 m 1
 400 800 l 1
 600 800 l 1
 700 900 l 1
 700 1300 l 1
 600 1400 l 1
 400 1400 l 1
 300 1300 l 1
 300 900 l 1
EndSplineSet
Validated: 1
EndChar

StartChar: guillemotright
Encoding: 151 187 151
Width: 1200
Flags: HMW
LayerCount: 2
Fore
SplineSet
100 400 m 1
 100 600 l 1
 300 800 l 1
 100 1000 l 1
 100 1200 l 1
 200 1200 l 1
 500 900 l 1
 500 700 l 1
 200 400 l 1
 100 400 l 1
700 400 m 1
 700 600 l 1
 900 800 l 1
 700 1000 l 1
 700 1200 l 1
 800 1200 l 1
 1100 900 l 1
 1100 700 l 1
 800 400 l 1
 700 400 l 1
EndSplineSet
Validated: 1
EndChar

StartChar: onequarter
Encoding: 152 188 152
Width: 2400
Flags: HMW
LayerCount: 2
Fore
SplineSet
100 600 m 1
 100 800 l 1
 400 800 l 1
 400 1500 l 1
 300 1400 l 1
 100 1400 l 1
 100 1500 l 1
 400 1800 l 1
 600 1800 l 1
 600 800 l 1
 900 800 l 1
 900 600 l 1
 100 600 l 1
800 0 m 1
 1600 1600 l 1
 1800 1600 l 1
 1000 0 l 1
 800 0 l 1
1500 100 m 1
 1500 600 l 1
 1900 1000 l 1
 2100 1000 l 1
 2100 300 l 1
 2300 300 l 1
 2300 100 l 1
 2100 100 l 1
 2100 -200 l 1
 1900 -200 l 1
 1900 100 l 1
 1500 100 l 1
1700 300 m 1
 1900 300 l 1
 1900 700 l 1
 1700 500 l 1
 1700 300 l 1
EndSplineSet
Validated: 1
EndChar

StartChar: onehalf
Encoding: 153 189 153
Width: 2500
Flags: HMW
LayerCount: 2
Fore
SplineSet
100 600 m 1
 100 800 l 1
 400 800 l 1
 400 1500 l 1
 300 1400 l 1
 100 1400 l 1
 100 1500 l 1
 400 1800 l 1
 600 1800 l 1
 600 800 l 1
 900 800 l 1
 900 600 l 1
 100 600 l 1
800 0 m 1
 1600 1600 l 1
 1800 1600 l 1
 1000 0 l 1
 800 0 l 1
1600 0 m 1
 2200 600 l 1
 2200 700 l 1
 2100 800 l 1
 1900 800 l 1
 1800 700 l 1
 1600 700 l 1
 1600 800 l 1
 1800 1000 l 1
 2200 1000 l 1
 2400 800 l 1
 2400 500 l 1
 1900 0 l 1
 2400 0 l 1
 2400 -200 l 1
 1600 -200 l 1
 1600 0 l 1
EndSplineSet
Validated: 1
EndChar

StartChar: threequarters
Encoding: 154 190 154
Width: 2300
Flags: HMW
LayerCount: 2
Fore
SplineSet
100 800 m 1
 100 900 l 1
 300 900 l 1
 400 800 l 1
 600 800 l 1
 700 900 l 1
 700 1000 l 1
 600 1100 l 1
 300 1100 l 1
 300 1300 l 1
 600 1300 l 1
 700 1400 l 1
 700 1500 l 1
 600 1600 l 1
 400 1600 l 1
 300 1500 l 1
 100 1500 l 1
 100 1600 l 1
 300 1800 l 1
 700 1800 l 1
 900 1600 l 1
 900 1300 l 1
 800 1200 l 1
 900 1100 l 1
 900 800 l 1
 700 600 l 1
 300 600 l 1
 100 800 l 1
700 0 m 1
 1500 1600 l 1
 1700 1600 l 1
 900 0 l 1
 700 0 l 1
1400 100 m 1
 1400 600 l 1
 1800 1000 l 1
 2000 1000 l 1
 2000 300 l 1
 2200 300 l 1
 2200 100 l 1
 2000 100 l 1
 2000 -200 l 1
 1800 -200 l 1
 1800 100 l 1
 1400 100 l 1
1600 300 m 1
 1800 300 l 1
 1800 700 l 1
 1600 500 l 1
 1600 300 l 1
EndSplineSet
Validated: 1
EndChar

StartChar: questiondown
Encoding: 155 191 155
Width: 1200
Flags: HMW
LayerCount: 2
Fore
SplineSet
100 -100 m 1
 100 300 l 1
 500 700 l 1
 500 800 l 1
 700 800 l 1
 700 600 l 1
 300 200 l 1
 300 0 l 1
 500 -200 l 1
 700 -200 l 1
 900 0 l 1
 1100 0 l 1
 1100 -100 l 1
 800 -400 l 1
 400 -400 l 1
 100 -100 l 1
500 1000 m 1
 500 1200 l 1
 700 1200 l 1
 700 1000 l 1
 500 1000 l 1
EndSplineSet
Validated: 1
EndChar

StartChar: Agrave
Encoding: 156 192 156
Width: 1400
Flags: HMW
LayerCount: 2
Fore
SplineSet
100 0 m 1
 100 1100 l 1
 600 1600 l 1
 800 1600 l 1
 1300 1100 l 1
 1300 0 l 1
 1100 0 l 1
 1100 400 l 1
 300 400 l 1
 300 0 l 1
 100 0 l 1
300 600 m 1
 1100 600 l 1
 1100 1000 l 1
 700 1400 l 1
 300 1000 l 1
 300 600 l 1
400 1900 m 1
 400 2000 l 1
 600 2000 l 1
 800 1800 l 1
 800 1700 l 1
 600 1700 l 1
 400 1900 l 1
EndSplineSet
Validated: 1
EndChar

StartChar: Aacute
Encoding: 157 193 157
Width: 1400
Flags: HMW
LayerCount: 2
Fore
SplineSet
100 0 m 1
 100 1100 l 1
 600 1600 l 1
 800 1600 l 1
 1300 1100 l 1
 1300 0 l 1
 1100 0 l 1
 1100 400 l 1
 300 400 l 1
 300 0 l 1
 100 0 l 1
300 600 m 1
 1100 600 l 1
 1100 1000 l 1
 700 1400 l 1
 300 1000 l 1
 300 600 l 1
600 1700 m 1
 600 1800 l 1
 800 2000 l 1
 1000 2000 l 1
 1000 1900 l 1
 800 1700 l 1
 600 1700 l 1
EndSplineSet
Validated: 1
EndChar

StartChar: Acircumflex
Encoding: 158 194 158
Width: 1400
Flags: HMW
LayerCount: 2
Fore
SplineSet
100 0 m 1
 100 1100 l 1
 600 1600 l 1
 800 1600 l 1
 1300 1100 l 1
 1300 0 l 1
 1100 0 l 1
 1100 400 l 1
 300 400 l 1
 300 0 l 1
 100 0 l 1
300 600 m 1
 1100 600 l 1
 1100 1000 l 1
 700 1400 l 1
 300 1000 l 1
 300 600 l 1
400 1700 m 1
 400 1800 l 1
 600 2000 l 1
 800 2000 l 1
 1000 1800 l 1
 1000 1700 l 1
 800 1700 l 1
 700 1800 l 1
 600 1700 l 1
 400 1700 l 1
EndSplineSet
Validated: 1
EndChar

StartChar: Atilde
Encoding: 159 195 159
Width: 1400
Flags: HMW
LayerCount: 2
Fore
SplineSet
100 0 m 1
 100 1100 l 1
 600 1600 l 1
 800 1600 l 1
 1300 1100 l 1
 1300 0 l 1
 1100 0 l 1
 1100 400 l 1
 300 400 l 1
 300 0 l 1
 100 0 l 1
300 600 m 1
 1100 600 l 1
 1100 1000 l 1
 700 1400 l 1
 300 1000 l 1
 300 600 l 1
300 1700 m 1
 300 1900 l 1
 400 2000 l 1
 500 2000 l 1
 900 1900 l 1
 900 2000 l 1
 1100 2000 l 1
 1100 1800 l 1
 1000 1700 l 1
 900 1700 l 1
 500 1800 l 1
 500 1700 l 1
 300 1700 l 1
EndSplineSet
Validated: 1
EndChar

StartChar: Adieresis
Encoding: 160 196 160
Width: 1400
Flags: HMW
LayerCount: 2
Fore
SplineSet
100 0 m 1
 100 1100 l 1
 600 1600 l 1
 800 1600 l 1
 1300 1100 l 1
 1300 0 l 1
 1100 0 l 1
 1100 400 l 1
 300 400 l 1
 300 0 l 1
 100 0 l 1
300 600 m 1
 1100 600 l 1
 1100 1000 l 1
 700 1400 l 1
 300 1000 l 1
 300 600 l 1
400 1800 m 1
 400 2000 l 1
 600 2000 l 1
 600 1800 l 1
 400 1800 l 1
800 1800 m 1
 800 2000 l 1
 1000 2000 l 1
 1000 1800 l 1
 800 1800 l 1
EndSplineSet
Validated: 1
EndChar

StartChar: Aring
Encoding: 161 197 161
Width: 1400
Flags: HMW
LayerCount: 2
Fore
SplineSet
100 0 m 1
 100 1100 l 1
 600 1600 l 1
 500 1600 l 1
 400 1700 l 1
 400 1900 l 1
 500 2000 l 1
 900 2000 l 1
 1000 1900 l 1
 1000 1700 l 1
 900 1600 l 1
 800 1600 l 1
 1300 1100 l 1
 1300 0 l 1
 1100 0 l 1
 1100 400 l 1
 300 400 l 1
 300 0 l 1
 100 0 l 1
300 600 m 1
 1100 600 l 1
 1100 1000 l 1
 700 1400 l 1
 300 1000 l 1
 300 600 l 1
600 1700 m 1
 800 1700 l 1
 800 1900 l 1
 600 1900 l 1
 600 1700 l 1
EndSplineSet
Validated: 1
EndChar

StartChar: AE
Encoding: 162 198 162
Width: 2400
Flags: HMW
LayerCount: 2
Fore
SplineSet
100 0 m 1
 100 800 l 1
 900 1600 l 1
 2300 1600 l 1
 2300 1400 l 1
 1300 1400 l 1
 1300 900 l 1
 2100 900 l 1
 2100 700 l 1
 1300 700 l 1
 1300 200 l 1
 2300 200 l 1
 2300 0 l 1
 1100 0 l 1
 1100 400 l 1
 300 400 l 1
 300 0 l 1
 100 0 l 1
300 600 m 1
 1100 600 l 1
 1100 1400 l 1
 1000 1400 l 1
 300 700 l 1
 300 600 l 1
EndSplineSet
Validated: 1
EndChar

StartChar: Ccedilla
Encoding: 163 199 163
Width: 1400
Flags: HMW
LayerCount: 2
Fore
SplineSet
100 300 m 1
 100 1300 l 1
 400 1600 l 1
 1000 1600 l 1
 1300 1300 l 1
 1300 1200 l 1
 1100 1200 l 1
 900 1400 l 1
 500 1400 l 1
 300 1200 l 1
 300 400 l 1
 500 200 l 1
 900 200 l 1
 1100 400 l 1
 1300 400 l 1
 1300 300 l 1
 1000 0 l 1
 900 0 l 1
 1000 -100 l 1
 1000 -300 l 1
 900 -400 l 1
 600 -400 l 1
 600 -300 l 1
 800 -300 l 1
 800 -100 l 1
 600 -100 l 1
 600 0 l 1
 400 0 l 1
 100 300 l 1
EndSplineSet
Validated: 1
EndChar

StartChar: Egrave
Encoding: 164 200 164
Width: 1400
Flags: HMW
LayerCount: 2
Fore
SplineSet
100 0 m 1
 100 1600 l 1
 1300 1600 l 1
 1300 1400 l 1
 300 1400 l 1
 300 900 l 1
 1100 900 l 1
 1100 700 l 1
 300 700 l 1
 300 200 l 1
 1300 200 l 1
 1300 0 l 1
 100 0 l 1
400 1900 m 1
 400 2000 l 1
 600 2000 l 1
 800 1800 l 1
 800 1700 l 1
 600 1700 l 1
 400 1900 l 1
EndSplineSet
Validated: 1
EndChar

StartChar: Eacute
Encoding: 165 201 165
Width: 1400
Flags: HMW
LayerCount: 2
Fore
SplineSet
100 0 m 1
 100 1600 l 1
 1300 1600 l 1
 1300 1400 l 1
 300 1400 l 1
 300 900 l 1
 1100 900 l 1
 1100 700 l 1
 300 700 l 1
 300 200 l 1
 1300 200 l 1
 1300 0 l 1
 100 0 l 1
600 1700 m 1
 600 1800 l 1
 800 2000 l 1
 1000 2000 l 1
 1000 1900 l 1
 800 1700 l 1
 600 1700 l 1
EndSplineSet
Validated: 1
EndChar

StartChar: Ecircumflex
Encoding: 166 202 166
Width: 1400
Flags: HMW
LayerCount: 2
Fore
SplineSet
100 0 m 1
 100 1600 l 1
 1300 1600 l 1
 1300 1400 l 1
 300 1400 l 1
 300 900 l 1
 1100 900 l 1
 1100 700 l 1
 300 700 l 1
 300 200 l 1
 1300 200 l 1
 1300 0 l 1
 100 0 l 1
400 1700 m 1
 400 1800 l 1
 600 2000 l 1
 800 2000 l 1
 1000 1800 l 1
 1000 1700 l 1
 800 1700 l 1
 700 1800 l 1
 600 1700 l 1
 400 1700 l 1
EndSplineSet
Validated: 1
EndChar

StartChar: Edieresis
Encoding: 167 203 167
Width: 1400
Flags: HMW
LayerCount: 2
Fore
SplineSet
100 0 m 1
 100 1600 l 1
 1300 1600 l 1
 1300 1400 l 1
 300 1400 l 1
 300 900 l 1
 1100 900 l 1
 1100 700 l 1
 300 700 l 1
 300 200 l 1
 1300 200 l 1
 1300 0 l 1
 100 0 l 1
400 1800 m 1
 400 2000 l 1
 600 2000 l 1
 600 1800 l 1
 400 1800 l 1
800 1800 m 1
 800 2000 l 1
 1000 2000 l 1
 1000 1800 l 1
 800 1800 l 1
EndSplineSet
Validated: 1
EndChar

StartChar: Igrave
Encoding: 168 204 168
Width: 1000
Flags: HMW
LayerCount: 2
Fore
SplineSet
100 0 m 1
 100 200 l 1
 400 200 l 1
 400 1400 l 1
 100 1400 l 1
 100 1600 l 1
 900 1600 l 1
 900 1400 l 1
 600 1400 l 1
 600 200 l 1
 900 200 l 1
 900 0 l 1
 100 0 l 1
200 1900 m 1
 200 2000 l 1
 400 2000 l 1
 600 1800 l 1
 600 1700 l 1
 400 1700 l 1
 200 1900 l 1
EndSplineSet
Validated: 1
EndChar

StartChar: Iacute
Encoding: 169 205 169
Width: 1000
Flags: HMW
LayerCount: 2
Fore
SplineSet
100 0 m 1
 100 200 l 1
 400 200 l 1
 400 1400 l 1
 100 1400 l 1
 100 1600 l 1
 900 1600 l 1
 900 1400 l 1
 600 1400 l 1
 600 200 l 1
 900 200 l 1
 900 0 l 1
 100 0 l 1
400 1700 m 1
 400 1800 l 1
 600 2000 l 1
 800 2000 l 1
 800 1900 l 1
 600 1700 l 1
 400 1700 l 1
EndSplineSet
Validated: 1
EndChar

StartChar: Icircumflex
Encoding: 170 206 170
Width: 1000
Flags: HMW
LayerCount: 2
Fore
SplineSet
100 0 m 1
 100 200 l 1
 400 200 l 1
 400 1400 l 1
 100 1400 l 1
 100 1600 l 1
 900 1600 l 1
 900 1400 l 1
 600 1400 l 1
 600 200 l 1
 900 200 l 1
 900 0 l 1
 100 0 l 1
200 1700 m 1
 200 1800 l 1
 400 2000 l 1
 600 2000 l 1
 800 1800 l 1
 800 1700 l 1
 600 1700 l 1
 500 1800 l 1
 400 1700 l 1
 200 1700 l 1
EndSplineSet
Validated: 1
EndChar

StartChar: Idieresis
Encoding: 171 207 171
Width: 1000
Flags: HMW
LayerCount: 2
Fore
SplineSet
100 0 m 1
 100 200 l 1
 400 200 l 1
 400 1400 l 1
 100 1400 l 1
 100 1600 l 1
 900 1600 l 1
 900 1400 l 1
 600 1400 l 1
 600 200 l 1
 900 200 l 1
 900 0 l 1
 100 0 l 1
200 1800 m 1
 200 2000 l 1
 400 2000 l 1
 400 1800 l 1
 200 1800 l 1
600 1800 m 1
 600 2000 l 1
 800 2000 l 1
 800 1800 l 1
 600 1800 l 1
EndSplineSet
Validated: 1
EndChar

StartChar: Eth
Encoding: 172 208 172
Width: 1400
Flags: HMW
LayerCount: 2
Fore
SplineSet
100 0 m 1
 100 200 l 1
 300 200 l 1
 300 700 l 1
 100 700 l 1
 100 900 l 1
 300 900 l 1
 300 1400 l 1
 100 1400 l 1
 100 1600 l 1
 900 1600 l 1
 1300 1200 l 1
 1300 400 l 1
 900 0 l 1
 100 0 l 1
500 200 m 1
 800 200 l 1
 1100 500 l 1
 1100 1100 l 1
 800 1400 l 1
 500 1400 l 1
 500 900 l 1
 800 900 l 1
 800 700 l 1
 500 700 l 1
 500 200 l 1
EndSplineSet
Validated: 1
EndChar

StartChar: Ntilde
Encoding: 173 209 173
Width: 1400
Flags: HMW
LayerCount: 2
Fore
SplineSet
100 0 m 1
 100 1600 l 1
 300 1600 l 1
 300 1350 l 1
 1100 550 l 1
 1100 1600 l 1
 1300 1600 l 1
 1300 0 l 1
 1100 0 l 1
 1100 250 l 1
 300 1050 l 1
 300 0 l 1
 100 0 l 1
300 1700 m 1
 300 1900 l 1
 400 2000 l 1
 500 2000 l 1
 900 1900 l 1
 900 2000 l 1
 1100 2000 l 1
 1100 1800 l 1
 1000 1700 l 1
 900 1700 l 1
 500 1800 l 1
 500 1700 l 1
 300 1700 l 1
EndSplineSet
Validated: 1
EndChar

StartChar: Ograve
Encoding: 174 210 174
Width: 1400
Flags: HMW
LayerCount: 2
Fore
SplineSet
100 300 m 1
 100 1300 l 1
 400 1600 l 1
 1000 1600 l 1
 1300 1300 l 1
 1300 300 l 1
 1000 0 l 1
 400 0 l 1
 100 300 l 1
300 400 m 1
 500 200 l 1
 900 200 l 1
 1100 400 l 1
 1100 1200 l 1
 900 1400 l 1
 500 1400 l 1
 300 1200 l 1
 300 400 l 1
400 1900 m 1
 400 2000 l 1
 600 2000 l 1
 800 1800 l 1
 800 1700 l 1
 600 1700 l 1
 400 1900 l 1
EndSplineSet
Validated: 1
EndChar

StartChar: Oacute
Encoding: 175 211 175
Width: 1400
Flags: HMW
LayerCount: 2
Fore
SplineSet
100 300 m 1
 100 1300 l 1
 400 1600 l 1
 1000 1600 l 1
 1300 1300 l 1
 1300 300 l 1
 1000 0 l 1
 400 0 l 1
 100 300 l 1
300 400 m 1
 500 200 l 1
 900 200 l 1
 1100 400 l 1
 1100 1200 l 1
 900 1400 l 1
 500 1400 l 1
 300 1200 l 1
 300 400 l 1
600 1700 m 1
 600 1800 l 1
 800 2000 l 1
 1000 2000 l 1
 1000 1900 l 1
 800 1700 l 1
 600 1700 l 1
EndSplineSet
Validated: 1
EndChar

StartChar: Ocircumflex
Encoding: 176 212 176
Width: 1400
Flags: HMW
LayerCount: 2
Fore
SplineSet
100 300 m 1
 100 1300 l 1
 400 1600 l 1
 1000 1600 l 1
 1300 1300 l 1
 1300 300 l 1
 1000 0 l 1
 400 0 l 1
 100 300 l 1
300 400 m 1
 500 200 l 1
 900 200 l 1
 1100 400 l 1
 1100 1200 l 1
 900 1400 l 1
 500 1400 l 1
 300 1200 l 1
 300 400 l 1
400 1700 m 1
 400 1800 l 1
 600 2000 l 1
 800 2000 l 1
 1000 1800 l 1
 1000 1700 l 1
 800 1700 l 1
 700 1800 l 1
 600 1700 l 1
 400 1700 l 1
EndSplineSet
Validated: 1
EndChar

StartChar: Otilde
Encoding: 177 213 177
Width: 1400
Flags: HMW
LayerCount: 2
Fore
SplineSet
100 300 m 1
 100 1300 l 1
 400 1600 l 1
 1000 1600 l 1
 1300 1300 l 1
 1300 300 l 1
 1000 0 l 1
 400 0 l 1
 100 300 l 1
300 400 m 1
 500 200 l 1
 900 200 l 1
 1100 400 l 1
 1100 1200 l 1
 900 1400 l 1
 500 1400 l 1
 300 1200 l 1
 300 400 l 1
300 1700 m 1
 300 1900 l 1
 400 2000 l 1
 500 2000 l 1
 900 1900 l 1
 900 2000 l 1
 1100 2000 l 1
 1100 1800 l 1
 1000 1700 l 1
 900 1700 l 1
 500 1800 l 1
 500 1700 l 1
 300 1700 l 1
EndSplineSet
Validated: 1
EndChar

StartChar: Odieresis
Encoding: 178 214 178
Width: 1400
Flags: HMW
LayerCount: 2
Fore
SplineSet
100 300 m 1
 100 1300 l 1
 400 1600 l 1
 1000 1600 l 1
 1300 1300 l 1
 1300 300 l 1
 1000 0 l 1
 400 0 l 1
 100 300 l 1
300 400 m 1
 500 200 l 1
 900 200 l 1
 1100 400 l 1
 1100 1200 l 1
 900 1400 l 1
 500 1400 l 1
 300 1200 l 1
 300 400 l 1
400 1800 m 1
 400 2000 l 1
 600 2000 l 1
 600 1800 l 1
 400 1800 l 1
800 1800 m 1
 800 2000 l 1
 1000 2000 l 1
 1000 1800 l 1
 800 1800 l 1
EndSplineSet
Validated: 1
EndChar

StartChar: multiply
Encoding: 179 215 179
Width: 1000
Flags: HMW
LayerCount: 2
Fore
SplineSet
100 400 m 1
 100 550 l 1
 350 800 l 1
 100 1050 l 1
 100 1200 l 1
 250 1200 l 1
 500 950 l 1
 750 1200 l 1
 900 1200 l 1
 900 1050 l 1
 650 800 l 1
 900 550 l 1
 900 400 l 1
 750 400 l 1
 500 650 l 1
 250 400 l 1
 100 400 l 1
EndSplineSet
Validated: 1
EndChar

StartChar: Oslash
Encoding: 180 216 180
Width: 1400
Flags: HMW
LayerCount: 2
Fore
SplineSet
100 300 m 1
 100 1300 l 1
 400 1600 l 1
 1000 1600 l 1
 1300 1300 l 1
 1300 300 l 1
 1000 0 l 1
 400 0 l 1
 100 300 l 1
300 550 m 1
 1025 1275 l 1
 900 1400 l 1
 500 1400 l 1
 300 1200 l 1
 300 550 l 1
375 325 m 1
 500 200 l 1
 900 200 l 1
 1100 400 l 1
 1100 1050 l 1
 375 325 l 1
EndSplineSet
Validated: 1
EndChar

StartChar: Ugrave
Encoding: 181 217 181
Width: 1400
Flags: HMW
LayerCount: 2
Fore
SplineSet
100 300 m 1
 100 1600 l 1
 300 1600 l 1
 300 400 l 1
 500 200 l 1
 900 200 l 1
 1100 400 l 1
 1100 1600 l 1
 1300 1600 l 1
 1300 300 l 1
 1000 0 l 1
 400 0 l 1
 100 300 l 1
400 1900 m 1
 400 2000 l 1
 600 2000 l 1
 800 1800 l 1
 800 1700 l 1
 600 1700 l 1
 400 1900 l 1
EndSplineSet
Validated: 1
EndChar

StartChar: Uacute
Encoding: 182 218 182
Width: 1400
Flags: HMW
LayerCount: 2
Fore
SplineSet
100 300 m 1
 100 1600 l 1
 300 1600 l 1
 300 400 l 1
 500 200 l 1
 900 200 l 1
 1100 400 l 1
 1100 1600 l 1
 1300 1600 l 1
 1300 300 l 1
 1000 0 l 1
 400 0 l 1
 100 300 l 1
600 1700 m 1
 600 1800 l 1
 800 2000 l 1
 1000 2000 l 1
 1000 1900 l 1
 800 1700 l 1
 600 1700 l 1
EndSplineSet
Validated: 1
EndChar

StartChar: Ucircumflex
Encoding: 183 219 183
Width: 1400
Flags: HMW
LayerCount: 2
Fore
SplineSet
100 300 m 1
 100 1600 l 1
 300 1600 l 1
 300 400 l 1
 500 200 l 1
 900 200 l 1
 1100 400 l 1
 1100 1600 l 1
 1300 1600 l 1
 1300 300 l 1
 1000 0 l 1
 400 0 l 1
 100 300 l 1
400 1700 m 1
 400 1800 l 1
 600 2000 l 1
 800 2000 l 1
 1000 1800 l 1
 1000 1700 l 1
 800 1700 l 1
 700 1800 l 1
 600 1700 l 1
 400 1700 l 1
EndSplineSet
Validated: 1
EndChar

StartChar: Udieresis
Encoding: 184 220 184
Width: 1400
Flags: HMW
LayerCount: 2
Fore
SplineSet
100 300 m 1
 100 1600 l 1
 300 1600 l 1
 300 400 l 1
 500 200 l 1
 900 200 l 1
 1100 400 l 1
 1100 1600 l 1
 1300 1600 l 1
 1300 300 l 1
 1000 0 l 1
 400 0 l 1
 100 300 l 1
400 1800 m 1
 400 2000 l 1
 600 2000 l 1
 600 1800 l 1
 400 1800 l 1
800 1800 m 1
 800 2000 l 1
 1000 2000 l 1
 1000 1800 l 1
 800 1800 l 1
EndSplineSet
Validated: 1
EndChar

StartChar: Yacute
Encoding: 185 221 185
Width: 1400
Flags: HMW
LayerCount: 2
Fore
SplineSet
100 1100 m 1
 100 1600 l 1
 300 1600 l 1
 300 1200 l 1
 700 800 l 1
 1100 1200 l 1
 1100 1600 l 1
 1300 1600 l 1
 1300 1100 l 1
 800 600 l 1
 800 0 l 1
 600 0 l 1
 600 600 l 1
 100 1100 l 1
600 1700 m 1
 600 1800 l 1
 800 2000 l 1
 1000 2000 l 1
 1000 1900 l 1
 800 1700 l 1
 600 1700 l 1
EndSplineSet
Validated: 1
EndChar

StartChar: Thorn
Encoding: 186 222 186
Width: 1400
Flags: HMW
LayerCount: 2
Fore
SplineSet
100 0 m 1
 100 1600 l 1
 300 1600 l 1
 300 1250 l 1
 1000 1250 l 1
 1300 950 l 1
 1300 650 l 1
 1000 350 l 1
 300 350 l 1
 300 0 l 1
 100 0 l 1
300 550 m 1
 900 550 l 1
 1100 750 l 1
 1100 850 l 1
 900 1050 l 1
 300 1050 l 1
 300 550 l 1
EndSplineSet
Validated: 1
EndChar

StartChar: germandbls
Encoding: 187 223 187
Width: 1200
Flags: HMW
LayerCount: 2
Fore
SplineSet
100 0 m 1
 100 1300 l 1
 400 1600 l 1
 800 1600 l 1
 1100 1300 l 1
 1100 1000 l 1
 900 800 l 1
 1100 600 l 1
 1100 300 l 1
 800 0 l 1
 700 0 l 1
 700 200 l 1
 900 400 l 1
 900 500 l 1
 700 700 l 1
 700 900 l 1
 900 1100 l 1
 900 1200 l 1
 700 1400 l 1
 500 1400 l 1
 300 1200 l 1
 300 0 l 1
 100 0 l 1
EndSplineSet
Validated: 1
EndChar

StartChar: agrave
Encoding: 188 224 188
Width: 1200
Flags: HMW
LayerCount: 2
Fore
SplineSet
100 200 m 1
 100 500 l 1
 300 700 l 1
 900 700 l 1
 900 800 l 1
 700 1000 l 1
 500 1000 l 1
 400 900 l 1
 200 900 l 1
 200 1000 l 1
 400 1200 l 1
 800 1200 l 1
 1100 900 l 1
 1100 0 l 1
 300 0 l 1
 100 200 l 1
300 300 m 1
 400 200 l 1
 900 200 l 1
 900 500 l 1
 400 500 l 1
 300 400 l 1
 300 300 l 1
300 1500 m 1
 300 1600 l 1
 500 1600 l 1
 700 1400 l 1
 700 1300 l 1
 500 1300 l 1
 300 1500 l 1
EndSplineSet
Validated: 1
EndChar

StartChar: aacute
Encoding: 189 225 189
Width: 1200
Flags: HMW
LayerCount: 2
Fore
SplineSet
100 200 m 1
 100 500 l 1
 300 700 l 1
 900 700 l 1
 900 800 l 1
 700 1000 l 1
 500 1000 l 1
 400 900 l 1
 200 900 l 1
 200 1000 l 1
 400 1200 l 1
 800 1200 l 1
 1100 900 l 1
 1100 0 l 1
 300 0 l 1
 100 200 l 1
300 300 m 1
 400 200 l 1
 900 200 l 1
 900 500 l 1
 400 500 l 1
 300 400 l 1
 300 300 l 1
500 1300 m 1
 500 1400 l 1
 700 1600 l 1
 900 1600 l 1
 900 1500 l 1
 700 1300 l 1
 500 1300 l 1
EndSplineSet
Validated: 1
EndChar

StartChar: acircumflex
Encoding: 190 226 190
Width: 1200
Flags: HMW
LayerCount: 2
Fore
SplineSet
100 200 m 1
 100 500 l 1
 300 700 l 1
 900 700 l 1
 900 800 l 1
 700 1000 l 1
 500 1000 l 1
 400 900 l 1
 200 900 l 1
 200 1000 l 1
 400 1200 l 1
 800 1200 l 1
 1100 900 l 1
 1100 0 l 1
 300 0 l 1
 100 200 l 1
300 300 m 1
 400 200 l 1
 900 200 l 1
 900 500 l 1
 400 500 l 1
 300 400 l 1
 300 300 l 1
300 1300 m 1
 300 1400 l 1
 500 1600 l 1
 700 1600 l 1
 900 1400 l 1
 900 1300 l 1
 700 1300 l 1
 600 1400 l 1
 500 1300 l 1
 300 1300 l 1
EndSplineSet
Validated: 1
EndChar

StartChar: atilde
Encoding: 191 227 191
Width: 1200
Flags: HMW
LayerCount: 2
Fore
SplineSet
100 200 m 1
 100 500 l 1
 300 700 l 1
 900 700 l 1
 900 800 l 1
 700 1000 l 1
 500 1000 l 1
 400 900 l 1
 200 900 l 1
 200 1000 l 1
 400 1200 l 1
 800 1200 l 1
 1100 900 l 1
 1100 0 l 1
 300 0 l 1
 100 200 l 1
200 1300 m 1
 200 1500 l 1
 300 1600 l 1
 400 1600 l 1
 800 1500 l 1
 800 1600 l 1
 1000 1600 l 1
 1000 1400 l 1
 900 1300 l 1
 800 1300 l 1
 400 1400 l 1
 400 1300 l 1
 200 1300 l 1
300 300 m 1
 400 200 l 1
 900 200 l 1
 900 500 l 1
 400 500 l 1
 300 400 l 1
 300 300 l 1
EndSplineSet
Validated: 1
EndChar

StartChar: adieresis
Encoding: 192 228 192
Width: 1200
Flags: HMW
LayerCount: 2
Fore
SplineSet
100 200 m 1
 100 500 l 1
 300 700 l 1
 900 700 l 1
 900 800 l 1
 700 1000 l 1
 500 1000 l 1
 400 900 l 1
 200 900 l 1
 200 1000 l 1
 400 1200 l 1
 800 1200 l 1
 1100 900 l 1
 1100 0 l 1
 300 0 l 1
 100 200 l 1
300 300 m 1
 400 200 l 1
 900 200 l 1
 900 500 l 1
 400 500 l 1
 300 400 l 1
 300 300 l 1
300 1400 m 1
 300 1600 l 1
 500 1600 l 1
 500 1400 l 1
 300 1400 l 1
700 1400 m 1
 700 1600 l 1
 900 1600 l 1
 900 1400 l 1
 700 1400 l 1
EndSplineSet
Validated: 1
EndChar

StartChar: aring
Encoding: 193 229 193
Width: 1200
Flags: HMW
LayerCount: 2
Fore
SplineSet
100 200 m 1
 100 500 l 1
 300 700 l 1
 900 700 l 1
 900 800 l 1
 700 1000 l 1
 500 1000 l 1
 400 900 l 1
 200 900 l 1
 200 1000 l 1
 400 1200 l 1
 300 1300 l 1
 300 1500 l 1
 400 1600 l 1
 800 1600 l 1
 900 1500 l 1
 900 1300 l 1
 800 1200 l 1
 1100 900 l 1
 1100 0 l 1
 300 0 l 1
 100 200 l 1
300 300 m 1
 400 200 l 1
 900 200 l 1
 900 500 l 1
 400 500 l 1
 300 400 l 1
 300 300 l 1
500 1300 m 1
 700 1300 l 1
 700 1500 l 1
 500 1500 l 1
 500 1300 l 1
EndSplineSet
Validated: 1
EndChar

StartChar: ae
Encoding: 194 230 194
Width: 2000
Flags: HMW
LayerCount: 2
Fore
SplineSet
100 200 m 1
 100 500 l 1
 300 700 l 1
 900 700 l 1
 900 800 l 1
 700 1000 l 1
 500 1000 l 1
 400 900 l 1
 200 900 l 1
 200 1000 l 1
 400 1200 l 1
 800 1200 l 1
 1000 1000 l 1
 1200 1200 l 1
 1600 1200 l 1
 1900 900 l 1
 1900 500 l 1
 1100 500 l 1
 1100 200 l 1
 1900 200 l 1
 1900 0 l 1
 300 0 l 1
 100 200 l 1
300 300 m 1
 400 200 l 1
 900 200 l 1
 900 500 l 1
 400 500 l 1
 300 400 l 1
 300 300 l 1
1100 700 m 1
 1700 700 l 1
 1700 800 l 1
 1500 1000 l 1
 1300 1000 l 1
 1100 800 l 1
 1100 700 l 1
EndSplineSet
Validated: 1
EndChar

StartChar: ccedilla
Encoding: 195 231 195
Width: 1200
Flags: HMW
LayerCount: 2
Fore
SplineSet
100 300 m 1
 100 900 l 1
 400 1200 l 1
 800 1200 l 1
 1100 900 l 1
 1100 800 l 1
 900 800 l 1
 700 1000 l 1
 500 1000 l 1
 300 800 l 1
 300 400 l 1
 500 200 l 1
 700 200 l 1
 900 400 l 1
 1100 400 l 1
 1100 300 l 1
 800 0 l 1
 900 -100 l 1
 900 -300 l 1
 800 -400 l 1
 500 -400 l 1
 500 -300 l 1
 700 -300 l 1
 700 -100 l 1
 500 -100 l 1
 500 0 l 1
 400 0 l 1
 100 300 l 1
EndSplineSet
Validated: 1
EndChar

StartChar: egrave
Encoding: 196 232 196
Width: 1200
Flags: HMW
LayerCount: 2
Fore
SplineSet
100 300 m 1
 100 900 l 1
 400 1200 l 1
 800 1200 l 1
 1100 900 l 1
 1100 500 l 1
 300 500 l 1
 300 400 l 1
 500 200 l 1
 1100 200 l 1
 1100 0 l 1
 400 0 l 1
 100 300 l 1
300 700 m 1
 900 700 l 1
 900 800 l 1
 700 1000 l 1
 500 1000 l 1
 300 800 l 1
 300 700 l 1
300 1500 m 1
 300 1600 l 1
 500 1600 l 1
 700 1400 l 1
 700 1300 l 1
 500 1300 l 1
 300 1500 l 1
EndSplineSet
Validated: 1
EndChar

StartChar: eacute
Encoding: 197 233 197
Width: 1200
Flags: HMW
LayerCount: 2
Fore
SplineSet
100 300 m 1
 100 900 l 1
 400 1200 l 1
 800 1200 l 1
 1100 900 l 1
 1100 500 l 1
 300 500 l 1
 300 400 l 1
 500 200 l 1
 1100 200 l 1
 1100 0 l 1
 400 0 l 1
 100 300 l 1
300 700 m 1
 900 700 l 1
 900 800 l 1
 700 1000 l 1
 500 1000 l 1
 300 800 l 1
 300 700 l 1
500 1300 m 1
 500 1400 l 1
 700 1600 l 1
 900 1600 l 1
 900 1500 l 1
 700 1300 l 1
 500 1300 l 1
EndSplineSet
Validated: 1
EndChar

StartChar: ecircumflex
Encoding: 198 234 198
Width: 1200
Flags: HMW
LayerCount: 2
Fore
SplineSet
100 300 m 1
 100 900 l 1
 400 1200 l 1
 800 1200 l 1
 1100 900 l 1
 1100 500 l 1
 300 500 l 1
 300 400 l 1
 500 200 l 1
 1100 200 l 1
 1100 0 l 1
 400 0 l 1
 100 300 l 1
300 700 m 1
 900 700 l 1
 900 800 l 1
 700 1000 l 1
 500 1000 l 1
 300 800 l 1
 300 700 l 1
300 1300 m 1
 300 1400 l 1
 500 1600 l 1
 700 1600 l 1
 900 1400 l 1
 900 1300 l 1
 700 1300 l 1
 600 1400 l 1
 500 1300 l 1
 300 1300 l 1
EndSplineSet
Validated: 1
EndChar

StartChar: edieresis
Encoding: 199 235 199
Width: 1200
Flags: HMW
LayerCount: 2
Fore
SplineSet
100 300 m 1
 100 900 l 1
 400 1200 l 1
 800 1200 l 1
 1100 900 l 1
 1100 500 l 1
 300 500 l 1
 300 400 l 1
 500 200 l 1
 1100 200 l 1
 1100 0 l 1
 400 0 l 1
 100 300 l 1
300 700 m 1
 900 700 l 1
 900 800 l 1
 700 1000 l 1
 500 1000 l 1
 300 800 l 1
 300 700 l 1
300 1400 m 1
 300 1600 l 1
 500 1600 l 1
 500 1400 l 1
 300 1400 l 1
700 1400 m 1
 700 1600 l 1
 900 1600 l 1
 900 1400 l 1
 700 1400 l 1
EndSplineSet
Validated: 1
EndChar

StartChar: igrave
Encoding: 200 236 200
Width: 600
Flags: HMW
LayerCount: 2
Fore
SplineSet
100 1500 m 1
 100 1600 l 1
 300 1600 l 1
 500 1400 l 1
 500 1300 l 1
 300 1300 l 1
 100 1500 l 1
300 0 m 1
 300 1200 l 1
 500 1200 l 1
 500 0 l 1
 300 0 l 1
EndSplineSet
Validated: 1
EndChar

StartChar: iacute
Encoding: 201 237 201
Width: 600
Flags: HMW
LayerCount: 2
Fore
SplineSet
100 0 m 1
 100 1200 l 1
 300 1200 l 1
 300 0 l 1
 100 0 l 1
100 1300 m 1
 100 1400 l 1
 300 1600 l 1
 500 1600 l 1
 500 1500 l 1
 300 1300 l 1
 100 1300 l 1
EndSplineSet
Validated: 1
Substitution2: "'locl' Localized Forms in Latin lookup 4-1" iacute.locl
EndChar

StartChar: icircumflex
Encoding: 202 238 202
Width: 800
Flags: HMW
LayerCount: 2
Fore
SplineSet
100 1300 m 1
 100 1400 l 1
 300 1600 l 1
 500 1600 l 1
 700 1400 l 1
 700 1300 l 1
 500 1300 l 1
 400 1400 l 1
 300 1300 l 1
 100 1300 l 1
300 0 m 1
 300 1200 l 1
 500 1200 l 1
 500 0 l 1
 300 0 l 1
EndSplineSet
Validated: 1
EndChar

StartChar: idieresis
Encoding: 203 239 203
Width: 800
Flags: HMW
LayerCount: 2
Fore
SplineSet
100 1400 m 1
 100 1600 l 1
 300 1600 l 1
 300 1400 l 1
 100 1400 l 1
300 0 m 1
 300 1200 l 1
 500 1200 l 1
 500 0 l 1
 300 0 l 1
500 1400 m 1
 500 1600 l 1
 700 1600 l 1
 700 1400 l 1
 500 1400 l 1
EndSplineSet
Validated: 1
EndChar

StartChar: eth
Encoding: 204 240 204
Width: 1200
Flags: HMW
LayerCount: 2
Fore
SplineSet
100 300 m 1
 100 700 l 1
 400 1000 l 1
 900 1000 l 1
 711 1189 l 1
 400 1100 l 1
 400 1300 l 1
 556 1344 l 1
 400 1500 l 1
 400 1600 l 1
 600 1600 l 1
 789 1411 l 1
 1100 1500 l 1
 1100 1300 l 1
 944 1256 l 1
 1100 1100 l 1
 1100 300 l 1
 800 0 l 1
 400 0 l 1
 100 300 l 1
300 400 m 1
 500 200 l 1
 700 200 l 1
 900 400 l 1
 900 800 l 1
 500 800 l 1
 300 600 l 1
 300 400 l 1
EndSplineSet
Validated: 1
EndChar

StartChar: ntilde
Encoding: 205 241 205
Width: 1200
Flags: HMW
LayerCount: 2
Fore
SplineSet
100 0 m 1
 100 1200 l 1
 800 1200 l 1
 1100 900 l 1
 1100 0 l 1
 900 0 l 1
 900 800 l 1
 700 1000 l 1
 300 1000 l 1
 300 0 l 1
 100 0 l 1
200 1300 m 1
 200 1500 l 1
 300 1600 l 1
 400 1600 l 1
 800 1500 l 1
 800 1600 l 1
 1000 1600 l 1
 1000 1400 l 1
 900 1300 l 1
 800 1300 l 1
 400 1400 l 1
 400 1300 l 1
 200 1300 l 1
EndSplineSet
Validated: 1
EndChar

StartChar: ograve
Encoding: 206 242 206
Width: 1200
Flags: HMW
LayerCount: 2
Fore
SplineSet
100 300 m 1
 100 900 l 1
 400 1200 l 1
 800 1200 l 1
 1100 900 l 1
 1100 300 l 1
 800 0 l 1
 400 0 l 1
 100 300 l 1
300 400 m 1
 500 200 l 1
 700 200 l 1
 900 400 l 1
 900 800 l 1
 700 1000 l 1
 500 1000 l 1
 300 800 l 1
 300 400 l 1
300 1500 m 1
 300 1600 l 1
 500 1600 l 1
 700 1400 l 1
 700 1300 l 1
 500 1300 l 1
 300 1500 l 1
EndSplineSet
Validated: 1
EndChar

StartChar: oacute
Encoding: 207 243 207
Width: 1200
Flags: HMW
LayerCount: 2
Fore
SplineSet
100 300 m 1
 100 900 l 1
 400 1200 l 1
 800 1200 l 1
 1100 900 l 1
 1100 300 l 1
 800 0 l 1
 400 0 l 1
 100 300 l 1
300 400 m 1
 500 200 l 1
 700 200 l 1
 900 400 l 1
 900 800 l 1
 700 1000 l 1
 500 1000 l 1
 300 800 l 1
 300 400 l 1
500 1300 m 1
 500 1400 l 1
 700 1600 l 1
 900 1600 l 1
 900 1500 l 1
 700 1300 l 1
 500 1300 l 1
EndSplineSet
Validated: 1
EndChar

StartChar: ocircumflex
Encoding: 208 244 208
Width: 1200
Flags: HMW
LayerCount: 2
Fore
SplineSet
100 300 m 1
 100 900 l 1
 400 1200 l 1
 800 1200 l 1
 1100 900 l 1
 1100 300 l 1
 800 0 l 1
 400 0 l 1
 100 300 l 1
300 400 m 1
 500 200 l 1
 700 200 l 1
 900 400 l 1
 900 800 l 1
 700 1000 l 1
 500 1000 l 1
 300 800 l 1
 300 400 l 1
300 1300 m 1
 300 1400 l 1
 500 1600 l 1
 700 1600 l 1
 900 1400 l 1
 900 1300 l 1
 700 1300 l 1
 600 1400 l 1
 500 1300 l 1
 300 1300 l 1
EndSplineSet
Validated: 1
EndChar

StartChar: otilde
Encoding: 209 245 209
Width: 1200
Flags: HMW
LayerCount: 2
Fore
SplineSet
100 300 m 1
 100 900 l 1
 400 1200 l 1
 800 1200 l 1
 1100 900 l 1
 1100 300 l 1
 800 0 l 1
 400 0 l 1
 100 300 l 1
200 1300 m 1
 200 1500 l 1
 300 1600 l 1
 400 1600 l 1
 800 1500 l 1
 800 1600 l 1
 1000 1600 l 1
 1000 1400 l 1
 900 1300 l 1
 800 1300 l 1
 400 1400 l 1
 400 1300 l 1
 200 1300 l 1
300 400 m 1
 500 200 l 1
 700 200 l 1
 900 400 l 1
 900 800 l 1
 700 1000 l 1
 500 1000 l 1
 300 800 l 1
 300 400 l 1
EndSplineSet
Validated: 1
EndChar

StartChar: odieresis
Encoding: 210 246 210
Width: 1200
Flags: HMW
LayerCount: 2
Fore
SplineSet
100 300 m 1
 100 900 l 1
 400 1200 l 1
 800 1200 l 1
 1100 900 l 1
 1100 300 l 1
 800 0 l 1
 400 0 l 1
 100 300 l 1
300 400 m 1
 500 200 l 1
 700 200 l 1
 900 400 l 1
 900 800 l 1
 700 1000 l 1
 500 1000 l 1
 300 800 l 1
 300 400 l 1
300 1400 m 1
 300 1600 l 1
 500 1600 l 1
 500 1400 l 1
 300 1400 l 1
700 1400 m 1
 700 1600 l 1
 900 1600 l 1
 900 1400 l 1
 700 1400 l 1
EndSplineSet
Validated: 1
EndChar

StartChar: divide
Encoding: 211 247 211
Width: 1000
Flags: HMW
LayerCount: 2
Fore
SplineSet
100 700 m 1
 100 900 l 1
 900 900 l 1
 900 700 l 1
 100 700 l 1
400 400 m 1
 400 600 l 1
 600 600 l 1
 600 400 l 1
 400 400 l 1
400 1000 m 1
 400 1200 l 1
 600 1200 l 1
 600 1000 l 1
 400 1000 l 1
EndSplineSet
Validated: 1
EndChar

StartChar: oslash
Encoding: 212 248 212
Width: 1200
Flags: HMW
LayerCount: 2
Fore
SplineSet
100 300 m 1
 100 900 l 1
 400 1200 l 1
 800 1200 l 1
 1100 900 l 1
 1100 300 l 1
 800 0 l 1
 400 0 l 1
 100 300 l 1
300 450 m 1
 775 925 l 1
 700 1000 l 1
 500 1000 l 1
 300 800 l 1
 300 450 l 1
425 275 m 1
 500 200 l 1
 700 200 l 1
 900 400 l 1
 900 750 l 1
 425 275 l 1
EndSplineSet
Validated: 1
EndChar

StartChar: ugrave
Encoding: 213 249 213
Width: 1200
Flags: HMW
LayerCount: 2
Fore
SplineSet
100 300 m 1
 100 1200 l 1
 300 1200 l 1
 300 400 l 1
 500 200 l 1
 900 200 l 1
 900 1200 l 1
 1100 1200 l 1
 1100 0 l 1
 400 0 l 1
 100 300 l 1
300 1500 m 1
 300 1600 l 1
 500 1600 l 1
 700 1400 l 1
 700 1300 l 1
 500 1300 l 1
 300 1500 l 1
EndSplineSet
Validated: 1
EndChar

StartChar: uacute
Encoding: 214 250 214
Width: 1200
Flags: HMW
LayerCount: 2
Fore
SplineSet
100 300 m 1
 100 1200 l 1
 300 1200 l 1
 300 400 l 1
 500 200 l 1
 900 200 l 1
 900 1200 l 1
 1100 1200 l 1
 1100 0 l 1
 400 0 l 1
 100 300 l 1
500 1300 m 1
 500 1400 l 1
 700 1600 l 1
 900 1600 l 1
 900 1500 l 1
 700 1300 l 1
 500 1300 l 1
EndSplineSet
Validated: 1
EndChar

StartChar: ucircumflex
Encoding: 215 251 215
Width: 1200
Flags: HMW
LayerCount: 2
Fore
SplineSet
100 300 m 1
 100 1200 l 1
 300 1200 l 1
 300 400 l 1
 500 200 l 1
 900 200 l 1
 900 1200 l 1
 1100 1200 l 1
 1100 0 l 1
 400 0 l 1
 100 300 l 1
300 1300 m 1
 300 1400 l 1
 500 1600 l 1
 700 1600 l 1
 900 1400 l 1
 900 1300 l 1
 700 1300 l 1
 600 1400 l 1
 500 1300 l 1
 300 1300 l 1
EndSplineSet
Validated: 1
EndChar

StartChar: udieresis
Encoding: 216 252 216
Width: 1200
Flags: HMW
LayerCount: 2
Fore
SplineSet
100 300 m 1
 100 1200 l 1
 300 1200 l 1
 300 400 l 1
 500 200 l 1
 900 200 l 1
 900 1200 l 1
 1100 1200 l 1
 1100 0 l 1
 400 0 l 1
 100 300 l 1
300 1400 m 1
 300 1600 l 1
 500 1600 l 1
 500 1400 l 1
 300 1400 l 1
700 1400 m 1
 700 1600 l 1
 900 1600 l 1
 900 1400 l 1
 700 1400 l 1
EndSplineSet
Validated: 1
EndChar

StartChar: yacute
Encoding: 217 253 217
Width: 1200
Flags: HMW
LayerCount: 2
Fore
SplineSet
100 -300 m 1
 450 50 l 1
 100 400 l 1
 100 1200 l 1
 300 1200 l 1
 300 500 l 1
 600 200 l 1
 900 500 l 1
 900 1200 l 1
 1100 1200 l 1
 1100 400 l 1
 300 -400 l 1
 100 -400 l 1
 100 -300 l 1
500 1300 m 1
 500 1400 l 1
 700 1600 l 1
 900 1600 l 1
 900 1500 l 1
 700 1300 l 1
 500 1300 l 1
EndSplineSet
Validated: 1
EndChar

StartChar: thorn
Encoding: 218 254 218
Width: 1200
Flags: HMW
LayerCount: 2
Fore
SplineSet
100 -400 m 1
 100 1600 l 1
 300 1600 l 1
 300 1200 l 1
 800 1200 l 1
 1100 900 l 1
 1100 300 l 1
 800 0 l 1
 300 0 l 1
 300 -400 l 1
 100 -400 l 1
300 200 m 1
 700 200 l 1
 900 400 l 1
 900 800 l 1
 700 1000 l 1
 300 1000 l 1
 300 200 l 1
EndSplineSet
Validated: 1
EndChar

StartChar: ydieresis
Encoding: 219 255 219
Width: 1200
Flags: HMW
LayerCount: 2
Fore
SplineSet
100 -300 m 1
 450 50 l 1
 100 400 l 1
 100 1200 l 1
 300 1200 l 1
 300 500 l 1
 600 200 l 1
 900 500 l 1
 900 1200 l 1
 1100 1200 l 1
 1100 400 l 1
 300 -400 l 1
 100 -400 l 1
 100 -300 l 1
300 1400 m 1
 300 1600 l 1
 500 1600 l 1
 500 1400 l 1
 300 1400 l 1
700 1400 m 1
 700 1600 l 1
 900 1600 l 1
 900 1400 l 1
 700 1400 l 1
EndSplineSet
Validated: 1
EndChar

StartChar: notequal
Encoding: 220 8800 220
Width: 1000
Flags: HMW
LayerCount: 2
Fore
SplineSet
100 400 m 1
 100 600 l 1
 367 600 l 1
 433 1000 l 1
 100 1000 l 1
 100 1200 l 1
 467 1200 l 1
 500 1400 l 1
 700 1400 l 1
 667 1200 l 1
 900 1200 l 1
 900 1000 l 1
 633 1000 l 1
 567 600 l 1
 900 600 l 1
 900 400 l 1
 533 400 l 1
 500 200 l 1
 300 200 l 1
 333 400 l 1
 100 400 l 1
EndSplineSet
Validated: 1
EndChar

StartChar: infinity
Encoding: 221 8734 221
Width: 2000
Flags: HMW
LayerCount: 2
Fore
SplineSet
100 600 m 1
 100 1000 l 1
 300 1200 l 1
 750 1200 l 1
 1000 950 l 1
 1250 1200 l 1
 1700 1200 l 1
 1900 1000 l 1
 1900 600 l 1
 1700 400 l 1
 1250 400 l 1
 1000 650 l 1
 750 400 l 1
 300 400 l 1
 100 600 l 1
300 700 m 1
 400 600 l 1
 650 600 l 1
 850 800 l 1
 650 1000 l 1
 400 1000 l 1
 300 900 l 1
 300 700 l 1
1150 800 m 1
 1350 600 l 1
 1600 600 l 1
 1700 700 l 1
 1700 900 l 1
 1600 1000 l 1
 1350 1000 l 1
 1150 800 l 1
EndSplineSet
Validated: 1
EndChar

StartChar: lessequal
Encoding: 222 8804 222
Width: 1000
Flags: HMW
LayerCount: 2
Fore
SplineSet
100 -200 m 1
 900 -200 l 1
 900 -400 l 1
 100 -400 l 1
 100 -200 l 1
100 700 m 1
 100 900 l 1
 800 1600 l 1
 900 1600 l 1
 900 1400 l 1
 300 800 l 1
 900 200 l 1
 900 0 l 1
 800 0 l 1
 100 700 l 1
EndSplineSet
Validated: 1
EndChar

StartChar: greaterequal
Encoding: 223 8805 223
Width: 1000
Flags: HMW
LayerCount: 2
Fore
SplineSet
100 0 m 1
 100 200 l 1
 700 800 l 1
 100 1400 l 1
 100 1600 l 1
 200 1600 l 1
 900 900 l 1
 900 700 l 1
 200 0 l 1
 100 0 l 1
100 -200 m 1
 900 -200 l 1
 900 -400 l 1
 100 -400 l 1
 100 -200 l 1
EndSplineSet
Validated: 1
EndChar

StartChar: partialdiff
Encoding: 224 8706 224
Width: 1200
Flags: HMW
LayerCount: 2
Fore
SplineSet
100 300 m 1
 100 700 l 1
 400 1000 l 1
 900 1000 l 1
 400 1500 l 1
 400 1600 l 1
 600 1600 l 1
 1100 1100 l 1
 1100 300 l 1
 800 0 l 1
 400 0 l 1
 100 300 l 1
300 400 m 1
 500 200 l 1
 700 200 l 1
 900 400 l 1
 900 800 l 1
 500 800 l 1
 300 600 l 1
 300 400 l 1
EndSplineSet
Validated: 1
EndChar

StartChar: summation
Encoding: 225 8721 225
Width: 1400
Flags: HMW
LayerCount: 2
Fore
SplineSet
100 0 m 1
 100 200 l 1
 700 800 l 1
 100 1400 l 1
 100 1600 l 1
 1300 1600 l 1
 1300 1200 l 1
 1100 1200 l 1
 1100 1400 l 1
 400 1400 l 1
 900 900 l 1
 900 700 l 1
 400 200 l 1
 1100 200 l 1
 1100 400 l 1
 1300 400 l 1
 1300 0 l 1
 100 0 l 1
EndSplineSet
Validated: 1
EndChar

StartChar: product
Encoding: 226 8719 226
Width: 1600
Flags: HMW
LayerCount: 2
Fore
SplineSet
100 0 m 1
 100 200 l 1
 200 200 l 1
 200 1400 l 1
 100 1400 l 1
 100 1600 l 1
 1500 1600 l 1
 1500 1400 l 1
 1400 1400 l 1
 1400 200 l 1
 1500 200 l 1
 1500 0 l 1
 1100 0 l 1
 1100 200 l 1
 1200 200 l 1
 1200 1400 l 1
 400 1400 l 1
 400 200 l 1
 500 200 l 1
 500 0 l 1
 100 0 l 1
EndSplineSet
Validated: 1
EndChar

StartChar: pi
Encoding: 227 960 227
Width: 1400
Flags: HMW
LayerCount: 2
Fore
SplineSet
100 1000 m 1
 100 1200 l 1
 1300 1200 l 1
 1300 1000 l 1
 1100 1000 l 1
 1100 0 l 1
 900 0 l 1
 900 1000 l 1
 500 1000 l 1
 500 0 l 1
 300 0 l 1
 300 1000 l 1
 100 1000 l 1
EndSplineSet
Validated: 1
EndChar

StartChar: integral
Encoding: 228 8747 228
Width: 1000
Flags: HMW
LayerCount: 2
Fore
SplineSet
100 -200 m 1
 300 -200 l 1
 400 -100 l 1
 400 1400 l 1
 600 1600 l 1
 900 1600 l 1
 900 1400 l 1
 700 1400 l 1
 600 1300 l 1
 600 -200 l 1
 400 -400 l 1
 100 -400 l 1
 100 -200 l 1
EndSplineSet
Validated: 1
EndChar

StartChar: Omega
Encoding: 229 8486 229
Width: 1400
Flags: HMW
LayerCount: 2
Fore
SplineSet
100 0 m 1
 100 200 l 1
 300 200 l 1
 300 300 l 1
 100 500 l 1
 100 1300 l 1
 400 1600 l 1
 1000 1600 l 1
 1300 1300 l 1
 1300 500 l 1
 1100 300 l 1
 1100 200 l 1
 1300 200 l 1
 1300 0 l 1
 900 0 l 1
 900 400 l 1
 1100 600 l 1
 1100 1200 l 1
 900 1400 l 1
 500 1400 l 1
 300 1200 l 1
 300 600 l 1
 500 400 l 1
 500 0 l 1
 100 0 l 1
EndSplineSet
Validated: 1
EndChar

StartChar: radical
Encoding: 230 8730 230
Width: 1400
Flags: HMW
LayerCount: 2
Fore
SplineSet
100 600 m 1
 100 800 l 1
 400 800 l 1
 600 265 l 1
 1100 1600 l 1
 1300 1600 l 1
 700 0 l 1
 500 0 l 1
 275 600 l 1
 100 600 l 1
EndSplineSet
Validated: 1
EndChar

StartChar: approxequal
Encoding: 231 8776 231
Width: 1600
Flags: HMW
LayerCount: 2
Fore
SplineSet
100 400 m 1
 100 500 l 1
 300 700 l 1
 750 700 l 1
 950 500 l 1
 1200 500 l 1
 1300 600 l 1
 1500 600 l 1
 1500 500 l 1
 1300 300 l 1
 850 300 l 1
 650 500 l 1
 400 500 l 1
 300 400 l 1
 100 400 l 1
100 1000 m 1
 100 1100 l 1
 300 1300 l 1
 750 1300 l 1
 950 1100 l 1
 1200 1100 l 1
 1300 1200 l 1
 1500 1200 l 1
 1500 1100 l 1
 1300 900 l 1
 850 900 l 1
 650 1100 l 1
 400 1100 l 1
 300 1000 l 1
 100 1000 l 1
EndSplineSet
Validated: 1
EndChar

StartChar: Delta
Encoding: 232 8710 232
Width: 1400
Flags: HMW
LayerCount: 2
Fore
SplineSet
100 0 m 1
 100 1100 l 1
 600 1600 l 1
 800 1600 l 1
 1300 1100 l 1
 1300 0 l 1
 100 0 l 1
300 200 m 1
 1100 200 l 1
 1100 1000 l 1
 700 1400 l 1
 300 1000 l 1
 300 200 l 1
EndSplineSet
Validated: 1
EndChar

StartChar: lozenge
Encoding: 233 9674 233
Width: 1200
Flags: HMW
LayerCount: 2
Fore
SplineSet
100 800 m 1
 500 1600 l 1
 700 1600 l 1
 1100 800 l 1
 700 0 l 1
 500 0 l 1
 100 800 l 1
300 800 m 1
 600 190 l 1
 900 800 l 1
 600 1410 l 1
 300 800 l 1
EndSplineSet
Validated: 1
EndChar

StartChar: fraction
Encoding: 234 8260 234
Width: 200
Flags: HMW
LayerCount: 2
Fore
SplineSet
-400 0 m 1
 400 1600 l 1
 600 1600 l 1
 -200 0 l 1
 -400 0 l 1
EndSplineSet
Validated: 1
EndChar

StartChar: uniFB01
Encoding: 235 64257 235
Width: 1400
Flags: HMW
LayerCount: 2
Fore
SplineSet
100 1000 m 1
 100 1200 l 1
 400 1200 l 1
 400 1400 l 1
 600 1600 l 1
 1100 1600 l 1
 1100 1400 l 1
 700 1400 l 1
 600 1300 l 1
 600 1200 l 1
 1300 1200 l 1
 1300 0 l 1
 1100 0 l 1
 1100 1000 l 1
 600 1000 l 1
 600 0 l 1
 400 0 l 1
 400 1000 l 1
 100 1000 l 1
EndSplineSet
Validated: 1
EndChar

StartChar: uniFB02
Encoding: 236 64258 236
Width: 1400
Flags: HMW
LayerCount: 2
Fore
SplineSet
100 1000 m 1
 100 1200 l 1
 400 1200 l 1
 400 1400 l 1
 600 1600 l 1
 1300 1600 l 1
 1300 0 l 1
 1100 0 l 1
 1100 1400 l 1
 700 1400 l 1
 600 1300 l 1
 600 1200 l 1
 900 1200 l 1
 900 1000 l 1
 600 1000 l 1
 600 0 l 1
 400 0 l 1
 400 1000 l 1
 100 1000 l 1
EndSplineSet
Validated: 1
EndChar

StartChar: uni0237
Encoding: 237 567 237
Width: 400
Flags: HMW
LayerCount: 2
Fore
SplineSet
100 -400 m 1
 100 1200 l 1
 300 1200 l 1
 300 -400 l 1
 100 -400 l 1
EndSplineSet
Validated: 1
EndChar

StartChar: dotlessi
Encoding: 238 305 238
Width: 400
Flags: HMW
LayerCount: 2
Fore
SplineSet
100 0 m 1
 100 1200 l 1
 300 1200 l 1
 300 0 l 1
 100 0 l 1
EndSplineSet
Validated: 1
EndChar

StartChar: breve
Encoding: 239 728 239
Width: 1000
Flags: HMW
LayerCount: 2
Fore
SplineSet
100 1500 m 1
 100 1600 l 1
 300 1600 l 1
 400 1500 l 1
 600 1500 l 1
 700 1600 l 1
 900 1600 l 1
 900 1500 l 1
 700 1300 l 1
 300 1300 l 1
 100 1500 l 1
EndSplineSet
Validated: 1
EndChar

StartChar: dotaccent
Encoding: 240 729 240
Width: 400
Flags: HMW
LayerCount: 2
Fore
SplineSet
100 1400 m 1
 100 1600 l 1
 300 1600 l 1
 300 1400 l 1
 100 1400 l 1
EndSplineSet
Validated: 1
EndChar

StartChar: ring
Encoding: 241 730 241
Width: 800
Flags: HMW
LayerCount: 2
Fore
SplineSet
100 1300 m 1
 100 1500 l 1
 200 1600 l 1
 600 1600 l 1
 700 1500 l 1
 700 1300 l 1
 600 1200 l 1
 200 1200 l 1
 100 1300 l 1
300 1300 m 1
 500 1300 l 1
 500 1500 l 1
 300 1500 l 1
 300 1300 l 1
EndSplineSet
Validated: 1
EndChar

StartChar: hungarumlaut
Encoding: 242 733 242
Width: 1000
Flags: HMW
LayerCount: 2
Fore
SplineSet
100 1300 m 1
 100 1400 l 1
 300 1600 l 1
 500 1600 l 1
 500 1500 l 1
 300 1300 l 1
 100 1300 l 1
500 1300 m 1
 500 1400 l 1
 700 1600 l 1
 900 1600 l 1
 900 1500 l 1
 700 1300 l 1
 500 1300 l 1
EndSplineSet
Validated: 1
EndChar

StartChar: ogonek
Encoding: 243 731 243
Width: 400
Flags: HMW
LayerCount: 2
Fore
SplineSet
100 -200 m 1
 150 0 l 1
 300 0 l 1
 250 -200 l 1
 300 -200 l 1
 300 -400 l 1
 200 -400 l 1
 100 -300 l 1
 100 -200 l 1
EndSplineSet
Validated: 1
EndChar

StartChar: caron
Encoding: 244 711 244
Width: 800
Flags: HMW
LayerCount: 2
Fore
SplineSet
100 1500 m 1
 100 1600 l 1
 300 1600 l 1
 400 1500 l 1
 500 1600 l 1
 700 1600 l 1
 700 1500 l 1
 500 1300 l 1
 300 1300 l 1
 100 1500 l 1
EndSplineSet
Validated: 1
EndChar

StartChar: uni02BB
Encoding: 245 699 245
Width: 400
Flags: HMW
LayerCount: 2
Fore
SplineSet
100 1200 m 1
 100 1400 l 1
 150 1600 l 1
 300 1600 l 1
 250 1400 l 1
 300 1400 l 1
 300 1200 l 1
 100 1200 l 1
EndSplineSet
Validated: 1
EndChar

StartChar: uni02BC
Encoding: 246 700 246
Width: 400
Flags: HMW
LayerCount: 2
Fore
SplineSet
100 1200 m 1
 150 1400 l 1
 100 1400 l 1
 100 1600 l 1
 300 1600 l 1
 300 1400 l 1
 250 1200 l 1
 100 1200 l 1
EndSplineSet
Validated: 1
EndChar

StartChar: uni02BD
Encoding: 247 701 247
Width: 400
Flags: HMW
LayerCount: 2
Fore
SplineSet
100 1400 m 1
 100 1600 l 1
 300 1600 l 1
 300 1400 l 1
 250 1400 l 1
 300 1200 l 1
 150 1200 l 1
 100 1400 l 1
EndSplineSet
Validated: 1
EndChar

StartChar: uni02C8
Encoding: 248 712 248
Width: 400
Flags: HMW
LayerCount: 2
Fore
SplineSet
100 1300 m 1
 100 1600 l 1
 300 1600 l 1
 300 1300 l 1
 100 1300 l 1
EndSplineSet
Validated: 1
EndChar

StartChar: uni02C9
Encoding: 249 713 249
Width: 800
Flags: HMW
LayerCount: 2
Fore
SplineSet
100 1400 m 1
 100 1600 l 1
 700 1600 l 1
 700 1400 l 1
 100 1400 l 1
EndSplineSet
Validated: 1
EndChar

StartChar: uni02CA
Encoding: 250 714 250
Width: 600
Flags: HMW
LayerCount: 2
Fore
SplineSet
100 1300 m 1
 100 1400 l 1
 300 1600 l 1
 500 1600 l 1
 500 1500 l 1
 300 1300 l 1
 100 1300 l 1
EndSplineSet
Validated: 1
EndChar

StartChar: uni02CB
Encoding: 251 715 251
Width: 600
Flags: HMW
LayerCount: 2
Fore
SplineSet
100 1500 m 1
 100 1600 l 1
 300 1600 l 1
 500 1400 l 1
 500 1300 l 1
 300 1300 l 1
 100 1500 l 1
EndSplineSet
Validated: 1
EndChar

StartChar: zero.zero
Encoding: 252 -1 252
Width: 1200
Flags: HMW
LayerCount: 2
Fore
SplineSet
100 300 m 1
 100 1300 l 1
 400 1600 l 1
 800 1600 l 1
 1100 1300 l 1
 1100 300 l 1
 800 0 l 1
 400 0 l 1
 100 300 l 1
300 400 m 1
 500 200 l 1
 700 200 l 1
 875 375 l 1
 300 950 l 1
 300 400 l 1
325 1225 m 1
 900 650 l 1
 900 1200 l 1
 700 1400 l 1
 500 1400 l 1
 325 1225 l 1
EndSplineSet
Validated: 1
EndChar

StartChar: i.locl
Encoding: 253 -1 253
Width: 400
Flags: HMW
LayerCount: 2
Fore
SplineSet
100 0 m 1
 100 1200 l 1
 300 1200 l 1
 300 0 l 1
 100 0 l 1
100 1400 m 1
 100 1600 l 1
 300 1600 l 1
 300 1400 l 1
 100 1400 l 1
EndSplineSet
Validated: 1
EndChar

StartChar: iacute.locl
Encoding: 254 -1 254
Width: 600
Flags: HMW
LayerCount: 2
Fore
SplineSet
100 0 m 1
 100 1200 l 1
 300 1200 l 1
 300 0 l 1
 100 0 l 1
100 1400 m 1
 100 1600 l 1
 300 1600 l 1
 300 1400 l 1
 100 1400 l 1
100 1700 m 1
 100 1800 l 1
 300 2000 l 1
 500 2000 l 1
 500 1900 l 1
 300 1700 l 1
 100 1700 l 1
EndSplineSet
Validated: 1
EndChar

StartChar: periodcentered.CATC
Encoding: 255 -1 255
Width: 0
Flags: HMW
LayerCount: 2
Fore
SplineSet
-600 700 m 1
 -600 900 l 1
 -400 900 l 1
 -400 700 l 1
 -600 700 l 1
EndSplineSet
Validated: 1
EndChar

StartChar: periodcentered.CATL
Encoding: 256 -1 256
Width: 400
Flags: HMW
LayerCount: 2
Fore
SplineSet
100 700 m 1
 100 900 l 1
 300 900 l 1
 300 700 l 1
 100 700 l 1
EndSplineSet
Validated: 1
EndChar

StartChar: Jacute
Encoding: 257 -1 257
Width: 1400
Flags: HMW
LayerCount: 2
Fore
SplineSet
100 200 m 1
 100 300 l 1
 300 300 l 1
 400 200 l 1
 600 200 l 1
 800 400 l 1
 800 1400 l 1
 500 1400 l 1
 500 1600 l 1
 1300 1600 l 1
 1300 1400 l 1
 1000 1400 l 1
 1000 300 l 1
 700 0 l 1
 300 0 l 1
 100 200 l 1
800 1700 m 1
 800 1800 l 1
 1000 2000 l 1
 1200 2000 l 1
 1200 1900 l 1
 1000 1700 l 1
 800 1700 l 1
EndSplineSet
Validated: 1
EndChar

StartChar: jacute
Encoding: 258 -1 258
Width: 600
Flags: HMW
LayerCount: 2
Fore
SplineSet
100 -400 m 1
 100 1200 l 1
 300 1200 l 1
 300 -400 l 1
 100 -400 l 1
100 1300 m 1
 100 1400 l 1
 300 1600 l 1
 500 1600 l 1
 500 1500 l 1
 300 1300 l 1
 100 1300 l 1
EndSplineSet
Validated: 1
EndChar

StartChar: uni2070
Encoding: 259 8304 259
Width: 1000
Flags: HMW
LayerCount: 2
Fore
SplineSet
100 800 m 1
 100 1600 l 1
 300 1800 l 1
 700 1800 l 1
 900 1600 l 1
 900 800 l 1
 700 600 l 1
 300 600 l 1
 100 800 l 1
300 900 m 1
 400 800 l 1
 600 800 l 1
 675 875 l 1
 300 1250 l 1
 300 900 l 1
325 1525 m 1
 700 1150 l 1
 700 1500 l 1
 600 1600 l 1
 400 1600 l 1
 325 1525 l 1
EndSplineSet
Validated: 1
EndChar

StartChar: uni2074
Encoding: 260 8308 260
Width: 1000
Flags: HMW
LayerCount: 2
Fore
SplineSet
100 900 m 1
 100 1400 l 1
 500 1800 l 1
 700 1800 l 1
 700 1100 l 1
 900 1100 l 1
 900 900 l 1
 700 900 l 1
 700 600 l 1
 500 600 l 1
 500 900 l 1
 100 900 l 1
300 1100 m 1
 500 1100 l 1
 500 1500 l 1
 300 1300 l 1
 300 1100 l 1
EndSplineSet
Validated: 1
EndChar

StartChar: uni2075
Encoding: 261 8309 261
Width: 1000
Flags: HMW
LayerCount: 2
Fore
SplineSet
100 800 m 1
 100 900 l 1
 300 900 l 1
 400 800 l 1
 600 800 l 1
 700 900 l 1
 700 1100 l 1
 600 1200 l 1
 100 1200 l 1
 100 1800 l 1
 900 1800 l 1
 900 1600 l 1
 300 1600 l 1
 300 1400 l 1
 700 1400 l 1
 900 1200 l 1
 900 800 l 1
 700 600 l 1
 300 600 l 1
 100 800 l 1
EndSplineSet
Validated: 1
EndChar

StartChar: uni2076
Encoding: 262 8310 262
Width: 1000
Flags: HMW
LayerCount: 2
Fore
SplineSet
100 800 m 1
 100 1400 l 1
 500 1800 l 1
 700 1800 l 1
 700 1700 l 1
 300 1300 l 1
 700 1300 l 1
 900 1100 l 1
 900 800 l 1
 700 600 l 1
 300 600 l 1
 100 800 l 1
300 900 m 1
 400 800 l 1
 600 800 l 1
 700 900 l 1
 700 1000 l 1
 600 1100 l 1
 300 1100 l 1
 300 900 l 1
EndSplineSet
Validated: 1
EndChar

StartChar: uni2077
Encoding: 263 8311 263
Width: 1000
Flags: HMW
LayerCount: 2
Fore
SplineSet
100 1600 m 1
 100 1800 l 1
 900 1800 l 1
 900 1200 l 1
 600 900 l 1
 600 600 l 1
 400 600 l 1
 400 1000 l 1
 700 1300 l 1
 700 1600 l 1
 100 1600 l 1
EndSplineSet
Validated: 1
EndChar

StartChar: uni2078
Encoding: 264 8312 264
Width: 1000
Flags: HMW
LayerCount: 2
Fore
SplineSet
100 800 m 1
 100 1100 l 1
 200 1200 l 1
 100 1300 l 1
 100 1600 l 1
 300 1800 l 1
 700 1800 l 1
 900 1600 l 1
 900 1300 l 1
 800 1200 l 1
 900 1100 l 1
 900 800 l 1
 700 600 l 1
 300 600 l 1
 100 800 l 1
300 900 m 1
 400 800 l 1
 600 800 l 1
 700 900 l 1
 700 1000 l 1
 600 1100 l 1
 400 1100 l 1
 300 1000 l 1
 300 900 l 1
300 1400 m 1
 400 1300 l 1
 600 1300 l 1
 700 1400 l 1
 700 1500 l 1
 600 1600 l 1
 400 1600 l 1
 300 1500 l 1
 300 1400 l 1
EndSplineSet
Validated: 1
EndChar

StartChar: uni2079
Encoding: 265 8313 265
Width: 1000
Flags: HMW
LayerCount: 2
Fore
SplineSet
100 1300 m 1
 100 1600 l 1
 300 1800 l 1
 700 1800 l 1
 900 1600 l 1
 900 1000 l 1
 500 600 l 1
 300 600 l 1
 300 700 l 1
 700 1100 l 1
 300 1100 l 1
 100 1300 l 1
300 1400 m 1
 400 1300 l 1
 700 1300 l 1
 700 1500 l 1
 600 1600 l 1
 400 1600 l 1
 300 1500 l 1
 300 1400 l 1
EndSplineSet
Validated: 1
EndChar

StartChar: uni207A
Encoding: 266 8314 266
Width: 800
Flags: HMW
LayerCount: 2
Fore
SplineSet
100 1100 m 1
 100 1300 l 1
 300 1300 l 1
 300 1500 l 1
 500 1500 l 1
 500 1300 l 1
 700 1300 l 1
 700 1100 l 1
 500 1100 l 1
 500 900 l 1
 300 900 l 1
 300 1100 l 1
 100 1100 l 1
EndSplineSet
Validated: 1
EndChar

StartChar: uni207B
Encoding: 267 8315 267
Width: 800
Flags: HMW
LayerCount: 2
Fore
SplineSet
100 1100 m 1
 100 1300 l 1
 700 1300 l 1
 700 1100 l 1
 100 1100 l 1
EndSplineSet
Validated: 1
EndChar

StartChar: uni207C
Encoding: 268 8316 268
Width: 800
Flags: HMW
LayerCount: 2
Fore
SplineSet
100 900 m 1
 100 1100 l 1
 700 1100 l 1
 700 900 l 1
 100 900 l 1
100 1300 m 1
 100 1500 l 1
 700 1500 l 1
 700 1300 l 1
 100 1300 l 1
EndSplineSet
Validated: 1
EndChar

StartChar: uni207D
Encoding: 269 8317 269
Width: 600
Flags: HMW
LayerCount: 2
Fore
SplineSet
100 900 m 1
 100 1500 l 1
 400 1800 l 1
 500 1800 l 1
 500 1600 l 1
 300 1400 l 1
 300 1000 l 1
 500 800 l 1
 500 600 l 1
 400 600 l 1
 100 900 l 1
EndSplineSet
Validated: 1
EndChar

StartChar: uni207E
Encoding: 270 8318 270
Width: 600
Flags: HMW
LayerCount: 2
Fore
SplineSet
100 600 m 1
 100 800 l 1
 300 1000 l 1
 300 1400 l 1
 100 1600 l 1
 100 1800 l 1
 200 1800 l 1
 500 1500 l 1
 500 900 l 1
 200 600 l 1
 100 600 l 1
EndSplineSet
Validated: 1
EndChar

StartChar: uni207F
Encoding: 271 8319 271
Width: 1000
Flags: HMW
LayerCount: 2
Fore
SplineSet
100 600 m 1
 100 1600 l 1
 700 1600 l 1
 900 1400 l 1
 900 600 l 1
 700 600 l 1
 700 1300 l 1
 600 1400 l 1
 300 1400 l 1
 300 600 l 1
 100 600 l 1
EndSplineSet
Validated: 1
EndChar

StartChar: uni2080
Encoding: 272 8320 272
Width: 1000
Flags: HMW
LayerCount: 2
Fore
SplineSet
100 0 m 1
 100 800 l 1
 300 1000 l 1
 700 1000 l 1
 900 800 l 1
 900 0 l 1
 700 -200 l 1
 300 -200 l 1
 100 0 l 1
300 100 m 1
 400 0 l 1
 600 0 l 1
 675 75 l 1
 300 450 l 1
 300 100 l 1
325 725 m 1
 700 350 l 1
 700 700 l 1
 600 800 l 1
 400 800 l 1
 325 725 l 1
EndSplineSet
Validated: 1
EndChar

StartChar: uni2081
Encoding: 273 8321 273
Width: 1000
VWidth: 1600
Flags: HMW
LayerCount: 2
Fore
SplineSet
100 0 m 1
 400 0 l 1
 400 700 l 1
 300 600 l 1
 100 600 l 1
 100 700 l 1
 400 1000 l 1
 600 1000 l 1
 600 0 l 1
 900 0 l 1
 900 -200 l 1
 100 -200 l 1
 100 0 l 1
EndSplineSet
Validated: 1
EndChar

StartChar: uni2082
Encoding: 274 8322 274
Width: 1000
VWidth: 1600
Flags: HMW
LayerCount: 2
Fore
SplineSet
100 0 m 1
 700 600 l 1
 700 700 l 1
 600 800 l 1
 400 800 l 1
 300 700 l 1
 100 700 l 1
 100 800 l 1
 300 1000 l 1
 700 1000 l 1
 900 800 l 1
 900 500 l 1
 400 0 l 1
 900 0 l 1
 900 -200 l 1
 100 -200 l 1
 100 0 l 1
EndSplineSet
Validated: 1
EndChar

StartChar: uni2083
Encoding: 275 8323 275
Width: 1000
VWidth: 1600
Flags: HMW
LayerCount: 2
Fore
SplineSet
100 0 m 1
 100 100 l 1
 300 100 l 1
 400 0 l 1
 600 0 l 1
 700 100 l 1
 700 200 l 1
 600 300 l 1
 300 300 l 1
 300 500 l 1
 600 500 l 1
 700 600 l 1
 700 700 l 1
 600 800 l 1
 400 800 l 1
 300 700 l 1
 100 700 l 1
 100 800 l 1
 300 1000 l 1
 700 1000 l 1
 900 800 l 1
 900 500 l 1
 800 400 l 1
 900 300 l 1
 900 0 l 1
 700 -200 l 1
 300 -200 l 1
 100 0 l 1
EndSplineSet
Validated: 1
EndChar

StartChar: uni2084
Encoding: 276 8324 276
Width: 1000
VWidth: 1600
Flags: HMW
LayerCount: 2
Fore
SplineSet
100 100 m 1
 100 600 l 1
 500 1000 l 1
 700 1000 l 1
 700 300 l 1
 900 300 l 1
 900 100 l 1
 700 100 l 1
 700 -200 l 1
 500 -200 l 1
 500 100 l 1
 100 100 l 1
300 300 m 1
 500 300 l 1
 500 700 l 1
 300 500 l 1
 300 300 l 1
EndSplineSet
Validated: 1
EndChar

StartChar: uni2085
Encoding: 277 8325 277
Width: 1000
VWidth: 1600
Flags: HMW
LayerCount: 2
Fore
SplineSet
100 0 m 1
 100 100 l 1
 300 100 l 1
 400 0 l 1
 600 0 l 1
 700 100 l 1
 700 300 l 1
 600 400 l 1
 100 400 l 1
 100 1000 l 1
 900 1000 l 1
 900 800 l 1
 300 800 l 1
 300 600 l 1
 700 600 l 1
 900 400 l 1
 900 0 l 1
 700 -200 l 1
 300 -200 l 1
 100 0 l 1
EndSplineSet
Validated: 1
EndChar

StartChar: uni2086
Encoding: 278 8326 278
Width: 1000
VWidth: 1600
Flags: HMW
LayerCount: 2
Fore
SplineSet
100 0 m 1
 100 600 l 1
 500 1000 l 1
 700 1000 l 1
 700 900 l 1
 300 500 l 1
 700 500 l 1
 900 300 l 1
 900 0 l 1
 700 -200 l 1
 300 -200 l 1
 100 0 l 1
300 100 m 1
 400 0 l 1
 600 0 l 1
 700 100 l 1
 700 200 l 1
 600 300 l 1
 300 300 l 1
 300 100 l 1
EndSplineSet
Validated: 1
EndChar

StartChar: uni2087
Encoding: 279 8327 279
Width: 1000
VWidth: 1600
Flags: HMW
LayerCount: 2
Fore
SplineSet
100 800 m 1
 100 1000 l 1
 900 1000 l 1
 900 400 l 1
 600 100 l 1
 600 -200 l 1
 400 -200 l 1
 400 200 l 1
 700 500 l 1
 700 800 l 1
 100 800 l 1
EndSplineSet
Validated: 1
EndChar

StartChar: uni2088
Encoding: 280 8328 280
Width: 1000
VWidth: 1600
Flags: HMW
LayerCount: 2
Fore
SplineSet
100 0 m 1
 100 300 l 1
 200 400 l 1
 100 500 l 1
 100 800 l 1
 300 1000 l 1
 700 1000 l 1
 900 800 l 1
 900 500 l 1
 800 400 l 1
 900 300 l 1
 900 0 l 1
 700 -200 l 1
 300 -200 l 1
 100 0 l 1
300 100 m 1
 400 0 l 1
 600 0 l 1
 700 100 l 1
 700 200 l 1
 600 300 l 1
 400 300 l 1
 300 200 l 1
 300 100 l 1
300 600 m 1
 400 500 l 1
 600 500 l 1
 700 600 l 1
 700 700 l 1
 600 800 l 1
 400 800 l 1
 300 700 l 1
 300 600 l 1
EndSplineSet
Validated: 1
EndChar

StartChar: uni2089
Encoding: 281 8329 281
Width: 1000
VWidth: 1600
Flags: HMW
LayerCount: 2
Fore
SplineSet
100 500 m 1
 100 800 l 1
 300 1000 l 1
 700 1000 l 1
 900 800 l 1
 900 200 l 1
 500 -200 l 1
 300 -200 l 1
 300 -100 l 1
 700 300 l 1
 300 300 l 1
 100 500 l 1
300 600 m 1
 400 500 l 1
 700 500 l 1
 700 700 l 1
 600 800 l 1
 400 800 l 1
 300 700 l 1
 300 600 l 1
EndSplineSet
Validated: 1
EndChar

StartChar: uni208A
Encoding: 282 8330 282
Width: 800
VWidth: 1600
Flags: HMW
LayerCount: 2
Fore
SplineSet
100 300 m 1
 100 500 l 1
 300 500 l 1
 300 700 l 1
 500 700 l 1
 500 500 l 1
 700 500 l 1
 700 300 l 1
 500 300 l 1
 500 100 l 1
 300 100 l 1
 300 300 l 1
 100 300 l 1
EndSplineSet
Validated: 1
EndChar

StartChar: uni208B
Encoding: 283 8331 283
Width: 800
VWidth: 1600
Flags: HMW
LayerCount: 2
Fore
SplineSet
100 300 m 1
 100 500 l 1
 700 500 l 1
 700 300 l 1
 100 300 l 1
EndSplineSet
Validated: 1
EndChar

StartChar: uni208C
Encoding: 284 8332 284
Width: 800
VWidth: 1600
Flags: HMW
LayerCount: 2
Fore
SplineSet
100 100 m 1
 100 300 l 1
 700 300 l 1
 700 100 l 1
 100 100 l 1
100 500 m 1
 100 700 l 1
 700 700 l 1
 700 500 l 1
 100 500 l 1
EndSplineSet
Validated: 1
EndChar

StartChar: uni208D
Encoding: 285 8333 285
Width: 600
VWidth: 1600
Flags: HMW
LayerCount: 2
Fore
SplineSet
100 100 m 1
 100 700 l 1
 400 1000 l 1
 500 1000 l 1
 500 800 l 1
 300 600 l 1
 300 200 l 1
 500 0 l 1
 500 -200 l 1
 400 -200 l 1
 100 100 l 1
EndSplineSet
Validated: 1
EndChar

StartChar: uni208E
Encoding: 286 8334 286
Width: 600
VWidth: 1600
Flags: HMW
LayerCount: 2
Fore
SplineSet
100 0 m 1
 300 200 l 1
 300 600 l 1
 100 800 l 1
 100 1000 l 1
 200 1000 l 1
 500 700 l 1
 500 100 l 1
 200 -200 l 1
 100 -200 l 1
 100 0 l 1
EndSplineSet
Validated: 1
EndChar

StartChar: uni2090
Encoding: 287 8336 287
Width: 1000
Flags: HMW
LayerCount: 2
Fore
SplineSet
100 0 m 1
 100 200 l 1
 300 400 l 1
 700 400 l 1
 700 500 l 1
 600 600 l 1
 300 600 l 1
 300 800 l 1
 700 800 l 1
 900 600 l 1
 900 -200 l 1
 300 -200 l 1
 100 0 l 1
300 100 m 1
 400 0 l 1
 700 0 l 1
 700 200 l 1
 400 200 l 1
 300 100 l 1
EndSplineSet
Validated: 1
EndChar

StartChar: uni2091
Encoding: 288 8337 288
Width: 1000
Flags: HMW
LayerCount: 2
Fore
SplineSet
100 0 m 1
 100 600 l 1
 300 800 l 1
 700 800 l 1
 900 600 l 1
 900 200 l 1
 300 200 l 1
 300 100 l 1
 400 0 l 1
 900 0 l 1
 900 -200 l 1
 300 -200 l 1
 100 0 l 1
300 400 m 1
 700 400 l 1
 700 500 l 1
 600 600 l 1
 400 600 l 1
 300 500 l 1
 300 400 l 1
EndSplineSet
Validated: 1
EndChar

StartChar: uni2092
Encoding: 289 8338 289
Width: 1000
Flags: HMW
LayerCount: 2
Fore
SplineSet
100 0 m 1
 100 600 l 1
 300 800 l 1
 700 800 l 1
 900 600 l 1
 900 0 l 1
 700 -200 l 1
 300 -200 l 1
 100 0 l 1
300 100 m 1
 400 0 l 1
 600 0 l 1
 700 100 l 1
 700 500 l 1
 600 600 l 1
 400 600 l 1
 300 500 l 1
 300 100 l 1
EndSplineSet
Validated: 1
EndChar

StartChar: uni2093
Encoding: 290 8339 290
Width: 1000
Flags: HMW
LayerCount: 2
Fore
SplineSet
100 50 m 1
 350 300 l 1
 100 550 l 1
 100 800 l 1
 300 800 l 1
 300 650 l 1
 500 450 l 1
 700 650 l 1
 700 800 l 1
 900 800 l 1
 900 550 l 1
 650 300 l 1
 900 50 l 1
 900 -200 l 1
 700 -200 l 1
 700 -50 l 1
 500 150 l 1
 300 -50 l 1
 300 -200 l 1
 100 -200 l 1
 100 50 l 1
EndSplineSet
Validated: 1
EndChar

StartChar: uni2094
Encoding: 291 8340 291
Width: 1000
Flags: HMW
LayerCount: 2
Fore
SplineSet
100 0 m 1
 100 400 l 1
 700 400 l 1
 700 500 l 1
 600 600 l 1
 100 600 l 1
 100 800 l 1
 700 800 l 1
 900 600 l 1
 900 0 l 1
 700 -200 l 1
 300 -200 l 1
 100 0 l 1
300 100 m 1
 400 0 l 1
 600 0 l 1
 700 100 l 1
 700 200 l 1
 300 200 l 1
 300 100 l 1
EndSplineSet
Validated: 1
EndChar

StartChar: uni2150
Encoding: 292 8528 292
Width: 2600
Flags: HMW
LayerCount: 2
Fore
SplineSet
100 600 m 1
 100 800 l 1
 400 800 l 1
 400 1500 l 1
 300 1400 l 1
 100 1400 l 1
 100 1500 l 1
 400 1800 l 1
 600 1800 l 1
 600 800 l 1
 900 800 l 1
 900 600 l 1
 100 600 l 1
800 0 m 1
 1600 1600 l 1
 1800 1600 l 1
 1000 0 l 1
 800 0 l 1
1700 800 m 1
 1700 1000 l 1
 2500 1000 l 1
 2500 400 l 1
 2200 100 l 1
 2200 -200 l 1
 2000 -200 l 1
 2000 200 l 1
 2300 500 l 1
 2300 800 l 1
 1700 800 l 1
EndSplineSet
Validated: 1
EndChar

StartChar: uni2151
Encoding: 293 8529 293
Width: 2500
Flags: HMW
LayerCount: 2
Fore
SplineSet
100 600 m 1
 100 800 l 1
 400 800 l 1
 400 1500 l 1
 300 1400 l 1
 100 1400 l 1
 100 1500 l 1
 400 1800 l 1
 600 1800 l 1
 600 800 l 1
 900 800 l 1
 900 600 l 1
 100 600 l 1
800 0 m 1
 1600 1600 l 1
 1800 1600 l 1
 1000 0 l 1
 800 0 l 1
1600 500 m 1
 1600 800 l 1
 1800 1000 l 1
 2200 1000 l 1
 2400 800 l 1
 2400 200 l 1
 2000 -200 l 1
 1800 -200 l 1
 1800 -100 l 1
 2200 300 l 1
 1800 300 l 1
 1600 500 l 1
1800 600 m 1
 1900 500 l 1
 2200 500 l 1
 2200 700 l 1
 2100 800 l 1
 1900 800 l 1
 1800 700 l 1
 1800 600 l 1
EndSplineSet
Validated: 1
EndChar

StartChar: uni2152
Encoding: 294 8530 294
Width: 3500
Flags: HMW
LayerCount: 2
Fore
SplineSet
100 600 m 1
 100 800 l 1
 400 800 l 1
 400 1500 l 1
 300 1400 l 1
 100 1400 l 1
 100 1500 l 1
 400 1800 l 1
 600 1800 l 1
 600 800 l 1
 900 800 l 1
 900 600 l 1
 100 600 l 1
800 0 m 1
 1600 1600 l 1
 1800 1600 l 1
 1000 0 l 1
 800 0 l 1
1600 0 m 1
 1900 0 l 1
 1900 700 l 1
 1800 600 l 1
 1600 600 l 1
 1600 700 l 1
 1900 1000 l 1
 2100 1000 l 1
 2100 0 l 1
 2400 0 l 1
 2400 -200 l 1
 1600 -200 l 1
 1600 0 l 1
2600 0 m 1
 2600 800 l 1
 2800 1000 l 1
 3200 1000 l 1
 3400 800 l 1
 3400 0 l 1
 3200 -200 l 1
 2800 -200 l 1
 2600 0 l 1
2800 100 m 1
 2900 0 l 1
 3100 0 l 1
 3175 75 l 1
 2800 450 l 1
 2800 100 l 1
2825 725 m 1
 3200 350 l 1
 3200 700 l 1
 3100 800 l 1
 2900 800 l 1
 2825 725 l 1
EndSplineSet
Validated: 1
EndChar

StartChar: onethird
Encoding: 295 8531 295
Width: 2500
Flags: HMW
LayerCount: 2
Fore
SplineSet
100 600 m 1
 100 800 l 1
 400 800 l 1
 400 1500 l 1
 300 1400 l 1
 100 1400 l 1
 100 1500 l 1
 400 1800 l 1
 600 1800 l 1
 600 800 l 1
 900 800 l 1
 900 600 l 1
 100 600 l 1
800 0 m 1
 1600 1600 l 1
 1800 1600 l 1
 1000 0 l 1
 800 0 l 1
1600 0 m 1
 1600 100 l 1
 1800 100 l 1
 1900 0 l 1
 2100 0 l 1
 2200 100 l 1
 2200 200 l 1
 2100 300 l 1
 1800 300 l 1
 1800 500 l 1
 2100 500 l 1
 2200 600 l 1
 2200 700 l 1
 2100 800 l 1
 1900 800 l 1
 1800 700 l 1
 1600 700 l 1
 1600 800 l 1
 1800 1000 l 1
 2200 1000 l 1
 2400 800 l 1
 2400 500 l 1
 2300 400 l 1
 2400 300 l 1
 2400 0 l 1
 2200 -200 l 1
 1800 -200 l 1
 1600 0 l 1
EndSplineSet
Validated: 1
EndChar

StartChar: twothirds
Encoding: 296 8532 296
Width: 2500
Flags: HMW
LayerCount: 2
Fore
SplineSet
100 600 m 1
 100 800 l 1
 700 1400 l 1
 700 1500 l 1
 600 1600 l 1
 400 1600 l 1
 300 1500 l 1
 100 1500 l 1
 100 1600 l 1
 300 1800 l 1
 700 1800 l 1
 900 1600 l 1
 900 1300 l 1
 400 800 l 1
 900 800 l 1
 900 600 l 1
 100 600 l 1
800 0 m 1
 1600 1600 l 1
 1800 1600 l 1
 1000 0 l 1
 800 0 l 1
1600 0 m 1
 1600 100 l 1
 1800 100 l 1
 1900 0 l 1
 2100 0 l 1
 2200 100 l 1
 2200 200 l 1
 2100 300 l 1
 1800 300 l 1
 1800 500 l 1
 2100 500 l 1
 2200 600 l 1
 2200 700 l 1
 2100 800 l 1
 1900 800 l 1
 1800 700 l 1
 1600 700 l 1
 1600 800 l 1
 1800 1000 l 1
 2200 1000 l 1
 2400 800 l 1
 2400 500 l 1
 2300 400 l 1
 2400 300 l 1
 2400 0 l 1
 2200 -200 l 1
 1800 -200 l 1
 1600 0 l 1
EndSplineSet
Validated: 1
EndChar

StartChar: uni2155
Encoding: 297 8533 297
Width: 2600
Flags: HMW
LayerCount: 2
Fore
SplineSet
100 600 m 1
 100 800 l 1
 400 800 l 1
 400 1500 l 1
 300 1400 l 1
 100 1400 l 1
 100 1500 l 1
 400 1800 l 1
 600 1800 l 1
 600 800 l 1
 900 800 l 1
 900 600 l 1
 100 600 l 1
800 0 m 1
 1600 1600 l 1
 1800 1600 l 1
 1000 0 l 1
 800 0 l 1
1700 0 m 1
 1700 100 l 1
 1900 100 l 1
 2000 0 l 1
 2200 0 l 1
 2300 100 l 1
 2300 300 l 1
 2200 400 l 1
 1700 400 l 1
 1700 1000 l 1
 2500 1000 l 1
 2500 800 l 1
 1900 800 l 1
 1900 600 l 1
 2300 600 l 1
 2500 400 l 1
 2500 0 l 1
 2300 -200 l 1
 1900 -200 l 1
 1700 0 l 1
EndSplineSet
Validated: 1
EndChar

StartChar: uni2156
Encoding: 298 8534 298
Width: 2600
Flags: HMW
LayerCount: 2
Fore
SplineSet
100 600 m 1
 100 800 l 1
 700 1400 l 1
 700 1500 l 1
 600 1600 l 1
 400 1600 l 1
 300 1500 l 1
 100 1500 l 1
 100 1600 l 1
 300 1800 l 1
 700 1800 l 1
 900 1600 l 1
 900 1300 l 1
 400 800 l 1
 900 800 l 1
 900 600 l 1
 100 600 l 1
800 0 m 1
 1600 1600 l 1
 1800 1600 l 1
 1000 0 l 1
 800 0 l 1
1700 0 m 1
 1700 100 l 1
 1900 100 l 1
 2000 0 l 1
 2200 0 l 1
 2300 100 l 1
 2300 300 l 1
 2200 400 l 1
 1700 400 l 1
 1700 1000 l 1
 2500 1000 l 1
 2500 800 l 1
 1900 800 l 1
 1900 600 l 1
 2300 600 l 1
 2500 400 l 1
 2500 0 l 1
 2300 -200 l 1
 1900 -200 l 1
 1700 0 l 1
EndSplineSet
Validated: 1
EndChar

StartChar: uni2157
Encoding: 299 8535 299
Width: 2500
Flags: HMW
LayerCount: 2
Fore
SplineSet
100 800 m 1
 100 900 l 1
 300 900 l 1
 400 800 l 1
 600 800 l 1
 700 900 l 1
 700 1000 l 1
 600 1100 l 1
 300 1100 l 1
 300 1300 l 1
 600 1300 l 1
 700 1400 l 1
 700 1500 l 1
 600 1600 l 1
 400 1600 l 1
 300 1500 l 1
 100 1500 l 1
 100 1600 l 1
 300 1800 l 1
 700 1800 l 1
 900 1600 l 1
 900 1300 l 1
 800 1200 l 1
 900 1100 l 1
 900 800 l 1
 700 600 l 1
 300 600 l 1
 100 800 l 1
700 0 m 1
 1500 1600 l 1
 1700 1600 l 1
 900 0 l 1
 700 0 l 1
1600 0 m 1
 1600 100 l 1
 1800 100 l 1
 1900 0 l 1
 2100 0 l 1
 2200 100 l 1
 2200 300 l 1
 2100 400 l 1
 1600 400 l 1
 1600 1000 l 1
 2400 1000 l 1
 2400 800 l 1
 1800 800 l 1
 1800 600 l 1
 2200 600 l 1
 2400 400 l 1
 2400 0 l 1
 2200 -200 l 1
 1800 -200 l 1
 1600 0 l 1
EndSplineSet
Validated: 1
EndChar

StartChar: uni2158
Encoding: 300 8536 300
Width: 2500
Flags: HMW
LayerCount: 2
Fore
SplineSet
100 900 m 1
 100 1400 l 1
 500 1800 l 1
 700 1800 l 1
 700 1100 l 1
 900 1100 l 1
 900 900 l 1
 700 900 l 1
 700 600 l 1
 500 600 l 1
 500 900 l 1
 100 900 l 1
300 1100 m 1
 500 1100 l 1
 500 1500 l 1
 300 1300 l 1
 300 1100 l 1
700 0 m 1
 1500 1600 l 1
 1700 1600 l 1
 900 0 l 1
 700 0 l 1
1600 0 m 1
 1600 100 l 1
 1800 100 l 1
 1900 0 l 1
 2100 0 l 1
 2200 100 l 1
 2200 300 l 1
 2100 400 l 1
 1600 400 l 1
 1600 1000 l 1
 2400 1000 l 1
 2400 800 l 1
 1800 800 l 1
 1800 600 l 1
 2200 600 l 1
 2400 400 l 1
 2400 0 l 1
 2200 -200 l 1
 1800 -200 l 1
 1600 0 l 1
EndSplineSet
Validated: 1
EndChar

StartChar: uni2159
Encoding: 301 8537 301
Width: 2400
Flags: HMW
LayerCount: 2
Fore
SplineSet
100 600 m 1
 100 800 l 1
 400 800 l 1
 400 1500 l 1
 300 1400 l 1
 100 1400 l 1
 100 1500 l 1
 400 1800 l 1
 600 1800 l 1
 600 800 l 1
 900 800 l 1
 900 600 l 1
 100 600 l 1
800 0 m 1
 1600 1600 l 1
 1800 1600 l 1
 1000 0 l 1
 800 0 l 1
1500 0 m 1
 1500 600 l 1
 1900 1000 l 1
 2100 1000 l 1
 2100 900 l 1
 1700 500 l 1
 2100 500 l 1
 2300 300 l 1
 2300 0 l 1
 2100 -200 l 1
 1700 -200 l 1
 1500 0 l 1
1700 100 m 1
 1800 0 l 1
 2000 0 l 1
 2100 100 l 1
 2100 200 l 1
 2000 300 l 1
 1700 300 l 1
 1700 100 l 1
EndSplineSet
Validated: 1
EndChar

StartChar: uni215A
Encoding: 302 8538 302
Width: 2300
Flags: HMW
LayerCount: 2
Fore
SplineSet
100 800 m 1
 100 900 l 1
 300 900 l 1
 400 800 l 1
 600 800 l 1
 700 900 l 1
 700 1100 l 1
 600 1200 l 1
 100 1200 l 1
 100 1800 l 1
 900 1800 l 1
 900 1600 l 1
 300 1600 l 1
 300 1400 l 1
 700 1400 l 1
 900 1200 l 1
 900 800 l 1
 700 600 l 1
 300 600 l 1
 100 800 l 1
700 0 m 1
 1500 1600 l 1
 1700 1600 l 1
 900 0 l 1
 700 0 l 1
1400 0 m 1
 1400 600 l 1
 1800 1000 l 1
 2000 1000 l 1
 2000 900 l 1
 1600 500 l 1
 2000 500 l 1
 2200 300 l 1
 2200 0 l 1
 2000 -200 l 1
 1600 -200 l 1
 1400 0 l 1
1600 100 m 1
 1700 0 l 1
 1900 0 l 1
 2000 100 l 1
 2000 200 l 1
 1900 300 l 1
 1600 300 l 1
 1600 100 l 1
EndSplineSet
Validated: 1
EndChar

StartChar: oneeighth
Encoding: 303 8539 303
Width: 2500
Flags: HMW
LayerCount: 2
Fore
SplineSet
100 600 m 1
 100 800 l 1
 400 800 l 1
 400 1500 l 1
 300 1400 l 1
 100 1400 l 1
 100 1500 l 1
 400 1800 l 1
 600 1800 l 1
 600 800 l 1
 900 800 l 1
 900 600 l 1
 100 600 l 1
800 0 m 1
 1600 1600 l 1
 1800 1600 l 1
 1000 0 l 1
 800 0 l 1
1600 0 m 1
 1600 300 l 1
 1700 400 l 1
 1600 500 l 1
 1600 800 l 1
 1800 1000 l 1
 2200 1000 l 1
 2400 800 l 1
 2400 500 l 1
 2300 400 l 1
 2400 300 l 1
 2400 0 l 1
 2200 -200 l 1
 1800 -200 l 1
 1600 0 l 1
1800 100 m 1
 1900 0 l 1
 2100 0 l 1
 2200 100 l 1
 2200 200 l 1
 2100 300 l 1
 1900 300 l 1
 1800 200 l 1
 1800 100 l 1
1800 600 m 1
 1900 500 l 1
 2100 500 l 1
 2200 600 l 1
 2200 700 l 1
 2100 800 l 1
 1900 800 l 1
 1800 700 l 1
 1800 600 l 1
EndSplineSet
Validated: 1
EndChar

StartChar: threeeighths
Encoding: 304 8540 304
Width: 2400
Flags: HMW
LayerCount: 2
Fore
SplineSet
100 800 m 1
 100 900 l 1
 300 900 l 1
 400 800 l 1
 600 800 l 1
 700 900 l 1
 700 1000 l 1
 600 1100 l 1
 300 1100 l 1
 300 1300 l 1
 600 1300 l 1
 700 1400 l 1
 700 1500 l 1
 600 1600 l 1
 400 1600 l 1
 300 1500 l 1
 100 1500 l 1
 100 1600 l 1
 300 1800 l 1
 700 1800 l 1
 900 1600 l 1
 900 1300 l 1
 800 1200 l 1
 900 1100 l 1
 900 800 l 1
 700 600 l 1
 300 600 l 1
 100 800 l 1
700 0 m 1
 1500 1600 l 1
 1700 1600 l 1
 900 0 l 1
 700 0 l 1
1500 0 m 1
 1500 300 l 1
 1600 400 l 1
 1500 500 l 1
 1500 800 l 1
 1700 1000 l 1
 2100 1000 l 1
 2300 800 l 1
 2300 500 l 1
 2200 400 l 1
 2300 300 l 1
 2300 0 l 1
 2100 -200 l 1
 1700 -200 l 1
 1500 0 l 1
1700 100 m 1
 1800 0 l 1
 2000 0 l 1
 2100 100 l 1
 2100 200 l 1
 2000 300 l 1
 1800 300 l 1
 1700 200 l 1
 1700 100 l 1
1700 600 m 1
 1800 500 l 1
 2000 500 l 1
 2100 600 l 1
 2100 700 l 1
 2000 800 l 1
 1800 800 l 1
 1700 700 l 1
 1700 600 l 1
EndSplineSet
Validated: 1
EndChar

StartChar: fiveeighths
Encoding: 305 8541 305
Width: 2400
Flags: HMW
LayerCount: 2
Fore
SplineSet
100 800 m 1
 100 900 l 1
 300 900 l 1
 400 800 l 1
 600 800 l 1
 700 900 l 1
 700 1100 l 1
 600 1200 l 1
 100 1200 l 1
 100 1800 l 1
 900 1800 l 1
 900 1600 l 1
 300 1600 l 1
 300 1400 l 1
 700 1400 l 1
 900 1200 l 1
 900 800 l 1
 700 600 l 1
 300 600 l 1
 100 800 l 1
700 0 m 1
 1500 1600 l 1
 1700 1600 l 1
 900 0 l 1
 700 0 l 1
1500 0 m 1
 1500 300 l 1
 1600 400 l 1
 1500 500 l 1
 1500 800 l 1
 1700 1000 l 1
 2100 1000 l 1
 2300 800 l 1
 2300 500 l 1
 2200 400 l 1
 2300 300 l 1
 2300 0 l 1
 2100 -200 l 1
 1700 -200 l 1
 1500 0 l 1
1700 100 m 1
 1800 0 l 1
 2000 0 l 1
 2100 100 l 1
 2100 200 l 1
 2000 300 l 1
 1800 300 l 1
 1700 200 l 1
 1700 100 l 1
1700 600 m 1
 1800 500 l 1
 2000 500 l 1
 2100 600 l 1
 2100 700 l 1
 2000 800 l 1
 1800 800 l 1
 1700 700 l 1
 1700 600 l 1
EndSplineSet
Validated: 1
EndChar

StartChar: seveneighths
Encoding: 306 8542 306
Width: 2200
Flags: HMW
LayerCount: 2
Fore
SplineSet
100 1600 m 1
 100 1800 l 1
 900 1800 l 1
 900 1200 l 1
 600 900 l 1
 600 600 l 1
 400 600 l 1
 400 1000 l 1
 700 1300 l 1
 700 1600 l 1
 100 1600 l 1
500 0 m 1
 1300 1600 l 1
 1500 1600 l 1
 700 0 l 1
 500 0 l 1
1300 0 m 1
 1300 300 l 1
 1400 400 l 1
 1300 500 l 1
 1300 800 l 1
 1500 1000 l 1
 1900 1000 l 1
 2100 800 l 1
 2100 500 l 1
 2000 400 l 1
 2100 300 l 1
 2100 0 l 1
 1900 -200 l 1
 1500 -200 l 1
 1300 0 l 1
1500 100 m 1
 1600 0 l 1
 1800 0 l 1
 1900 100 l 1
 1900 200 l 1
 1800 300 l 1
 1600 300 l 1
 1500 200 l 1
 1500 100 l 1
1500 600 m 1
 1600 500 l 1
 1800 500 l 1
 1900 600 l 1
 1900 700 l 1
 1800 800 l 1
 1600 800 l 1
 1500 700 l 1
 1500 600 l 1
EndSplineSet
Validated: 1
EndChar

StartChar: uni2189
Encoding: 307 8585 307
Width: 2400
Flags: HMW
LayerCount: 2
Fore
SplineSet
100 800 m 1
 100 1600 l 1
 300 1800 l 1
 700 1800 l 1
 900 1600 l 1
 900 800 l 1
 700 600 l 1
 300 600 l 1
 100 800 l 1
300 900 m 1
 400 800 l 1
 600 800 l 1
 675 875 l 1
 300 1250 l 1
 300 900 l 1
325 1525 m 1
 700 1150 l 1
 700 1500 l 1
 600 1600 l 1
 400 1600 l 1
 325 1525 l 1
700 0 m 1
 1500 1600 l 1
 1700 1600 l 1
 900 0 l 1
 700 0 l 1
1500 0 m 1
 1500 100 l 1
 1700 100 l 1
 1800 0 l 1
 2000 0 l 1
 2100 100 l 1
 2100 200 l 1
 2000 300 l 1
 1700 300 l 1
 1700 500 l 1
 2000 500 l 1
 2100 600 l 1
 2100 700 l 1
 2000 800 l 1
 1800 800 l 1
 1700 700 l 1
 1500 700 l 1
 1500 800 l 1
 1700 1000 l 1
 2100 1000 l 1
 2300 800 l 1
 2300 500 l 1
 2200 400 l 1
 2300 300 l 1
 2300 0 l 1
 2100 -200 l 1
 1700 -200 l 1
 1500 0 l 1
EndSplineSet
Validated: 1
EndChar

StartChar: uni218A
Encoding: 308 8586 308
Width: 1200
Flags: HMW
LayerCount: 2
Fore
SplineSet
100 300 m 1
 100 700 l 1
 800 1400 l 1
 100 1400 l 1
 100 1600 l 1
 1100 1600 l 1
 1100 1400 l 1
 300 600 l 1
 300 400 l 1
 500 200 l 1
 700 200 l 1
 900 400 l 1
 1100 400 l 1
 1100 300 l 1
 800 0 l 1
 400 0 l 1
 100 300 l 1
EndSplineSet
Validated: 1
EndChar

StartChar: uni218B
Encoding: 309 8587 309
Width: 1200
Flags: HMW
LayerCount: 2
Fore
SplineSet
100 300 m 1
 100 600 l 1
 300 800 l 1
 100 1000 l 1
 100 1300 l 1
 400 1600 l 1
 800 1600 l 1
 1100 1300 l 1
 1100 1200 l 1
 900 1200 l 1
 700 1400 l 1
 500 1400 l 1
 300 1200 l 1
 300 1100 l 1
 500 900 l 1
 800 900 l 1
 800 700 l 1
 500 700 l 1
 300 500 l 1
 300 400 l 1
 500 200 l 1
 700 200 l 1
 900 400 l 1
 1100 400 l 1
 1100 300 l 1
 800 0 l 1
 400 0 l 1
 100 300 l 1
EndSplineSet
Validated: 1
EndChar

StartChar: uniE100
Encoding: 310 57600 310
Width: 2400
Flags: HMW
LayerCount: 2
Fore
SplineSet
100 800 m 1
 100 1600 l 1
 300 1800 l 1
 700 1800 l 1
 900 1600 l 1
 900 800 l 1
 700 600 l 1
 300 600 l 1
 100 800 l 1
300 900 m 1
 400 800 l 1
 600 800 l 1
 675 875 l 1
 300 1250 l 1
 300 900 l 1
325 1525 m 1
 700 1150 l 1
 700 1500 l 1
 600 1600 l 1
 400 1600 l 1
 325 1525 l 1
700 0 m 1
 1500 1600 l 1
 1700 1600 l 1
 900 0 l 1
 700 0 l 1
1500 0 m 1
 1500 800 l 1
 1700 1000 l 1
 2100 1000 l 1
 2300 800 l 1
 2300 0 l 1
 2100 -200 l 1
 1700 -200 l 1
 1500 0 l 1
1700 100 m 1
 1800 0 l 1
 2000 0 l 1
 2075 75 l 1
 1700 450 l 1
 1700 100 l 1
1725 725 m 1
 2100 350 l 1
 2100 700 l 1
 2000 800 l 1
 1800 800 l 1
 1725 725 l 1
EndSplineSet
Validated: 1
EndChar

StartChar: uniE101
Encoding: 311 57601 311
Width: 2400
Flags: HMW
LayerCount: 2
Fore
SplineSet
100 800 m 1
 100 1600 l 1
 300 1800 l 1
 700 1800 l 1
 900 1600 l 1
 900 800 l 1
 700 600 l 1
 300 600 l 1
 100 800 l 1
300 900 m 1
 400 800 l 1
 600 800 l 1
 675 875 l 1
 300 1250 l 1
 300 900 l 1
325 1525 m 1
 700 1150 l 1
 700 1500 l 1
 600 1600 l 1
 400 1600 l 1
 325 1525 l 1
700 0 m 1
 1500 1600 l 1
 1700 1600 l 1
 900 0 l 1
 700 0 l 1
1500 0 m 1
 1800 0 l 1
 1800 700 l 1
 1700 600 l 1
 1500 600 l 1
 1500 700 l 1
 1800 1000 l 1
 2000 1000 l 1
 2000 0 l 1
 2300 0 l 1
 2300 -200 l 1
 1500 -200 l 1
 1500 0 l 1
EndSplineSet
Validated: 1
EndChar

StartChar: uniE102
Encoding: 312 57602 312
Width: 2400
Flags: HMW
LayerCount: 2
Fore
SplineSet
100 800 m 1
 100 1600 l 1
 300 1800 l 1
 700 1800 l 1
 900 1600 l 1
 900 800 l 1
 700 600 l 1
 300 600 l 1
 100 800 l 1
300 900 m 1
 400 800 l 1
 600 800 l 1
 675 875 l 1
 300 1250 l 1
 300 900 l 1
325 1525 m 1
 700 1150 l 1
 700 1500 l 1
 600 1600 l 1
 400 1600 l 1
 325 1525 l 1
700 0 m 1
 1500 1600 l 1
 1700 1600 l 1
 900 0 l 1
 700 0 l 1
1500 0 m 1
 2100 600 l 1
 2100 700 l 1
 2000 800 l 1
 1800 800 l 1
 1700 700 l 1
 1500 700 l 1
 1500 800 l 1
 1700 1000 l 1
 2100 1000 l 1
 2300 800 l 1
 2300 500 l 1
 1800 0 l 1
 2300 0 l 1
 2300 -200 l 1
 1500 -200 l 1
 1500 0 l 1
EndSplineSet
Validated: 1
EndChar

StartChar: uniE103
Encoding: 313 57603 313
Width: 2400
Flags: HMW
LayerCount: 2
Fore
SplineSet
100 800 m 1
 100 1600 l 1
 300 1800 l 1
 700 1800 l 1
 900 1600 l 1
 900 800 l 1
 700 600 l 1
 300 600 l 1
 100 800 l 1
300 900 m 1
 400 800 l 1
 600 800 l 1
 675 875 l 1
 300 1250 l 1
 300 900 l 1
325 1525 m 1
 700 1150 l 1
 700 1500 l 1
 600 1600 l 1
 400 1600 l 1
 325 1525 l 1
700 0 m 1
 1500 1600 l 1
 1700 1600 l 1
 900 0 l 1
 700 0 l 1
1500 0 m 1
 1500 100 l 1
 1700 100 l 1
 1800 0 l 1
 2000 0 l 1
 2100 100 l 1
 2100 200 l 1
 2000 300 l 1
 1700 300 l 1
 1700 500 l 1
 2000 500 l 1
 2100 600 l 1
 2100 700 l 1
 2000 800 l 1
 1800 800 l 1
 1700 700 l 1
 1500 700 l 1
 1500 800 l 1
 1700 1000 l 1
 2100 1000 l 1
 2300 800 l 1
 2300 500 l 1
 2200 400 l 1
 2300 300 l 1
 2300 0 l 1
 2100 -200 l 1
 1700 -200 l 1
 1500 0 l 1
EndSplineSet
Validated: 1
EndChar

StartChar: uniE104
Encoding: 314 57604 314
Width: 2300
Flags: HMW
LayerCount: 2
Fore
SplineSet
100 800 m 1
 100 1600 l 1
 300 1800 l 1
 700 1800 l 1
 900 1600 l 1
 900 800 l 1
 700 600 l 1
 300 600 l 1
 100 800 l 1
300 900 m 1
 400 800 l 1
 600 800 l 1
 675 875 l 1
 300 1250 l 1
 300 900 l 1
325 1525 m 1
 700 1150 l 1
 700 1500 l 1
 600 1600 l 1
 400 1600 l 1
 325 1525 l 1
700 0 m 1
 1500 1600 l 1
 1700 1600 l 1
 900 0 l 1
 700 0 l 1
1400 100 m 1
 1400 600 l 1
 1800 1000 l 1
 2000 1000 l 1
 2000 300 l 1
 2200 300 l 1
 2200 100 l 1
 2000 100 l 1
 2000 -200 l 1
 1800 -200 l 1
 1800 100 l 1
 1400 100 l 1
1600 300 m 1
 1800 300 l 1
 1800 700 l 1
 1600 500 l 1
 1600 300 l 1
EndSplineSet
Validated: 1
EndChar

StartChar: uniE105
Encoding: 315 57605 315
Width: 2500
Flags: HMW
LayerCount: 2
Fore
SplineSet
100 800 m 1
 100 1600 l 1
 300 1800 l 1
 700 1800 l 1
 900 1600 l 1
 900 800 l 1
 700 600 l 1
 300 600 l 1
 100 800 l 1
300 900 m 1
 400 800 l 1
 600 800 l 1
 675 875 l 1
 300 1250 l 1
 300 900 l 1
325 1525 m 1
 700 1150 l 1
 700 1500 l 1
 600 1600 l 1
 400 1600 l 1
 325 1525 l 1
700 0 m 1
 1500 1600 l 1
 1700 1600 l 1
 900 0 l 1
 700 0 l 1
1600 0 m 1
 1600 100 l 1
 1800 100 l 1
 1900 0 l 1
 2100 0 l 1
 2200 100 l 1
 2200 300 l 1
 2100 400 l 1
 1600 400 l 1
 1600 1000 l 1
 2400 1000 l 1
 2400 800 l 1
 1800 800 l 1
 1800 600 l 1
 2200 600 l 1
 2400 400 l 1
 2400 0 l 1
 2200 -200 l 1
 1800 -200 l 1
 1600 0 l 1
EndSplineSet
Validated: 1
EndChar

StartChar: uniE106
Encoding: 316 57606 316
Width: 2300
Flags: HMW
LayerCount: 2
Fore
SplineSet
100 800 m 1
 100 1600 l 1
 300 1800 l 1
 700 1800 l 1
 900 1600 l 1
 900 800 l 1
 700 600 l 1
 300 600 l 1
 100 800 l 1
300 900 m 1
 400 800 l 1
 600 800 l 1
 675 875 l 1
 300 1250 l 1
 300 900 l 1
325 1525 m 1
 700 1150 l 1
 700 1500 l 1
 600 1600 l 1
 400 1600 l 1
 325 1525 l 1
700 0 m 1
 1500 1600 l 1
 1700 1600 l 1
 900 0 l 1
 700 0 l 1
1400 0 m 1
 1400 600 l 1
 1800 1000 l 1
 2000 1000 l 1
 2000 900 l 1
 1600 500 l 1
 2000 500 l 1
 2200 300 l 1
 2200 0 l 1
 2000 -200 l 1
 1600 -200 l 1
 1400 0 l 1
1600 100 m 1
 1700 0 l 1
 1900 0 l 1
 2000 100 l 1
 2000 200 l 1
 1900 300 l 1
 1600 300 l 1
 1600 100 l 1
EndSplineSet
Validated: 1
EndChar

StartChar: uniE107
Encoding: 317 57607 317
Width: 2500
Flags: HMW
LayerCount: 2
Fore
SplineSet
100 800 m 1
 100 1600 l 1
 300 1800 l 1
 700 1800 l 1
 900 1600 l 1
 900 800 l 1
 700 600 l 1
 300 600 l 1
 100 800 l 1
300 900 m 1
 400 800 l 1
 600 800 l 1
 675 875 l 1
 300 1250 l 1
 300 900 l 1
325 1525 m 1
 700 1150 l 1
 700 1500 l 1
 600 1600 l 1
 400 1600 l 1
 325 1525 l 1
700 0 m 1
 1500 1600 l 1
 1700 1600 l 1
 900 0 l 1
 700 0 l 1
1600 800 m 1
 1600 1000 l 1
 2400 1000 l 1
 2400 400 l 1
 2100 100 l 1
 2100 -200 l 1
 1900 -200 l 1
 1900 200 l 1
 2200 500 l 1
 2200 800 l 1
 1600 800 l 1
EndSplineSet
Validated: 1
EndChar

StartChar: uniE108
Encoding: 318 57608 318
Width: 2400
Flags: HMW
LayerCount: 2
Fore
SplineSet
100 800 m 1
 100 1600 l 1
 300 1800 l 1
 700 1800 l 1
 900 1600 l 1
 900 800 l 1
 700 600 l 1
 300 600 l 1
 100 800 l 1
300 900 m 1
 400 800 l 1
 600 800 l 1
 675 875 l 1
 300 1250 l 1
 300 900 l 1
325 1525 m 1
 700 1150 l 1
 700 1500 l 1
 600 1600 l 1
 400 1600 l 1
 325 1525 l 1
700 0 m 1
 1500 1600 l 1
 1700 1600 l 1
 900 0 l 1
 700 0 l 1
1500 0 m 1
 1500 300 l 1
 1600 400 l 1
 1500 500 l 1
 1500 800 l 1
 1700 1000 l 1
 2100 1000 l 1
 2300 800 l 1
 2300 500 l 1
 2200 400 l 1
 2300 300 l 1
 2300 0 l 1
 2100 -200 l 1
 1700 -200 l 1
 1500 0 l 1
1700 100 m 1
 1800 0 l 1
 2000 0 l 1
 2100 100 l 1
 2100 200 l 1
 2000 300 l 1
 1800 300 l 1
 1700 200 l 1
 1700 100 l 1
1700 600 m 1
 1800 500 l 1
 2000 500 l 1
 2100 600 l 1
 2100 700 l 1
 2000 800 l 1
 1800 800 l 1
 1700 700 l 1
 1700 600 l 1
EndSplineSet
Validated: 1
EndChar

StartChar: uniE109
Encoding: 319 57609 319
Width: 2400
Flags: HMW
LayerCount: 2
Fore
SplineSet
100 800 m 1
 100 1600 l 1
 300 1800 l 1
 700 1800 l 1
 900 1600 l 1
 900 800 l 1
 700 600 l 1
 300 600 l 1
 100 800 l 1
300 900 m 1
 400 800 l 1
 600 800 l 1
 675 875 l 1
 300 1250 l 1
 300 900 l 1
325 1525 m 1
 700 1150 l 1
 700 1500 l 1
 600 1600 l 1
 400 1600 l 1
 325 1525 l 1
700 0 m 1
 1500 1600 l 1
 1700 1600 l 1
 900 0 l 1
 700 0 l 1
1500 500 m 1
 1500 800 l 1
 1700 1000 l 1
 2100 1000 l 1
 2300 800 l 1
 2300 200 l 1
 1900 -200 l 1
 1700 -200 l 1
 1700 -100 l 1
 2100 300 l 1
 1700 300 l 1
 1500 500 l 1
1700 600 m 1
 1800 500 l 1
 2100 500 l 1
 2100 700 l 1
 2000 800 l 1
 1800 800 l 1
 1700 700 l 1
 1700 600 l 1
EndSplineSet
Validated: 1
EndChar

StartChar: uniE110
Encoding: 320 57616 320
Width: 2500
Flags: HMW
LayerCount: 2
Fore
SplineSet
100 600 m 1
 100 800 l 1
 400 800 l 1
 400 1500 l 1
 300 1400 l 1
 100 1400 l 1
 100 1500 l 1
 400 1800 l 1
 600 1800 l 1
 600 800 l 1
 900 800 l 1
 900 600 l 1
 100 600 l 1
800 0 m 1
 1600 1600 l 1
 1800 1600 l 1
 1000 0 l 1
 800 0 l 1
1600 0 m 1
 1600 800 l 1
 1800 1000 l 1
 2200 1000 l 1
 2400 800 l 1
 2400 0 l 1
 2200 -200 l 1
 1800 -200 l 1
 1600 0 l 1
1800 100 m 1
 1900 0 l 1
 2100 0 l 1
 2175 75 l 1
 1800 450 l 1
 1800 100 l 1
1825 725 m 1
 2200 350 l 1
 2200 700 l 1
 2100 800 l 1
 1900 800 l 1
 1825 725 l 1
EndSplineSet
Validated: 1
EndChar

StartChar: uniE111
Encoding: 321 57617 321
Width: 2500
Flags: HMW
LayerCount: 2
Fore
SplineSet
100 600 m 1
 100 800 l 1
 400 800 l 1
 400 1500 l 1
 300 1400 l 1
 100 1400 l 1
 100 1500 l 1
 400 1800 l 1
 600 1800 l 1
 600 800 l 1
 900 800 l 1
 900 600 l 1
 100 600 l 1
800 0 m 1
 1600 1600 l 1
 1800 1600 l 1
 1000 0 l 1
 800 0 l 1
1600 0 m 1
 1900 0 l 1
 1900 700 l 1
 1800 600 l 1
 1600 600 l 1
 1600 700 l 1
 1900 1000 l 1
 2100 1000 l 1
 2100 0 l 1
 2400 0 l 1
 2400 -200 l 1
 1600 -200 l 1
 1600 0 l 1
EndSplineSet
Validated: 1
EndChar

StartChar: uniE112
Encoding: 322 57618 322
Width: 2500
Flags: HMW
LayerCount: 2
Fore
SplineSet
100 600 m 1
 100 800 l 1
 400 800 l 1
 400 1500 l 1
 300 1400 l 1
 100 1400 l 1
 100 1500 l 1
 400 1800 l 1
 600 1800 l 1
 600 800 l 1
 900 800 l 1
 900 600 l 1
 100 600 l 1
800 0 m 1
 1600 1600 l 1
 1800 1600 l 1
 1000 0 l 1
 800 0 l 1
1600 0 m 1
 2200 600 l 1
 2200 700 l 1
 2100 800 l 1
 1900 800 l 1
 1800 700 l 1
 1600 700 l 1
 1600 800 l 1
 1800 1000 l 1
 2200 1000 l 1
 2400 800 l 1
 2400 500 l 1
 1900 0 l 1
 2400 0 l 1
 2400 -200 l 1
 1600 -200 l 1
 1600 0 l 1
EndSplineSet
Validated: 1
EndChar

StartChar: uniE113
Encoding: 323 57619 323
Width: 2500
Flags: HMW
LayerCount: 2
Fore
SplineSet
100 600 m 1
 100 800 l 1
 400 800 l 1
 400 1500 l 1
 300 1400 l 1
 100 1400 l 1
 100 1500 l 1
 400 1800 l 1
 600 1800 l 1
 600 800 l 1
 900 800 l 1
 900 600 l 1
 100 600 l 1
800 0 m 1
 1600 1600 l 1
 1800 1600 l 1
 1000 0 l 1
 800 0 l 1
1600 0 m 1
 1600 100 l 1
 1800 100 l 1
 1900 0 l 1
 2100 0 l 1
 2200 100 l 1
 2200 200 l 1
 2100 300 l 1
 1800 300 l 1
 1800 500 l 1
 2100 500 l 1
 2200 600 l 1
 2200 700 l 1
 2100 800 l 1
 1900 800 l 1
 1800 700 l 1
 1600 700 l 1
 1600 800 l 1
 1800 1000 l 1
 2200 1000 l 1
 2400 800 l 1
 2400 500 l 1
 2300 400 l 1
 2400 300 l 1
 2400 0 l 1
 2200 -200 l 1
 1800 -200 l 1
 1600 0 l 1
EndSplineSet
Validated: 1
EndChar

StartChar: uniE114
Encoding: 324 57620 324
Width: 2400
Flags: HMW
LayerCount: 2
Fore
SplineSet
100 600 m 1
 100 800 l 1
 400 800 l 1
 400 1500 l 1
 300 1400 l 1
 100 1400 l 1
 100 1500 l 1
 400 1800 l 1
 600 1800 l 1
 600 800 l 1
 900 800 l 1
 900 600 l 1
 100 600 l 1
800 0 m 1
 1600 1600 l 1
 1800 1600 l 1
 1000 0 l 1
 800 0 l 1
1500 100 m 1
 1500 600 l 1
 1900 1000 l 1
 2100 1000 l 1
 2100 300 l 1
 2300 300 l 1
 2300 100 l 1
 2100 100 l 1
 2100 -200 l 1
 1900 -200 l 1
 1900 100 l 1
 1500 100 l 1
1700 300 m 1
 1900 300 l 1
 1900 700 l 1
 1700 500 l 1
 1700 300 l 1
EndSplineSet
Validated: 1
EndChar

StartChar: uniE115
Encoding: 325 57621 325
Width: 2600
Flags: HMW
LayerCount: 2
Fore
SplineSet
100 600 m 1
 100 800 l 1
 400 800 l 1
 400 1500 l 1
 300 1400 l 1
 100 1400 l 1
 100 1500 l 1
 400 1800 l 1
 600 1800 l 1
 600 800 l 1
 900 800 l 1
 900 600 l 1
 100 600 l 1
800 0 m 1
 1600 1600 l 1
 1800 1600 l 1
 1000 0 l 1
 800 0 l 1
1700 0 m 1
 1700 100 l 1
 1900 100 l 1
 2000 0 l 1
 2200 0 l 1
 2300 100 l 1
 2300 300 l 1
 2200 400 l 1
 1700 400 l 1
 1700 1000 l 1
 2500 1000 l 1
 2500 800 l 1
 1900 800 l 1
 1900 600 l 1
 2300 600 l 1
 2500 400 l 1
 2500 0 l 1
 2300 -200 l 1
 1900 -200 l 1
 1700 0 l 1
EndSplineSet
Validated: 1
EndChar

StartChar: uniE116
Encoding: 326 57622 326
Width: 2400
Flags: HMW
LayerCount: 2
Fore
SplineSet
100 600 m 1
 100 800 l 1
 400 800 l 1
 400 1500 l 1
 300 1400 l 1
 100 1400 l 1
 100 1500 l 1
 400 1800 l 1
 600 1800 l 1
 600 800 l 1
 900 800 l 1
 900 600 l 1
 100 600 l 1
800 0 m 1
 1600 1600 l 1
 1800 1600 l 1
 1000 0 l 1
 800 0 l 1
1500 0 m 1
 1500 600 l 1
 1900 1000 l 1
 2100 1000 l 1
 2100 900 l 1
 1700 500 l 1
 2100 500 l 1
 2300 300 l 1
 2300 0 l 1
 2100 -200 l 1
 1700 -200 l 1
 1500 0 l 1
1700 100 m 1
 1800 0 l 1
 2000 0 l 1
 2100 100 l 1
 2100 200 l 1
 2000 300 l 1
 1700 300 l 1
 1700 100 l 1
EndSplineSet
Validated: 1
EndChar

StartChar: uniE117
Encoding: 327 57623 327
Width: 2600
Flags: HMW
LayerCount: 2
Fore
SplineSet
100 600 m 1
 100 800 l 1
 400 800 l 1
 400 1500 l 1
 300 1400 l 1
 100 1400 l 1
 100 1500 l 1
 400 1800 l 1
 600 1800 l 1
 600 800 l 1
 900 800 l 1
 900 600 l 1
 100 600 l 1
800 0 m 1
 1600 1600 l 1
 1800 1600 l 1
 1000 0 l 1
 800 0 l 1
1700 800 m 1
 1700 1000 l 1
 2500 1000 l 1
 2500 400 l 1
 2200 100 l 1
 2200 -200 l 1
 2000 -200 l 1
 2000 200 l 1
 2300 500 l 1
 2300 800 l 1
 1700 800 l 1
EndSplineSet
Validated: 1
EndChar

StartChar: uniE118
Encoding: 328 57624 328
Width: 2500
Flags: HMW
LayerCount: 2
Fore
SplineSet
100 600 m 1
 100 800 l 1
 400 800 l 1
 400 1500 l 1
 300 1400 l 1
 100 1400 l 1
 100 1500 l 1
 400 1800 l 1
 600 1800 l 1
 600 800 l 1
 900 800 l 1
 900 600 l 1
 100 600 l 1
800 0 m 1
 1600 1600 l 1
 1800 1600 l 1
 1000 0 l 1
 800 0 l 1
1600 0 m 1
 1600 300 l 1
 1700 400 l 1
 1600 500 l 1
 1600 800 l 1
 1800 1000 l 1
 2200 1000 l 1
 2400 800 l 1
 2400 500 l 1
 2300 400 l 1
 2400 300 l 1
 2400 0 l 1
 2200 -200 l 1
 1800 -200 l 1
 1600 0 l 1
1800 100 m 1
 1900 0 l 1
 2100 0 l 1
 2200 100 l 1
 2200 200 l 1
 2100 300 l 1
 1900 300 l 1
 1800 200 l 1
 1800 100 l 1
1800 600 m 1
 1900 500 l 1
 2100 500 l 1
 2200 600 l 1
 2200 700 l 1
 2100 800 l 1
 1900 800 l 1
 1800 700 l 1
 1800 600 l 1
EndSplineSet
Validated: 1
EndChar

StartChar: uniE119
Encoding: 329 57625 329
Width: 2500
Flags: HMW
LayerCount: 2
Fore
SplineSet
100 600 m 1
 100 800 l 1
 400 800 l 1
 400 1500 l 1
 300 1400 l 1
 100 1400 l 1
 100 1500 l 1
 400 1800 l 1
 600 1800 l 1
 600 800 l 1
 900 800 l 1
 900 600 l 1
 100 600 l 1
800 0 m 1
 1600 1600 l 1
 1800 1600 l 1
 1000 0 l 1
 800 0 l 1
1600 500 m 1
 1600 800 l 1
 1800 1000 l 1
 2200 1000 l 1
 2400 800 l 1
 2400 200 l 1
 2000 -200 l 1
 1800 -200 l 1
 1800 -100 l 1
 2200 300 l 1
 1800 300 l 1
 1600 500 l 1
1800 600 m 1
 1900 500 l 1
 2200 500 l 1
 2200 700 l 1
 2100 800 l 1
 1900 800 l 1
 1800 700 l 1
 1800 600 l 1
EndSplineSet
Validated: 1
EndChar

StartChar: uniE120
Encoding: 330 57632 330
Width: 2500
Flags: HMW
LayerCount: 2
Fore
SplineSet
100 600 m 1
 100 800 l 1
 700 1400 l 1
 700 1500 l 1
 600 1600 l 1
 400 1600 l 1
 300 1500 l 1
 100 1500 l 1
 100 1600 l 1
 300 1800 l 1
 700 1800 l 1
 900 1600 l 1
 900 1300 l 1
 400 800 l 1
 900 800 l 1
 900 600 l 1
 100 600 l 1
800 0 m 1
 1600 1600 l 1
 1800 1600 l 1
 1000 0 l 1
 800 0 l 1
1600 0 m 1
 1600 800 l 1
 1800 1000 l 1
 2200 1000 l 1
 2400 800 l 1
 2400 0 l 1
 2200 -200 l 1
 1800 -200 l 1
 1600 0 l 1
1800 100 m 1
 1900 0 l 1
 2100 0 l 1
 2175 75 l 1
 1800 450 l 1
 1800 100 l 1
1825 725 m 1
 2200 350 l 1
 2200 700 l 1
 2100 800 l 1
 1900 800 l 1
 1825 725 l 1
EndSplineSet
Validated: 1
EndChar

StartChar: uniE121
Encoding: 331 57633 331
Width: 2500
Flags: HMW
LayerCount: 2
Fore
SplineSet
100 600 m 1
 100 800 l 1
 700 1400 l 1
 700 1500 l 1
 600 1600 l 1
 400 1600 l 1
 300 1500 l 1
 100 1500 l 1
 100 1600 l 1
 300 1800 l 1
 700 1800 l 1
 900 1600 l 1
 900 1300 l 1
 400 800 l 1
 900 800 l 1
 900 600 l 1
 100 600 l 1
800 0 m 1
 1600 1600 l 1
 1800 1600 l 1
 1000 0 l 1
 800 0 l 1
1600 0 m 1
 1900 0 l 1
 1900 700 l 1
 1800 600 l 1
 1600 600 l 1
 1600 700 l 1
 1900 1000 l 1
 2100 1000 l 1
 2100 0 l 1
 2400 0 l 1
 2400 -200 l 1
 1600 -200 l 1
 1600 0 l 1
EndSplineSet
Validated: 1
EndChar

StartChar: uniE122
Encoding: 332 57634 332
Width: 2500
Flags: HMW
LayerCount: 2
Fore
SplineSet
100 600 m 1
 100 800 l 1
 700 1400 l 1
 700 1500 l 1
 600 1600 l 1
 400 1600 l 1
 300 1500 l 1
 100 1500 l 1
 100 1600 l 1
 300 1800 l 1
 700 1800 l 1
 900 1600 l 1
 900 1300 l 1
 400 800 l 1
 900 800 l 1
 900 600 l 1
 100 600 l 1
800 0 m 1
 1600 1600 l 1
 1800 1600 l 1
 1000 0 l 1
 800 0 l 1
1600 0 m 1
 2200 600 l 1
 2200 700 l 1
 2100 800 l 1
 1900 800 l 1
 1800 700 l 1
 1600 700 l 1
 1600 800 l 1
 1800 1000 l 1
 2200 1000 l 1
 2400 800 l 1
 2400 500 l 1
 1900 0 l 1
 2400 0 l 1
 2400 -200 l 1
 1600 -200 l 1
 1600 0 l 1
EndSplineSet
Validated: 1
EndChar

StartChar: uniE123
Encoding: 333 57635 333
Width: 2500
Flags: HMW
LayerCount: 2
Fore
SplineSet
100 600 m 1
 100 800 l 1
 700 1400 l 1
 700 1500 l 1
 600 1600 l 1
 400 1600 l 1
 300 1500 l 1
 100 1500 l 1
 100 1600 l 1
 300 1800 l 1
 700 1800 l 1
 900 1600 l 1
 900 1300 l 1
 400 800 l 1
 900 800 l 1
 900 600 l 1
 100 600 l 1
800 0 m 1
 1600 1600 l 1
 1800 1600 l 1
 1000 0 l 1
 800 0 l 1
1600 0 m 1
 1600 100 l 1
 1800 100 l 1
 1900 0 l 1
 2100 0 l 1
 2200 100 l 1
 2200 200 l 1
 2100 300 l 1
 1800 300 l 1
 1800 500 l 1
 2100 500 l 1
 2200 600 l 1
 2200 700 l 1
 2100 800 l 1
 1900 800 l 1
 1800 700 l 1
 1600 700 l 1
 1600 800 l 1
 1800 1000 l 1
 2200 1000 l 1
 2400 800 l 1
 2400 500 l 1
 2300 400 l 1
 2400 300 l 1
 2400 0 l 1
 2200 -200 l 1
 1800 -200 l 1
 1600 0 l 1
EndSplineSet
Validated: 1
EndChar

StartChar: uniE124
Encoding: 334 57636 334
Width: 2400
Flags: HMW
LayerCount: 2
Fore
SplineSet
100 600 m 1
 100 800 l 1
 700 1400 l 1
 700 1500 l 1
 600 1600 l 1
 400 1600 l 1
 300 1500 l 1
 100 1500 l 1
 100 1600 l 1
 300 1800 l 1
 700 1800 l 1
 900 1600 l 1
 900 1300 l 1
 400 800 l 1
 900 800 l 1
 900 600 l 1
 100 600 l 1
800 0 m 1
 1600 1600 l 1
 1800 1600 l 1
 1000 0 l 1
 800 0 l 1
1500 100 m 1
 1500 600 l 1
 1900 1000 l 1
 2100 1000 l 1
 2100 300 l 1
 2300 300 l 1
 2300 100 l 1
 2100 100 l 1
 2100 -200 l 1
 1900 -200 l 1
 1900 100 l 1
 1500 100 l 1
1700 300 m 1
 1900 300 l 1
 1900 700 l 1
 1700 500 l 1
 1700 300 l 1
EndSplineSet
Validated: 1
EndChar

StartChar: uniE125
Encoding: 335 57637 335
Width: 2600
Flags: HMW
LayerCount: 2
Fore
SplineSet
100 600 m 1
 100 800 l 1
 700 1400 l 1
 700 1500 l 1
 600 1600 l 1
 400 1600 l 1
 300 1500 l 1
 100 1500 l 1
 100 1600 l 1
 300 1800 l 1
 700 1800 l 1
 900 1600 l 1
 900 1300 l 1
 400 800 l 1
 900 800 l 1
 900 600 l 1
 100 600 l 1
800 0 m 1
 1600 1600 l 1
 1800 1600 l 1
 1000 0 l 1
 800 0 l 1
1700 0 m 1
 1700 100 l 1
 1900 100 l 1
 2000 0 l 1
 2200 0 l 1
 2300 100 l 1
 2300 300 l 1
 2200 400 l 1
 1700 400 l 1
 1700 1000 l 1
 2500 1000 l 1
 2500 800 l 1
 1900 800 l 1
 1900 600 l 1
 2300 600 l 1
 2500 400 l 1
 2500 0 l 1
 2300 -200 l 1
 1900 -200 l 1
 1700 0 l 1
EndSplineSet
Validated: 1
EndChar

StartChar: uniE126
Encoding: 336 57638 336
Width: 2400
Flags: HMW
LayerCount: 2
Fore
SplineSet
100 600 m 1
 100 800 l 1
 700 1400 l 1
 700 1500 l 1
 600 1600 l 1
 400 1600 l 1
 300 1500 l 1
 100 1500 l 1
 100 1600 l 1
 300 1800 l 1
 700 1800 l 1
 900 1600 l 1
 900 1300 l 1
 400 800 l 1
 900 800 l 1
 900 600 l 1
 100 600 l 1
800 0 m 1
 1600 1600 l 1
 1800 1600 l 1
 1000 0 l 1
 800 0 l 1
1500 0 m 1
 1500 600 l 1
 1900 1000 l 1
 2100 1000 l 1
 2100 900 l 1
 1700 500 l 1
 2100 500 l 1
 2300 300 l 1
 2300 0 l 1
 2100 -200 l 1
 1700 -200 l 1
 1500 0 l 1
1700 100 m 1
 1800 0 l 1
 2000 0 l 1
 2100 100 l 1
 2100 200 l 1
 2000 300 l 1
 1700 300 l 1
 1700 100 l 1
EndSplineSet
Validated: 1
EndChar

StartChar: uniE127
Encoding: 337 57639 337
Width: 2600
Flags: HMW
LayerCount: 2
Fore
SplineSet
100 600 m 1
 100 800 l 1
 700 1400 l 1
 700 1500 l 1
 600 1600 l 1
 400 1600 l 1
 300 1500 l 1
 100 1500 l 1
 100 1600 l 1
 300 1800 l 1
 700 1800 l 1
 900 1600 l 1
 900 1300 l 1
 400 800 l 1
 900 800 l 1
 900 600 l 1
 100 600 l 1
800 0 m 1
 1600 1600 l 1
 1800 1600 l 1
 1000 0 l 1
 800 0 l 1
1700 800 m 1
 1700 1000 l 1
 2500 1000 l 1
 2500 400 l 1
 2200 100 l 1
 2200 -200 l 1
 2000 -200 l 1
 2000 200 l 1
 2300 500 l 1
 2300 800 l 1
 1700 800 l 1
EndSplineSet
Validated: 1
EndChar

StartChar: uniE128
Encoding: 338 57640 338
Width: 2500
Flags: HMW
LayerCount: 2
Fore
SplineSet
100 600 m 1
 100 800 l 1
 700 1400 l 1
 700 1500 l 1
 600 1600 l 1
 400 1600 l 1
 300 1500 l 1
 100 1500 l 1
 100 1600 l 1
 300 1800 l 1
 700 1800 l 1
 900 1600 l 1
 900 1300 l 1
 400 800 l 1
 900 800 l 1
 900 600 l 1
 100 600 l 1
800 0 m 1
 1600 1600 l 1
 1800 1600 l 1
 1000 0 l 1
 800 0 l 1
1600 0 m 1
 1600 300 l 1
 1700 400 l 1
 1600 500 l 1
 1600 800 l 1
 1800 1000 l 1
 2200 1000 l 1
 2400 800 l 1
 2400 500 l 1
 2300 400 l 1
 2400 300 l 1
 2400 0 l 1
 2200 -200 l 1
 1800 -200 l 1
 1600 0 l 1
1800 100 m 1
 1900 0 l 1
 2100 0 l 1
 2200 100 l 1
 2200 200 l 1
 2100 300 l 1
 1900 300 l 1
 1800 200 l 1
 1800 100 l 1
1800 600 m 1
 1900 500 l 1
 2100 500 l 1
 2200 600 l 1
 2200 700 l 1
 2100 800 l 1
 1900 800 l 1
 1800 700 l 1
 1800 600 l 1
EndSplineSet
Validated: 1
EndChar

StartChar: uniE129
Encoding: 339 57641 339
Width: 2500
Flags: HMW
LayerCount: 2
Fore
SplineSet
100 600 m 1
 100 800 l 1
 700 1400 l 1
 700 1500 l 1
 600 1600 l 1
 400 1600 l 1
 300 1500 l 1
 100 1500 l 1
 100 1600 l 1
 300 1800 l 1
 700 1800 l 1
 900 1600 l 1
 900 1300 l 1
 400 800 l 1
 900 800 l 1
 900 600 l 1
 100 600 l 1
800 0 m 1
 1600 1600 l 1
 1800 1600 l 1
 1000 0 l 1
 800 0 l 1
1600 500 m 1
 1600 800 l 1
 1800 1000 l 1
 2200 1000 l 1
 2400 800 l 1
 2400 200 l 1
 2000 -200 l 1
 1800 -200 l 1
 1800 -100 l 1
 2200 300 l 1
 1800 300 l 1
 1600 500 l 1
1800 600 m 1
 1900 500 l 1
 2200 500 l 1
 2200 700 l 1
 2100 800 l 1
 1900 800 l 1
 1800 700 l 1
 1800 600 l 1
EndSplineSet
Validated: 1
EndChar

StartChar: uniE130
Encoding: 340 57648 340
Width: 2400
Flags: HMW
LayerCount: 2
Fore
SplineSet
100 800 m 1
 100 900 l 1
 300 900 l 1
 400 800 l 1
 600 800 l 1
 700 900 l 1
 700 1000 l 1
 600 1100 l 1
 300 1100 l 1
 300 1300 l 1
 600 1300 l 1
 700 1400 l 1
 700 1500 l 1
 600 1600 l 1
 400 1600 l 1
 300 1500 l 1
 100 1500 l 1
 100 1600 l 1
 300 1800 l 1
 700 1800 l 1
 900 1600 l 1
 900 1300 l 1
 800 1200 l 1
 900 1100 l 1
 900 800 l 1
 700 600 l 1
 300 600 l 1
 100 800 l 1
700 0 m 1
 1500 1600 l 1
 1700 1600 l 1
 900 0 l 1
 700 0 l 1
1500 0 m 1
 1500 800 l 1
 1700 1000 l 1
 2100 1000 l 1
 2300 800 l 1
 2300 0 l 1
 2100 -200 l 1
 1700 -200 l 1
 1500 0 l 1
1700 100 m 1
 1800 0 l 1
 2000 0 l 1
 2075 75 l 1
 1700 450 l 1
 1700 100 l 1
1725 725 m 1
 2100 350 l 1
 2100 700 l 1
 2000 800 l 1
 1800 800 l 1
 1725 725 l 1
EndSplineSet
Validated: 1
EndChar

StartChar: uniE131
Encoding: 341 57649 341
Width: 2400
Flags: HMW
LayerCount: 2
Fore
SplineSet
100 800 m 1
 100 900 l 1
 300 900 l 1
 400 800 l 1
 600 800 l 1
 700 900 l 1
 700 1000 l 1
 600 1100 l 1
 300 1100 l 1
 300 1300 l 1
 600 1300 l 1
 700 1400 l 1
 700 1500 l 1
 600 1600 l 1
 400 1600 l 1
 300 1500 l 1
 100 1500 l 1
 100 1600 l 1
 300 1800 l 1
 700 1800 l 1
 900 1600 l 1
 900 1300 l 1
 800 1200 l 1
 900 1100 l 1
 900 800 l 1
 700 600 l 1
 300 600 l 1
 100 800 l 1
700 0 m 1
 1500 1600 l 1
 1700 1600 l 1
 900 0 l 1
 700 0 l 1
1500 0 m 1
 1800 0 l 1
 1800 700 l 1
 1700 600 l 1
 1500 600 l 1
 1500 700 l 1
 1800 1000 l 1
 2000 1000 l 1
 2000 0 l 1
 2300 0 l 1
 2300 -200 l 1
 1500 -200 l 1
 1500 0 l 1
EndSplineSet
Validated: 1
EndChar

StartChar: uniE132
Encoding: 342 57650 342
Width: 2400
Flags: HMW
LayerCount: 2
Fore
SplineSet
100 800 m 1
 100 900 l 1
 300 900 l 1
 400 800 l 1
 600 800 l 1
 700 900 l 1
 700 1000 l 1
 600 1100 l 1
 300 1100 l 1
 300 1300 l 1
 600 1300 l 1
 700 1400 l 1
 700 1500 l 1
 600 1600 l 1
 400 1600 l 1
 300 1500 l 1
 100 1500 l 1
 100 1600 l 1
 300 1800 l 1
 700 1800 l 1
 900 1600 l 1
 900 1300 l 1
 800 1200 l 1
 900 1100 l 1
 900 800 l 1
 700 600 l 1
 300 600 l 1
 100 800 l 1
700 0 m 1
 1500 1600 l 1
 1700 1600 l 1
 900 0 l 1
 700 0 l 1
1500 0 m 1
 2100 600 l 1
 2100 700 l 1
 2000 800 l 1
 1800 800 l 1
 1700 700 l 1
 1500 700 l 1
 1500 800 l 1
 1700 1000 l 1
 2100 1000 l 1
 2300 800 l 1
 2300 500 l 1
 1800 0 l 1
 2300 0 l 1
 2300 -200 l 1
 1500 -200 l 1
 1500 0 l 1
EndSplineSet
Validated: 1
EndChar

StartChar: uniE133
Encoding: 343 57651 343
Width: 2400
Flags: HMW
LayerCount: 2
Fore
SplineSet
100 800 m 1
 100 900 l 1
 300 900 l 1
 400 800 l 1
 600 800 l 1
 700 900 l 1
 700 1000 l 1
 600 1100 l 1
 300 1100 l 1
 300 1300 l 1
 600 1300 l 1
 700 1400 l 1
 700 1500 l 1
 600 1600 l 1
 400 1600 l 1
 300 1500 l 1
 100 1500 l 1
 100 1600 l 1
 300 1800 l 1
 700 1800 l 1
 900 1600 l 1
 900 1300 l 1
 800 1200 l 1
 900 1100 l 1
 900 800 l 1
 700 600 l 1
 300 600 l 1
 100 800 l 1
700 0 m 1
 1500 1600 l 1
 1700 1600 l 1
 900 0 l 1
 700 0 l 1
1500 0 m 1
 1500 100 l 1
 1700 100 l 1
 1800 0 l 1
 2000 0 l 1
 2100 100 l 1
 2100 200 l 1
 2000 300 l 1
 1700 300 l 1
 1700 500 l 1
 2000 500 l 1
 2100 600 l 1
 2100 700 l 1
 2000 800 l 1
 1800 800 l 1
 1700 700 l 1
 1500 700 l 1
 1500 800 l 1
 1700 1000 l 1
 2100 1000 l 1
 2300 800 l 1
 2300 500 l 1
 2200 400 l 1
 2300 300 l 1
 2300 0 l 1
 2100 -200 l 1
 1700 -200 l 1
 1500 0 l 1
EndSplineSet
Validated: 1
EndChar

StartChar: uniE134
Encoding: 344 57652 344
Width: 2300
Flags: HMW
LayerCount: 2
Fore
SplineSet
100 800 m 1
 100 900 l 1
 300 900 l 1
 400 800 l 1
 600 800 l 1
 700 900 l 1
 700 1000 l 1
 600 1100 l 1
 300 1100 l 1
 300 1300 l 1
 600 1300 l 1
 700 1400 l 1
 700 1500 l 1
 600 1600 l 1
 400 1600 l 1
 300 1500 l 1
 100 1500 l 1
 100 1600 l 1
 300 1800 l 1
 700 1800 l 1
 900 1600 l 1
 900 1300 l 1
 800 1200 l 1
 900 1100 l 1
 900 800 l 1
 700 600 l 1
 300 600 l 1
 100 800 l 1
700 0 m 1
 1500 1600 l 1
 1700 1600 l 1
 900 0 l 1
 700 0 l 1
1400 100 m 1
 1400 600 l 1
 1800 1000 l 1
 2000 1000 l 1
 2000 300 l 1
 2200 300 l 1
 2200 100 l 1
 2000 100 l 1
 2000 -200 l 1
 1800 -200 l 1
 1800 100 l 1
 1400 100 l 1
1600 300 m 1
 1800 300 l 1
 1800 700 l 1
 1600 500 l 1
 1600 300 l 1
EndSplineSet
Validated: 1
EndChar

StartChar: uniE135
Encoding: 345 57653 345
Width: 2500
Flags: HMW
LayerCount: 2
Fore
SplineSet
100 800 m 1
 100 900 l 1
 300 900 l 1
 400 800 l 1
 600 800 l 1
 700 900 l 1
 700 1000 l 1
 600 1100 l 1
 300 1100 l 1
 300 1300 l 1
 600 1300 l 1
 700 1400 l 1
 700 1500 l 1
 600 1600 l 1
 400 1600 l 1
 300 1500 l 1
 100 1500 l 1
 100 1600 l 1
 300 1800 l 1
 700 1800 l 1
 900 1600 l 1
 900 1300 l 1
 800 1200 l 1
 900 1100 l 1
 900 800 l 1
 700 600 l 1
 300 600 l 1
 100 800 l 1
700 0 m 1
 1500 1600 l 1
 1700 1600 l 1
 900 0 l 1
 700 0 l 1
1600 0 m 1
 1600 100 l 1
 1800 100 l 1
 1900 0 l 1
 2100 0 l 1
 2200 100 l 1
 2200 300 l 1
 2100 400 l 1
 1600 400 l 1
 1600 1000 l 1
 2400 1000 l 1
 2400 800 l 1
 1800 800 l 1
 1800 600 l 1
 2200 600 l 1
 2400 400 l 1
 2400 0 l 1
 2200 -200 l 1
 1800 -200 l 1
 1600 0 l 1
EndSplineSet
Validated: 1
EndChar

StartChar: uniE136
Encoding: 346 57654 346
Width: 2300
Flags: HMW
LayerCount: 2
Fore
SplineSet
100 800 m 1
 100 900 l 1
 300 900 l 1
 400 800 l 1
 600 800 l 1
 700 900 l 1
 700 1000 l 1
 600 1100 l 1
 300 1100 l 1
 300 1300 l 1
 600 1300 l 1
 700 1400 l 1
 700 1500 l 1
 600 1600 l 1
 400 1600 l 1
 300 1500 l 1
 100 1500 l 1
 100 1600 l 1
 300 1800 l 1
 700 1800 l 1
 900 1600 l 1
 900 1300 l 1
 800 1200 l 1
 900 1100 l 1
 900 800 l 1
 700 600 l 1
 300 600 l 1
 100 800 l 1
700 0 m 1
 1500 1600 l 1
 1700 1600 l 1
 900 0 l 1
 700 0 l 1
1400 0 m 1
 1400 600 l 1
 1800 1000 l 1
 2000 1000 l 1
 2000 900 l 1
 1600 500 l 1
 2000 500 l 1
 2200 300 l 1
 2200 0 l 1
 2000 -200 l 1
 1600 -200 l 1
 1400 0 l 1
1600 100 m 1
 1700 0 l 1
 1900 0 l 1
 2000 100 l 1
 2000 200 l 1
 1900 300 l 1
 1600 300 l 1
 1600 100 l 1
EndSplineSet
Validated: 1
EndChar

StartChar: uniE137
Encoding: 347 57655 347
Width: 2500
Flags: HMW
LayerCount: 2
Fore
SplineSet
100 800 m 1
 100 900 l 1
 300 900 l 1
 400 800 l 1
 600 800 l 1
 700 900 l 1
 700 1000 l 1
 600 1100 l 1
 300 1100 l 1
 300 1300 l 1
 600 1300 l 1
 700 1400 l 1
 700 1500 l 1
 600 1600 l 1
 400 1600 l 1
 300 1500 l 1
 100 1500 l 1
 100 1600 l 1
 300 1800 l 1
 700 1800 l 1
 900 1600 l 1
 900 1300 l 1
 800 1200 l 1
 900 1100 l 1
 900 800 l 1
 700 600 l 1
 300 600 l 1
 100 800 l 1
700 0 m 1
 1500 1600 l 1
 1700 1600 l 1
 900 0 l 1
 700 0 l 1
1600 800 m 1
 1600 1000 l 1
 2400 1000 l 1
 2400 400 l 1
 2100 100 l 1
 2100 -200 l 1
 1900 -200 l 1
 1900 200 l 1
 2200 500 l 1
 2200 800 l 1
 1600 800 l 1
EndSplineSet
Validated: 1
EndChar

StartChar: uniE138
Encoding: 348 57656 348
Width: 2400
Flags: HMW
LayerCount: 2
Fore
SplineSet
100 800 m 1
 100 900 l 1
 300 900 l 1
 400 800 l 1
 600 800 l 1
 700 900 l 1
 700 1000 l 1
 600 1100 l 1
 300 1100 l 1
 300 1300 l 1
 600 1300 l 1
 700 1400 l 1
 700 1500 l 1
 600 1600 l 1
 400 1600 l 1
 300 1500 l 1
 100 1500 l 1
 100 1600 l 1
 300 1800 l 1
 700 1800 l 1
 900 1600 l 1
 900 1300 l 1
 800 1200 l 1
 900 1100 l 1
 900 800 l 1
 700 600 l 1
 300 600 l 1
 100 800 l 1
700 0 m 1
 1500 1600 l 1
 1700 1600 l 1
 900 0 l 1
 700 0 l 1
1500 0 m 1
 1500 300 l 1
 1600 400 l 1
 1500 500 l 1
 1500 800 l 1
 1700 1000 l 1
 2100 1000 l 1
 2300 800 l 1
 2300 500 l 1
 2200 400 l 1
 2300 300 l 1
 2300 0 l 1
 2100 -200 l 1
 1700 -200 l 1
 1500 0 l 1
1700 100 m 1
 1800 0 l 1
 2000 0 l 1
 2100 100 l 1
 2100 200 l 1
 2000 300 l 1
 1800 300 l 1
 1700 200 l 1
 1700 100 l 1
1700 600 m 1
 1800 500 l 1
 2000 500 l 1
 2100 600 l 1
 2100 700 l 1
 2000 800 l 1
 1800 800 l 1
 1700 700 l 1
 1700 600 l 1
EndSplineSet
Validated: 1
EndChar

StartChar: uniE139
Encoding: 349 57657 349
Width: 2400
Flags: HMW
LayerCount: 2
Fore
SplineSet
100 800 m 1
 100 900 l 1
 300 900 l 1
 400 800 l 1
 600 800 l 1
 700 900 l 1
 700 1000 l 1
 600 1100 l 1
 300 1100 l 1
 300 1300 l 1
 600 1300 l 1
 700 1400 l 1
 700 1500 l 1
 600 1600 l 1
 400 1600 l 1
 300 1500 l 1
 100 1500 l 1
 100 1600 l 1
 300 1800 l 1
 700 1800 l 1
 900 1600 l 1
 900 1300 l 1
 800 1200 l 1
 900 1100 l 1
 900 800 l 1
 700 600 l 1
 300 600 l 1
 100 800 l 1
700 0 m 1
 1500 1600 l 1
 1700 1600 l 1
 900 0 l 1
 700 0 l 1
1500 500 m 1
 1500 800 l 1
 1700 1000 l 1
 2100 1000 l 1
 2300 800 l 1
 2300 200 l 1
 1900 -200 l 1
 1700 -200 l 1
 1700 -100 l 1
 2100 300 l 1
 1700 300 l 1
 1500 500 l 1
1700 600 m 1
 1800 500 l 1
 2100 500 l 1
 2100 700 l 1
 2000 800 l 1
 1800 800 l 1
 1700 700 l 1
 1700 600 l 1
EndSplineSet
Validated: 1
EndChar

StartChar: uniE140
Encoding: 350 57664 350
Width: 2400
Flags: HMW
LayerCount: 2
Fore
SplineSet
100 900 m 1
 100 1400 l 1
 500 1800 l 1
 700 1800 l 1
 700 1100 l 1
 900 1100 l 1
 900 900 l 1
 700 900 l 1
 700 600 l 1
 500 600 l 1
 500 900 l 1
 100 900 l 1
300 1100 m 1
 500 1100 l 1
 500 1500 l 1
 300 1300 l 1
 300 1100 l 1
700 0 m 1
 1500 1600 l 1
 1700 1600 l 1
 900 0 l 1
 700 0 l 1
1500 0 m 1
 1500 800 l 1
 1700 1000 l 1
 2100 1000 l 1
 2300 800 l 1
 2300 0 l 1
 2100 -200 l 1
 1700 -200 l 1
 1500 0 l 1
1700 100 m 1
 1800 0 l 1
 2000 0 l 1
 2075 75 l 1
 1700 450 l 1
 1700 100 l 1
1725 725 m 1
 2100 350 l 1
 2100 700 l 1
 2000 800 l 1
 1800 800 l 1
 1725 725 l 1
EndSplineSet
Validated: 1
EndChar

StartChar: uniE141
Encoding: 351 57665 351
Width: 2400
Flags: HMW
LayerCount: 2
Fore
SplineSet
100 900 m 1
 100 1400 l 1
 500 1800 l 1
 700 1800 l 1
 700 1100 l 1
 900 1100 l 1
 900 900 l 1
 700 900 l 1
 700 600 l 1
 500 600 l 1
 500 900 l 1
 100 900 l 1
300 1100 m 1
 500 1100 l 1
 500 1500 l 1
 300 1300 l 1
 300 1100 l 1
700 0 m 1
 1500 1600 l 1
 1700 1600 l 1
 900 0 l 1
 700 0 l 1
1500 0 m 1
 1800 0 l 1
 1800 700 l 1
 1700 600 l 1
 1500 600 l 1
 1500 700 l 1
 1800 1000 l 1
 2000 1000 l 1
 2000 0 l 1
 2300 0 l 1
 2300 -200 l 1
 1500 -200 l 1
 1500 0 l 1
EndSplineSet
Validated: 1
EndChar

StartChar: uniE142
Encoding: 352 57666 352
Width: 2400
Flags: HMW
LayerCount: 2
Fore
SplineSet
100 900 m 1
 100 1400 l 1
 500 1800 l 1
 700 1800 l 1
 700 1100 l 1
 900 1100 l 1
 900 900 l 1
 700 900 l 1
 700 600 l 1
 500 600 l 1
 500 900 l 1
 100 900 l 1
300 1100 m 1
 500 1100 l 1
 500 1500 l 1
 300 1300 l 1
 300 1100 l 1
700 0 m 1
 1500 1600 l 1
 1700 1600 l 1
 900 0 l 1
 700 0 l 1
1500 0 m 1
 2100 600 l 1
 2100 700 l 1
 2000 800 l 1
 1800 800 l 1
 1700 700 l 1
 1500 700 l 1
 1500 800 l 1
 1700 1000 l 1
 2100 1000 l 1
 2300 800 l 1
 2300 500 l 1
 1800 0 l 1
 2300 0 l 1
 2300 -200 l 1
 1500 -200 l 1
 1500 0 l 1
EndSplineSet
Validated: 1
EndChar

StartChar: uniE143
Encoding: 353 57667 353
Width: 2400
Flags: HMW
LayerCount: 2
Fore
SplineSet
100 900 m 1
 100 1400 l 1
 500 1800 l 1
 700 1800 l 1
 700 1100 l 1
 900 1100 l 1
 900 900 l 1
 700 900 l 1
 700 600 l 1
 500 600 l 1
 500 900 l 1
 100 900 l 1
300 1100 m 1
 500 1100 l 1
 500 1500 l 1
 300 1300 l 1
 300 1100 l 1
700 0 m 1
 1500 1600 l 1
 1700 1600 l 1
 900 0 l 1
 700 0 l 1
1500 0 m 1
 1500 100 l 1
 1700 100 l 1
 1800 0 l 1
 2000 0 l 1
 2100 100 l 1
 2100 200 l 1
 2000 300 l 1
 1700 300 l 1
 1700 500 l 1
 2000 500 l 1
 2100 600 l 1
 2100 700 l 1
 2000 800 l 1
 1800 800 l 1
 1700 700 l 1
 1500 700 l 1
 1500 800 l 1
 1700 1000 l 1
 2100 1000 l 1
 2300 800 l 1
 2300 500 l 1
 2200 400 l 1
 2300 300 l 1
 2300 0 l 1
 2100 -200 l 1
 1700 -200 l 1
 1500 0 l 1
EndSplineSet
Validated: 1
EndChar

StartChar: uniE144
Encoding: 354 57668 354
Width: 2300
Flags: HMW
LayerCount: 2
Fore
SplineSet
100 900 m 1
 100 1400 l 1
 500 1800 l 1
 700 1800 l 1
 700 1100 l 1
 900 1100 l 1
 900 900 l 1
 700 900 l 1
 700 600 l 1
 500 600 l 1
 500 900 l 1
 100 900 l 1
300 1100 m 1
 500 1100 l 1
 500 1500 l 1
 300 1300 l 1
 300 1100 l 1
700 0 m 1
 1500 1600 l 1
 1700 1600 l 1
 900 0 l 1
 700 0 l 1
1400 100 m 1
 1400 600 l 1
 1800 1000 l 1
 2000 1000 l 1
 2000 300 l 1
 2200 300 l 1
 2200 100 l 1
 2000 100 l 1
 2000 -200 l 1
 1800 -200 l 1
 1800 100 l 1
 1400 100 l 1
1600 300 m 1
 1800 300 l 1
 1800 700 l 1
 1600 500 l 1
 1600 300 l 1
EndSplineSet
Validated: 1
EndChar

StartChar: uniE145
Encoding: 355 57669 355
Width: 2500
Flags: HMW
LayerCount: 2
Fore
SplineSet
100 900 m 1
 100 1400 l 1
 500 1800 l 1
 700 1800 l 1
 700 1100 l 1
 900 1100 l 1
 900 900 l 1
 700 900 l 1
 700 600 l 1
 500 600 l 1
 500 900 l 1
 100 900 l 1
300 1100 m 1
 500 1100 l 1
 500 1500 l 1
 300 1300 l 1
 300 1100 l 1
700 0 m 1
 1500 1600 l 1
 1700 1600 l 1
 900 0 l 1
 700 0 l 1
1600 0 m 1
 1600 100 l 1
 1800 100 l 1
 1900 0 l 1
 2100 0 l 1
 2200 100 l 1
 2200 300 l 1
 2100 400 l 1
 1600 400 l 1
 1600 1000 l 1
 2400 1000 l 1
 2400 800 l 1
 1800 800 l 1
 1800 600 l 1
 2200 600 l 1
 2400 400 l 1
 2400 0 l 1
 2200 -200 l 1
 1800 -200 l 1
 1600 0 l 1
EndSplineSet
Validated: 1
EndChar

StartChar: uniE146
Encoding: 356 57670 356
Width: 2300
Flags: HMW
LayerCount: 2
Fore
SplineSet
100 900 m 1
 100 1400 l 1
 500 1800 l 1
 700 1800 l 1
 700 1100 l 1
 900 1100 l 1
 900 900 l 1
 700 900 l 1
 700 600 l 1
 500 600 l 1
 500 900 l 1
 100 900 l 1
300 1100 m 1
 500 1100 l 1
 500 1500 l 1
 300 1300 l 1
 300 1100 l 1
700 0 m 1
 1500 1600 l 1
 1700 1600 l 1
 900 0 l 1
 700 0 l 1
1400 0 m 1
 1400 600 l 1
 1800 1000 l 1
 2000 1000 l 1
 2000 900 l 1
 1600 500 l 1
 2000 500 l 1
 2200 300 l 1
 2200 0 l 1
 2000 -200 l 1
 1600 -200 l 1
 1400 0 l 1
1600 100 m 1
 1700 0 l 1
 1900 0 l 1
 2000 100 l 1
 2000 200 l 1
 1900 300 l 1
 1600 300 l 1
 1600 100 l 1
EndSplineSet
Validated: 1
EndChar

StartChar: uniE147
Encoding: 357 57671 357
Width: 2500
Flags: HMW
LayerCount: 2
Fore
SplineSet
100 900 m 1
 100 1400 l 1
 500 1800 l 1
 700 1800 l 1
 700 1100 l 1
 900 1100 l 1
 900 900 l 1
 700 900 l 1
 700 600 l 1
 500 600 l 1
 500 900 l 1
 100 900 l 1
300 1100 m 1
 500 1100 l 1
 500 1500 l 1
 300 1300 l 1
 300 1100 l 1
700 0 m 1
 1500 1600 l 1
 1700 1600 l 1
 900 0 l 1
 700 0 l 1
1600 800 m 1
 1600 1000 l 1
 2400 1000 l 1
 2400 400 l 1
 2100 100 l 1
 2100 -200 l 1
 1900 -200 l 1
 1900 200 l 1
 2200 500 l 1
 2200 800 l 1
 1600 800 l 1
EndSplineSet
Validated: 1
EndChar

StartChar: uniE148
Encoding: 358 57672 358
Width: 2400
Flags: HMW
LayerCount: 2
Fore
SplineSet
100 900 m 1
 100 1400 l 1
 500 1800 l 1
 700 1800 l 1
 700 1100 l 1
 900 1100 l 1
 900 900 l 1
 700 900 l 1
 700 600 l 1
 500 600 l 1
 500 900 l 1
 100 900 l 1
300 1100 m 1
 500 1100 l 1
 500 1500 l 1
 300 1300 l 1
 300 1100 l 1
700 0 m 1
 1500 1600 l 1
 1700 1600 l 1
 900 0 l 1
 700 0 l 1
1500 0 m 1
 1500 300 l 1
 1600 400 l 1
 1500 500 l 1
 1500 800 l 1
 1700 1000 l 1
 2100 1000 l 1
 2300 800 l 1
 2300 500 l 1
 2200 400 l 1
 2300 300 l 1
 2300 0 l 1
 2100 -200 l 1
 1700 -200 l 1
 1500 0 l 1
1700 100 m 1
 1800 0 l 1
 2000 0 l 1
 2100 100 l 1
 2100 200 l 1
 2000 300 l 1
 1800 300 l 1
 1700 200 l 1
 1700 100 l 1
1700 600 m 1
 1800 500 l 1
 2000 500 l 1
 2100 600 l 1
 2100 700 l 1
 2000 800 l 1
 1800 800 l 1
 1700 700 l 1
 1700 600 l 1
EndSplineSet
Validated: 1
EndChar

StartChar: uniE149
Encoding: 359 57673 359
Width: 2400
Flags: HMW
LayerCount: 2
Fore
SplineSet
100 900 m 1
 100 1400 l 1
 500 1800 l 1
 700 1800 l 1
 700 1100 l 1
 900 1100 l 1
 900 900 l 1
 700 900 l 1
 700 600 l 1
 500 600 l 1
 500 900 l 1
 100 900 l 1
300 1100 m 1
 500 1100 l 1
 500 1500 l 1
 300 1300 l 1
 300 1100 l 1
700 0 m 1
 1500 1600 l 1
 1700 1600 l 1
 900 0 l 1
 700 0 l 1
1500 500 m 1
 1500 800 l 1
 1700 1000 l 1
 2100 1000 l 1
 2300 800 l 1
 2300 200 l 1
 1900 -200 l 1
 1700 -200 l 1
 1700 -100 l 1
 2100 300 l 1
 1700 300 l 1
 1500 500 l 1
1700 600 m 1
 1800 500 l 1
 2100 500 l 1
 2100 700 l 1
 2000 800 l 1
 1800 800 l 1
 1700 700 l 1
 1700 600 l 1
EndSplineSet
Validated: 1
EndChar

StartChar: uniE150
Encoding: 360 57680 360
Width: 2400
Flags: HMW
LayerCount: 2
Fore
SplineSet
100 800 m 1
 100 900 l 1
 300 900 l 1
 400 800 l 1
 600 800 l 1
 700 900 l 1
 700 1100 l 1
 600 1200 l 1
 100 1200 l 1
 100 1800 l 1
 900 1800 l 1
 900 1600 l 1
 300 1600 l 1
 300 1400 l 1
 700 1400 l 1
 900 1200 l 1
 900 800 l 1
 700 600 l 1
 300 600 l 1
 100 800 l 1
700 0 m 1
 1500 1600 l 1
 1700 1600 l 1
 900 0 l 1
 700 0 l 1
1500 0 m 1
 1500 800 l 1
 1700 1000 l 1
 2100 1000 l 1
 2300 800 l 1
 2300 0 l 1
 2100 -200 l 1
 1700 -200 l 1
 1500 0 l 1
1700 100 m 1
 1800 0 l 1
 2000 0 l 1
 2075 75 l 1
 1700 450 l 1
 1700 100 l 1
1725 725 m 1
 2100 350 l 1
 2100 700 l 1
 2000 800 l 1
 1800 800 l 1
 1725 725 l 1
EndSplineSet
Validated: 1
EndChar

StartChar: uniE151
Encoding: 361 57681 361
Width: 2400
Flags: HMW
LayerCount: 2
Fore
SplineSet
100 800 m 1
 100 900 l 1
 300 900 l 1
 400 800 l 1
 600 800 l 1
 700 900 l 1
 700 1100 l 1
 600 1200 l 1
 100 1200 l 1
 100 1800 l 1
 900 1800 l 1
 900 1600 l 1
 300 1600 l 1
 300 1400 l 1
 700 1400 l 1
 900 1200 l 1
 900 800 l 1
 700 600 l 1
 300 600 l 1
 100 800 l 1
700 0 m 1
 1500 1600 l 1
 1700 1600 l 1
 900 0 l 1
 700 0 l 1
1500 0 m 1
 1800 0 l 1
 1800 700 l 1
 1700 600 l 1
 1500 600 l 1
 1500 700 l 1
 1800 1000 l 1
 2000 1000 l 1
 2000 0 l 1
 2300 0 l 1
 2300 -200 l 1
 1500 -200 l 1
 1500 0 l 1
EndSplineSet
Validated: 1
EndChar

StartChar: uniE152
Encoding: 362 57682 362
Width: 2400
Flags: HMW
LayerCount: 2
Fore
SplineSet
100 800 m 1
 100 900 l 1
 300 900 l 1
 400 800 l 1
 600 800 l 1
 700 900 l 1
 700 1100 l 1
 600 1200 l 1
 100 1200 l 1
 100 1800 l 1
 900 1800 l 1
 900 1600 l 1
 300 1600 l 1
 300 1400 l 1
 700 1400 l 1
 900 1200 l 1
 900 800 l 1
 700 600 l 1
 300 600 l 1
 100 800 l 1
700 0 m 1
 1500 1600 l 1
 1700 1600 l 1
 900 0 l 1
 700 0 l 1
1500 0 m 1
 2100 600 l 1
 2100 700 l 1
 2000 800 l 1
 1800 800 l 1
 1700 700 l 1
 1500 700 l 1
 1500 800 l 1
 1700 1000 l 1
 2100 1000 l 1
 2300 800 l 1
 2300 500 l 1
 1800 0 l 1
 2300 0 l 1
 2300 -200 l 1
 1500 -200 l 1
 1500 0 l 1
EndSplineSet
Validated: 1
EndChar

StartChar: uniE153
Encoding: 363 57683 363
Width: 2400
Flags: HMW
LayerCount: 2
Fore
SplineSet
100 800 m 1
 100 900 l 1
 300 900 l 1
 400 800 l 1
 600 800 l 1
 700 900 l 1
 700 1100 l 1
 600 1200 l 1
 100 1200 l 1
 100 1800 l 1
 900 1800 l 1
 900 1600 l 1
 300 1600 l 1
 300 1400 l 1
 700 1400 l 1
 900 1200 l 1
 900 800 l 1
 700 600 l 1
 300 600 l 1
 100 800 l 1
700 0 m 1
 1500 1600 l 1
 1700 1600 l 1
 900 0 l 1
 700 0 l 1
1500 0 m 1
 1500 100 l 1
 1700 100 l 1
 1800 0 l 1
 2000 0 l 1
 2100 100 l 1
 2100 200 l 1
 2000 300 l 1
 1700 300 l 1
 1700 500 l 1
 2000 500 l 1
 2100 600 l 1
 2100 700 l 1
 2000 800 l 1
 1800 800 l 1
 1700 700 l 1
 1500 700 l 1
 1500 800 l 1
 1700 1000 l 1
 2100 1000 l 1
 2300 800 l 1
 2300 500 l 1
 2200 400 l 1
 2300 300 l 1
 2300 0 l 1
 2100 -200 l 1
 1700 -200 l 1
 1500 0 l 1
EndSplineSet
Validated: 1
EndChar

StartChar: uniE154
Encoding: 364 57684 364
Width: 2300
Flags: HMW
LayerCount: 2
Fore
SplineSet
100 800 m 1
 100 900 l 1
 300 900 l 1
 400 800 l 1
 600 800 l 1
 700 900 l 1
 700 1100 l 1
 600 1200 l 1
 100 1200 l 1
 100 1800 l 1
 900 1800 l 1
 900 1600 l 1
 300 1600 l 1
 300 1400 l 1
 700 1400 l 1
 900 1200 l 1
 900 800 l 1
 700 600 l 1
 300 600 l 1
 100 800 l 1
700 0 m 1
 1500 1600 l 1
 1700 1600 l 1
 900 0 l 1
 700 0 l 1
1400 100 m 1
 1400 600 l 1
 1800 1000 l 1
 2000 1000 l 1
 2000 300 l 1
 2200 300 l 1
 2200 100 l 1
 2000 100 l 1
 2000 -200 l 1
 1800 -200 l 1
 1800 100 l 1
 1400 100 l 1
1600 300 m 1
 1800 300 l 1
 1800 700 l 1
 1600 500 l 1
 1600 300 l 1
EndSplineSet
Validated: 1
EndChar

StartChar: uniE155
Encoding: 365 57685 365
Width: 2500
Flags: HMW
LayerCount: 2
Fore
SplineSet
100 800 m 1
 100 900 l 1
 300 900 l 1
 400 800 l 1
 600 800 l 1
 700 900 l 1
 700 1100 l 1
 600 1200 l 1
 100 1200 l 1
 100 1800 l 1
 900 1800 l 1
 900 1600 l 1
 300 1600 l 1
 300 1400 l 1
 700 1400 l 1
 900 1200 l 1
 900 800 l 1
 700 600 l 1
 300 600 l 1
 100 800 l 1
700 0 m 1
 1500 1600 l 1
 1700 1600 l 1
 900 0 l 1
 700 0 l 1
1600 0 m 1
 1600 100 l 1
 1800 100 l 1
 1900 0 l 1
 2100 0 l 1
 2200 100 l 1
 2200 300 l 1
 2100 400 l 1
 1600 400 l 1
 1600 1000 l 1
 2400 1000 l 1
 2400 800 l 1
 1800 800 l 1
 1800 600 l 1
 2200 600 l 1
 2400 400 l 1
 2400 0 l 1
 2200 -200 l 1
 1800 -200 l 1
 1600 0 l 1
EndSplineSet
Validated: 1
EndChar

StartChar: uniE156
Encoding: 366 57686 366
Width: 2300
Flags: HMW
LayerCount: 2
Fore
SplineSet
100 800 m 1
 100 900 l 1
 300 900 l 1
 400 800 l 1
 600 800 l 1
 700 900 l 1
 700 1100 l 1
 600 1200 l 1
 100 1200 l 1
 100 1800 l 1
 900 1800 l 1
 900 1600 l 1
 300 1600 l 1
 300 1400 l 1
 700 1400 l 1
 900 1200 l 1
 900 800 l 1
 700 600 l 1
 300 600 l 1
 100 800 l 1
700 0 m 1
 1500 1600 l 1
 1700 1600 l 1
 900 0 l 1
 700 0 l 1
1400 0 m 1
 1400 600 l 1
 1800 1000 l 1
 2000 1000 l 1
 2000 900 l 1
 1600 500 l 1
 2000 500 l 1
 2200 300 l 1
 2200 0 l 1
 2000 -200 l 1
 1600 -200 l 1
 1400 0 l 1
1600 100 m 1
 1700 0 l 1
 1900 0 l 1
 2000 100 l 1
 2000 200 l 1
 1900 300 l 1
 1600 300 l 1
 1600 100 l 1
EndSplineSet
Validated: 1
EndChar

StartChar: uniE157
Encoding: 367 57687 367
Width: 2500
Flags: HMW
LayerCount: 2
Fore
SplineSet
100 800 m 1
 100 900 l 1
 300 900 l 1
 400 800 l 1
 600 800 l 1
 700 900 l 1
 700 1100 l 1
 600 1200 l 1
 100 1200 l 1
 100 1800 l 1
 900 1800 l 1
 900 1600 l 1
 300 1600 l 1
 300 1400 l 1
 700 1400 l 1
 900 1200 l 1
 900 800 l 1
 700 600 l 1
 300 600 l 1
 100 800 l 1
700 0 m 1
 1500 1600 l 1
 1700 1600 l 1
 900 0 l 1
 700 0 l 1
1600 800 m 1
 1600 1000 l 1
 2400 1000 l 1
 2400 400 l 1
 2100 100 l 1
 2100 -200 l 1
 1900 -200 l 1
 1900 200 l 1
 2200 500 l 1
 2200 800 l 1
 1600 800 l 1
EndSplineSet
Validated: 1
EndChar

StartChar: uniE158
Encoding: 368 57688 368
Width: 2400
Flags: HMW
LayerCount: 2
Fore
SplineSet
100 800 m 1
 100 900 l 1
 300 900 l 1
 400 800 l 1
 600 800 l 1
 700 900 l 1
 700 1100 l 1
 600 1200 l 1
 100 1200 l 1
 100 1800 l 1
 900 1800 l 1
 900 1600 l 1
 300 1600 l 1
 300 1400 l 1
 700 1400 l 1
 900 1200 l 1
 900 800 l 1
 700 600 l 1
 300 600 l 1
 100 800 l 1
700 0 m 1
 1500 1600 l 1
 1700 1600 l 1
 900 0 l 1
 700 0 l 1
1500 0 m 1
 1500 300 l 1
 1600 400 l 1
 1500 500 l 1
 1500 800 l 1
 1700 1000 l 1
 2100 1000 l 1
 2300 800 l 1
 2300 500 l 1
 2200 400 l 1
 2300 300 l 1
 2300 0 l 1
 2100 -200 l 1
 1700 -200 l 1
 1500 0 l 1
1700 100 m 1
 1800 0 l 1
 2000 0 l 1
 2100 100 l 1
 2100 200 l 1
 2000 300 l 1
 1800 300 l 1
 1700 200 l 1
 1700 100 l 1
1700 600 m 1
 1800 500 l 1
 2000 500 l 1
 2100 600 l 1
 2100 700 l 1
 2000 800 l 1
 1800 800 l 1
 1700 700 l 1
 1700 600 l 1
EndSplineSet
Validated: 1
EndChar

StartChar: uniE159
Encoding: 369 57689 369
Width: 2400
Flags: HMW
LayerCount: 2
Fore
SplineSet
100 800 m 1
 100 900 l 1
 300 900 l 1
 400 800 l 1
 600 800 l 1
 700 900 l 1
 700 1100 l 1
 600 1200 l 1
 100 1200 l 1
 100 1800 l 1
 900 1800 l 1
 900 1600 l 1
 300 1600 l 1
 300 1400 l 1
 700 1400 l 1
 900 1200 l 1
 900 800 l 1
 700 600 l 1
 300 600 l 1
 100 800 l 1
700 0 m 1
 1500 1600 l 1
 1700 1600 l 1
 900 0 l 1
 700 0 l 1
1500 500 m 1
 1500 800 l 1
 1700 1000 l 1
 2100 1000 l 1
 2300 800 l 1
 2300 200 l 1
 1900 -200 l 1
 1700 -200 l 1
 1700 -100 l 1
 2100 300 l 1
 1700 300 l 1
 1500 500 l 1
1700 600 m 1
 1800 500 l 1
 2100 500 l 1
 2100 700 l 1
 2000 800 l 1
 1800 800 l 1
 1700 700 l 1
 1700 600 l 1
EndSplineSet
Validated: 1
EndChar

StartChar: uniE160
Encoding: 370 57696 370
Width: 2400
Flags: HMW
LayerCount: 2
Fore
SplineSet
100 800 m 1
 100 1400 l 1
 500 1800 l 1
 700 1800 l 1
 700 1700 l 1
 300 1300 l 1
 700 1300 l 1
 900 1100 l 1
 900 800 l 1
 700 600 l 1
 300 600 l 1
 100 800 l 1
300 900 m 1
 400 800 l 1
 600 800 l 1
 700 900 l 1
 700 1000 l 1
 600 1100 l 1
 300 1100 l 1
 300 900 l 1
700 0 m 1
 1500 1600 l 1
 1700 1600 l 1
 900 0 l 1
 700 0 l 1
1500 0 m 1
 1500 800 l 1
 1700 1000 l 1
 2100 1000 l 1
 2300 800 l 1
 2300 0 l 1
 2100 -200 l 1
 1700 -200 l 1
 1500 0 l 1
1700 100 m 1
 1800 0 l 1
 2000 0 l 1
 2075 75 l 1
 1700 450 l 1
 1700 100 l 1
1725 725 m 1
 2100 350 l 1
 2100 700 l 1
 2000 800 l 1
 1800 800 l 1
 1725 725 l 1
EndSplineSet
Validated: 1
EndChar

StartChar: uniE161
Encoding: 371 57697 371
Width: 2400
Flags: HMW
LayerCount: 2
Fore
SplineSet
100 800 m 1
 100 1400 l 1
 500 1800 l 1
 700 1800 l 1
 700 1700 l 1
 300 1300 l 1
 700 1300 l 1
 900 1100 l 1
 900 800 l 1
 700 600 l 1
 300 600 l 1
 100 800 l 1
300 900 m 1
 400 800 l 1
 600 800 l 1
 700 900 l 1
 700 1000 l 1
 600 1100 l 1
 300 1100 l 1
 300 900 l 1
700 0 m 1
 1500 1600 l 1
 1700 1600 l 1
 900 0 l 1
 700 0 l 1
1500 0 m 1
 1800 0 l 1
 1800 700 l 1
 1700 600 l 1
 1500 600 l 1
 1500 700 l 1
 1800 1000 l 1
 2000 1000 l 1
 2000 0 l 1
 2300 0 l 1
 2300 -200 l 1
 1500 -200 l 1
 1500 0 l 1
EndSplineSet
Validated: 1
EndChar

StartChar: uniE162
Encoding: 372 57698 372
Width: 2400
Flags: HMW
LayerCount: 2
Fore
SplineSet
100 800 m 1
 100 1400 l 1
 500 1800 l 1
 700 1800 l 1
 700 1700 l 1
 300 1300 l 1
 700 1300 l 1
 900 1100 l 1
 900 800 l 1
 700 600 l 1
 300 600 l 1
 100 800 l 1
300 900 m 1
 400 800 l 1
 600 800 l 1
 700 900 l 1
 700 1000 l 1
 600 1100 l 1
 300 1100 l 1
 300 900 l 1
700 0 m 1
 1500 1600 l 1
 1700 1600 l 1
 900 0 l 1
 700 0 l 1
1500 0 m 1
 2100 600 l 1
 2100 700 l 1
 2000 800 l 1
 1800 800 l 1
 1700 700 l 1
 1500 700 l 1
 1500 800 l 1
 1700 1000 l 1
 2100 1000 l 1
 2300 800 l 1
 2300 500 l 1
 1800 0 l 1
 2300 0 l 1
 2300 -200 l 1
 1500 -200 l 1
 1500 0 l 1
EndSplineSet
Validated: 1
EndChar

StartChar: uniE163
Encoding: 373 57699 373
Width: 2400
Flags: HMW
LayerCount: 2
Fore
SplineSet
100 800 m 1
 100 1400 l 1
 500 1800 l 1
 700 1800 l 1
 700 1700 l 1
 300 1300 l 1
 700 1300 l 1
 900 1100 l 1
 900 800 l 1
 700 600 l 1
 300 600 l 1
 100 800 l 1
300 900 m 1
 400 800 l 1
 600 800 l 1
 700 900 l 1
 700 1000 l 1
 600 1100 l 1
 300 1100 l 1
 300 900 l 1
700 0 m 1
 1500 1600 l 1
 1700 1600 l 1
 900 0 l 1
 700 0 l 1
1500 0 m 1
 1500 100 l 1
 1700 100 l 1
 1800 0 l 1
 2000 0 l 1
 2100 100 l 1
 2100 200 l 1
 2000 300 l 1
 1700 300 l 1
 1700 500 l 1
 2000 500 l 1
 2100 600 l 1
 2100 700 l 1
 2000 800 l 1
 1800 800 l 1
 1700 700 l 1
 1500 700 l 1
 1500 800 l 1
 1700 1000 l 1
 2100 1000 l 1
 2300 800 l 1
 2300 500 l 1
 2200 400 l 1
 2300 300 l 1
 2300 0 l 1
 2100 -200 l 1
 1700 -200 l 1
 1500 0 l 1
EndSplineSet
Validated: 1
EndChar

StartChar: uniE164
Encoding: 374 57700 374
Width: 2300
Flags: HMW
LayerCount: 2
Fore
SplineSet
100 800 m 1
 100 1400 l 1
 500 1800 l 1
 700 1800 l 1
 700 1700 l 1
 300 1300 l 1
 700 1300 l 1
 900 1100 l 1
 900 800 l 1
 700 600 l 1
 300 600 l 1
 100 800 l 1
300 900 m 1
 400 800 l 1
 600 800 l 1
 700 900 l 1
 700 1000 l 1
 600 1100 l 1
 300 1100 l 1
 300 900 l 1
700 0 m 1
 1500 1600 l 1
 1700 1600 l 1
 900 0 l 1
 700 0 l 1
1400 100 m 1
 1400 600 l 1
 1800 1000 l 1
 2000 1000 l 1
 2000 300 l 1
 2200 300 l 1
 2200 100 l 1
 2000 100 l 1
 2000 -200 l 1
 1800 -200 l 1
 1800 100 l 1
 1400 100 l 1
1600 300 m 1
 1800 300 l 1
 1800 700 l 1
 1600 500 l 1
 1600 300 l 1
EndSplineSet
Validated: 1
EndChar

StartChar: uniE165
Encoding: 375 57701 375
Width: 2500
Flags: HMW
LayerCount: 2
Fore
SplineSet
100 800 m 1
 100 1400 l 1
 500 1800 l 1
 700 1800 l 1
 700 1700 l 1
 300 1300 l 1
 700 1300 l 1
 900 1100 l 1
 900 800 l 1
 700 600 l 1
 300 600 l 1
 100 800 l 1
300 900 m 1
 400 800 l 1
 600 800 l 1
 700 900 l 1
 700 1000 l 1
 600 1100 l 1
 300 1100 l 1
 300 900 l 1
700 0 m 1
 1500 1600 l 1
 1700 1600 l 1
 900 0 l 1
 700 0 l 1
1600 0 m 1
 1600 100 l 1
 1800 100 l 1
 1900 0 l 1
 2100 0 l 1
 2200 100 l 1
 2200 300 l 1
 2100 400 l 1
 1600 400 l 1
 1600 1000 l 1
 2400 1000 l 1
 2400 800 l 1
 1800 800 l 1
 1800 600 l 1
 2200 600 l 1
 2400 400 l 1
 2400 0 l 1
 2200 -200 l 1
 1800 -200 l 1
 1600 0 l 1
EndSplineSet
Validated: 1
EndChar

StartChar: uniE166
Encoding: 376 57702 376
Width: 2300
Flags: HMW
LayerCount: 2
Fore
SplineSet
100 800 m 1
 100 1400 l 1
 500 1800 l 1
 700 1800 l 1
 700 1700 l 1
 300 1300 l 1
 700 1300 l 1
 900 1100 l 1
 900 800 l 1
 700 600 l 1
 300 600 l 1
 100 800 l 1
300 900 m 1
 400 800 l 1
 600 800 l 1
 700 900 l 1
 700 1000 l 1
 600 1100 l 1
 300 1100 l 1
 300 900 l 1
700 0 m 1
 1500 1600 l 1
 1700 1600 l 1
 900 0 l 1
 700 0 l 1
1400 0 m 1
 1400 600 l 1
 1800 1000 l 1
 2000 1000 l 1
 2000 900 l 1
 1600 500 l 1
 2000 500 l 1
 2200 300 l 1
 2200 0 l 1
 2000 -200 l 1
 1600 -200 l 1
 1400 0 l 1
1600 100 m 1
 1700 0 l 1
 1900 0 l 1
 2000 100 l 1
 2000 200 l 1
 1900 300 l 1
 1600 300 l 1
 1600 100 l 1
EndSplineSet
Validated: 1
EndChar

StartChar: uniE167
Encoding: 377 57703 377
Width: 2500
Flags: HMW
LayerCount: 2
Fore
SplineSet
100 800 m 1
 100 1400 l 1
 500 1800 l 1
 700 1800 l 1
 700 1700 l 1
 300 1300 l 1
 700 1300 l 1
 900 1100 l 1
 900 800 l 1
 700 600 l 1
 300 600 l 1
 100 800 l 1
300 900 m 1
 400 800 l 1
 600 800 l 1
 700 900 l 1
 700 1000 l 1
 600 1100 l 1
 300 1100 l 1
 300 900 l 1
700 0 m 1
 1500 1600 l 1
 1700 1600 l 1
 900 0 l 1
 700 0 l 1
1600 800 m 1
 1600 1000 l 1
 2400 1000 l 1
 2400 400 l 1
 2100 100 l 1
 2100 -200 l 1
 1900 -200 l 1
 1900 200 l 1
 2200 500 l 1
 2200 800 l 1
 1600 800 l 1
EndSplineSet
Validated: 1
EndChar

StartChar: uniE168
Encoding: 378 57704 378
Width: 2400
Flags: HMW
LayerCount: 2
Fore
SplineSet
100 800 m 1
 100 1400 l 1
 500 1800 l 1
 700 1800 l 1
 700 1700 l 1
 300 1300 l 1
 700 1300 l 1
 900 1100 l 1
 900 800 l 1
 700 600 l 1
 300 600 l 1
 100 800 l 1
300 900 m 1
 400 800 l 1
 600 800 l 1
 700 900 l 1
 700 1000 l 1
 600 1100 l 1
 300 1100 l 1
 300 900 l 1
700 0 m 1
 1500 1600 l 1
 1700 1600 l 1
 900 0 l 1
 700 0 l 1
1500 0 m 1
 1500 300 l 1
 1600 400 l 1
 1500 500 l 1
 1500 800 l 1
 1700 1000 l 1
 2100 1000 l 1
 2300 800 l 1
 2300 500 l 1
 2200 400 l 1
 2300 300 l 1
 2300 0 l 1
 2100 -200 l 1
 1700 -200 l 1
 1500 0 l 1
1700 100 m 1
 1800 0 l 1
 2000 0 l 1
 2100 100 l 1
 2100 200 l 1
 2000 300 l 1
 1800 300 l 1
 1700 200 l 1
 1700 100 l 1
1700 600 m 1
 1800 500 l 1
 2000 500 l 1
 2100 600 l 1
 2100 700 l 1
 2000 800 l 1
 1800 800 l 1
 1700 700 l 1
 1700 600 l 1
EndSplineSet
Validated: 1
EndChar

StartChar: uniE169
Encoding: 379 57705 379
Width: 2400
Flags: HMW
LayerCount: 2
Fore
SplineSet
100 800 m 1
 100 1400 l 1
 500 1800 l 1
 700 1800 l 1
 700 1700 l 1
 300 1300 l 1
 700 1300 l 1
 900 1100 l 1
 900 800 l 1
 700 600 l 1
 300 600 l 1
 100 800 l 1
300 900 m 1
 400 800 l 1
 600 800 l 1
 700 900 l 1
 700 1000 l 1
 600 1100 l 1
 300 1100 l 1
 300 900 l 1
700 0 m 1
 1500 1600 l 1
 1700 1600 l 1
 900 0 l 1
 700 0 l 1
1500 500 m 1
 1500 800 l 1
 1700 1000 l 1
 2100 1000 l 1
 2300 800 l 1
 2300 200 l 1
 1900 -200 l 1
 1700 -200 l 1
 1700 -100 l 1
 2100 300 l 1
 1700 300 l 1
 1500 500 l 1
1700 600 m 1
 1800 500 l 1
 2100 500 l 1
 2100 700 l 1
 2000 800 l 1
 1800 800 l 1
 1700 700 l 1
 1700 600 l 1
EndSplineSet
Validated: 1
EndChar

StartChar: uniE170
Encoding: 380 57712 380
Width: 2200
Flags: HMW
LayerCount: 2
Fore
SplineSet
100 1600 m 1
 100 1800 l 1
 900 1800 l 1
 900 1200 l 1
 600 900 l 1
 600 600 l 1
 400 600 l 1
 400 1000 l 1
 700 1300 l 1
 700 1600 l 1
 100 1600 l 1
500 0 m 1
 1300 1600 l 1
 1500 1600 l 1
 700 0 l 1
 500 0 l 1
1300 0 m 1
 1300 800 l 1
 1500 1000 l 1
 1900 1000 l 1
 2100 800 l 1
 2100 0 l 1
 1900 -200 l 1
 1500 -200 l 1
 1300 0 l 1
1500 100 m 1
 1600 0 l 1
 1800 0 l 1
 1875 75 l 1
 1500 450 l 1
 1500 100 l 1
1525 725 m 1
 1900 350 l 1
 1900 700 l 1
 1800 800 l 1
 1600 800 l 1
 1525 725 l 1
EndSplineSet
Validated: 1
EndChar

StartChar: uniE171
Encoding: 381 57713 381
Width: 2200
Flags: HMW
LayerCount: 2
Fore
SplineSet
100 1600 m 1
 100 1800 l 1
 900 1800 l 1
 900 1200 l 1
 600 900 l 1
 600 600 l 1
 400 600 l 1
 400 1000 l 1
 700 1300 l 1
 700 1600 l 1
 100 1600 l 1
500 0 m 1
 1300 1600 l 1
 1500 1600 l 1
 700 0 l 1
 500 0 l 1
1300 0 m 1
 1600 0 l 1
 1600 700 l 1
 1500 600 l 1
 1300 600 l 1
 1300 700 l 1
 1600 1000 l 1
 1800 1000 l 1
 1800 0 l 1
 2100 0 l 1
 2100 -200 l 1
 1300 -200 l 1
 1300 0 l 1
EndSplineSet
Validated: 1
EndChar

StartChar: uniE172
Encoding: 382 57714 382
Width: 2200
Flags: HMW
LayerCount: 2
Fore
SplineSet
100 1600 m 1
 100 1800 l 1
 900 1800 l 1
 900 1200 l 1
 600 900 l 1
 600 600 l 1
 400 600 l 1
 400 1000 l 1
 700 1300 l 1
 700 1600 l 1
 100 1600 l 1
500 0 m 1
 1300 1600 l 1
 1500 1600 l 1
 700 0 l 1
 500 0 l 1
1300 0 m 1
 1900 600 l 1
 1900 700 l 1
 1800 800 l 1
 1600 800 l 1
 1500 700 l 1
 1300 700 l 1
 1300 800 l 1
 1500 1000 l 1
 1900 1000 l 1
 2100 800 l 1
 2100 500 l 1
 1600 0 l 1
 2100 0 l 1
 2100 -200 l 1
 1300 -200 l 1
 1300 0 l 1
EndSplineSet
Validated: 1
EndChar

StartChar: uniE173
Encoding: 383 57715 383
Width: 2200
Flags: HMW
LayerCount: 2
Fore
SplineSet
100 1600 m 1
 100 1800 l 1
 900 1800 l 1
 900 1200 l 1
 600 900 l 1
 600 600 l 1
 400 600 l 1
 400 1000 l 1
 700 1300 l 1
 700 1600 l 1
 100 1600 l 1
500 0 m 1
 1300 1600 l 1
 1500 1600 l 1
 700 0 l 1
 500 0 l 1
1300 0 m 1
 1300 100 l 1
 1500 100 l 1
 1600 0 l 1
 1800 0 l 1
 1900 100 l 1
 1900 200 l 1
 1800 300 l 1
 1500 300 l 1
 1500 500 l 1
 1800 500 l 1
 1900 600 l 1
 1900 700 l 1
 1800 800 l 1
 1600 800 l 1
 1500 700 l 1
 1300 700 l 1
 1300 800 l 1
 1500 1000 l 1
 1900 1000 l 1
 2100 800 l 1
 2100 500 l 1
 2000 400 l 1
 2100 300 l 1
 2100 0 l 1
 1900 -200 l 1
 1500 -200 l 1
 1300 0 l 1
EndSplineSet
Validated: 1
EndChar

StartChar: uniE174
Encoding: 384 57716 384
Width: 2100
Flags: HMW
LayerCount: 2
Fore
SplineSet
100 1600 m 1
 100 1800 l 1
 900 1800 l 1
 900 1200 l 1
 600 900 l 1
 600 600 l 1
 400 600 l 1
 400 1000 l 1
 700 1300 l 1
 700 1600 l 1
 100 1600 l 1
500 0 m 1
 1300 1600 l 1
 1500 1600 l 1
 700 0 l 1
 500 0 l 1
1200 100 m 1
 1200 600 l 1
 1600 1000 l 1
 1800 1000 l 1
 1800 300 l 1
 2000 300 l 1
 2000 100 l 1
 1800 100 l 1
 1800 -200 l 1
 1600 -200 l 1
 1600 100 l 1
 1200 100 l 1
1400 300 m 1
 1600 300 l 1
 1600 700 l 1
 1400 500 l 1
 1400 300 l 1
EndSplineSet
Validated: 1
EndChar

StartChar: uniE175
Encoding: 385 57717 385
Width: 2300
Flags: HMW
LayerCount: 2
Fore
SplineSet
100 1600 m 1
 100 1800 l 1
 900 1800 l 1
 900 1200 l 1
 600 900 l 1
 600 600 l 1
 400 600 l 1
 400 1000 l 1
 700 1300 l 1
 700 1600 l 1
 100 1600 l 1
500 0 m 1
 1300 1600 l 1
 1500 1600 l 1
 700 0 l 1
 500 0 l 1
1400 0 m 1
 1400 100 l 1
 1600 100 l 1
 1700 0 l 1
 1900 0 l 1
 2000 100 l 1
 2000 300 l 1
 1900 400 l 1
 1400 400 l 1
 1400 1000 l 1
 2200 1000 l 1
 2200 800 l 1
 1600 800 l 1
 1600 600 l 1
 2000 600 l 1
 2200 400 l 1
 2200 0 l 1
 2000 -200 l 1
 1600 -200 l 1
 1400 0 l 1
EndSplineSet
Validated: 1
EndChar

StartChar: uniE176
Encoding: 386 57718 386
Width: 2100
Flags: HMW
LayerCount: 2
Fore
SplineSet
100 1600 m 1
 100 1800 l 1
 900 1800 l 1
 900 1200 l 1
 600 900 l 1
 600 600 l 1
 400 600 l 1
 400 1000 l 1
 700 1300 l 1
 700 1600 l 1
 100 1600 l 1
500 0 m 1
 1300 1600 l 1
 1500 1600 l 1
 700 0 l 1
 500 0 l 1
1200 0 m 1
 1200 600 l 1
 1600 1000 l 1
 1800 1000 l 1
 1800 900 l 1
 1400 500 l 1
 1800 500 l 1
 2000 300 l 1
 2000 0 l 1
 1800 -200 l 1
 1400 -200 l 1
 1200 0 l 1
1400 100 m 1
 1500 0 l 1
 1700 0 l 1
 1800 100 l 1
 1800 200 l 1
 1700 300 l 1
 1400 300 l 1
 1400 100 l 1
EndSplineSet
Validated: 1
EndChar

StartChar: uniE177
Encoding: 387 57719 387
Width: 2300
Flags: HMW
LayerCount: 2
Fore
SplineSet
100 1600 m 1
 100 1800 l 1
 900 1800 l 1
 900 1200 l 1
 600 900 l 1
 600 600 l 1
 400 600 l 1
 400 1000 l 1
 700 1300 l 1
 700 1600 l 1
 100 1600 l 1
500 0 m 1
 1300 1600 l 1
 1500 1600 l 1
 700 0 l 1
 500 0 l 1
1400 800 m 1
 1400 1000 l 1
 2200 1000 l 1
 2200 400 l 1
 1900 100 l 1
 1900 -200 l 1
 1700 -200 l 1
 1700 200 l 1
 2000 500 l 1
 2000 800 l 1
 1400 800 l 1
EndSplineSet
Validated: 1
EndChar

StartChar: uniE178
Encoding: 388 57720 388
Width: 2200
Flags: HMW
LayerCount: 2
Fore
SplineSet
100 1600 m 1
 100 1800 l 1
 900 1800 l 1
 900 1200 l 1
 600 900 l 1
 600 600 l 1
 400 600 l 1
 400 1000 l 1
 700 1300 l 1
 700 1600 l 1
 100 1600 l 1
500 0 m 1
 1300 1600 l 1
 1500 1600 l 1
 700 0 l 1
 500 0 l 1
1300 0 m 1
 1300 300 l 1
 1400 400 l 1
 1300 500 l 1
 1300 800 l 1
 1500 1000 l 1
 1900 1000 l 1
 2100 800 l 1
 2100 500 l 1
 2000 400 l 1
 2100 300 l 1
 2100 0 l 1
 1900 -200 l 1
 1500 -200 l 1
 1300 0 l 1
1500 100 m 1
 1600 0 l 1
 1800 0 l 1
 1900 100 l 1
 1900 200 l 1
 1800 300 l 1
 1600 300 l 1
 1500 200 l 1
 1500 100 l 1
1500 600 m 1
 1600 500 l 1
 1800 500 l 1
 1900 600 l 1
 1900 700 l 1
 1800 800 l 1
 1600 800 l 1
 1500 700 l 1
 1500 600 l 1
EndSplineSet
Validated: 1
EndChar

StartChar: uniE179
Encoding: 389 57721 389
Width: 2200
Flags: HMW
LayerCount: 2
Fore
SplineSet
100 1600 m 1
 100 1800 l 1
 900 1800 l 1
 900 1200 l 1
 600 900 l 1
 600 600 l 1
 400 600 l 1
 400 1000 l 1
 700 1300 l 1
 700 1600 l 1
 100 1600 l 1
500 0 m 1
 1300 1600 l 1
 1500 1600 l 1
 700 0 l 1
 500 0 l 1
1300 500 m 1
 1300 800 l 1
 1500 1000 l 1
 1900 1000 l 1
 2100 800 l 1
 2100 200 l 1
 1700 -200 l 1
 1500 -200 l 1
 1500 -100 l 1
 1900 300 l 1
 1500 300 l 1
 1300 500 l 1
1500 600 m 1
 1600 500 l 1
 1900 500 l 1
 1900 700 l 1
 1800 800 l 1
 1600 800 l 1
 1500 700 l 1
 1500 600 l 1
EndSplineSet
Validated: 1
EndChar

StartChar: uniE180
Encoding: 390 57728 390
Width: 2400
Flags: HMW
LayerCount: 2
Fore
SplineSet
100 800 m 1
 100 1100 l 1
 200 1200 l 1
 100 1300 l 1
 100 1600 l 1
 300 1800 l 1
 700 1800 l 1
 900 1600 l 1
 900 1300 l 1
 800 1200 l 1
 900 1100 l 1
 900 800 l 1
 700 600 l 1
 300 600 l 1
 100 800 l 1
300 900 m 1
 400 800 l 1
 600 800 l 1
 700 900 l 1
 700 1000 l 1
 600 1100 l 1
 400 1100 l 1
 300 1000 l 1
 300 900 l 1
300 1400 m 1
 400 1300 l 1
 600 1300 l 1
 700 1400 l 1
 700 1500 l 1
 600 1600 l 1
 400 1600 l 1
 300 1500 l 1
 300 1400 l 1
700 0 m 1
 1500 1600 l 1
 1700 1600 l 1
 900 0 l 1
 700 0 l 1
1500 0 m 1
 1500 800 l 1
 1700 1000 l 1
 2100 1000 l 1
 2300 800 l 1
 2300 0 l 1
 2100 -200 l 1
 1700 -200 l 1
 1500 0 l 1
1700 100 m 1
 1800 0 l 1
 2000 0 l 1
 2075 75 l 1
 1700 450 l 1
 1700 100 l 1
1725 725 m 1
 2100 350 l 1
 2100 700 l 1
 2000 800 l 1
 1800 800 l 1
 1725 725 l 1
EndSplineSet
Validated: 1
EndChar

StartChar: uniE181
Encoding: 391 57729 391
Width: 2400
Flags: HMW
LayerCount: 2
Fore
SplineSet
100 800 m 1
 100 1100 l 1
 200 1200 l 1
 100 1300 l 1
 100 1600 l 1
 300 1800 l 1
 700 1800 l 1
 900 1600 l 1
 900 1300 l 1
 800 1200 l 1
 900 1100 l 1
 900 800 l 1
 700 600 l 1
 300 600 l 1
 100 800 l 1
300 900 m 1
 400 800 l 1
 600 800 l 1
 700 900 l 1
 700 1000 l 1
 600 1100 l 1
 400 1100 l 1
 300 1000 l 1
 300 900 l 1
300 1400 m 1
 400 1300 l 1
 600 1300 l 1
 700 1400 l 1
 700 1500 l 1
 600 1600 l 1
 400 1600 l 1
 300 1500 l 1
 300 1400 l 1
700 0 m 1
 1500 1600 l 1
 1700 1600 l 1
 900 0 l 1
 700 0 l 1
1500 0 m 1
 1800 0 l 1
 1800 700 l 1
 1700 600 l 1
 1500 600 l 1
 1500 700 l 1
 1800 1000 l 1
 2000 1000 l 1
 2000 0 l 1
 2300 0 l 1
 2300 -200 l 1
 1500 -200 l 1
 1500 0 l 1
EndSplineSet
Validated: 1
EndChar

StartChar: uniE182
Encoding: 392 57730 392
Width: 2400
Flags: HMW
LayerCount: 2
Fore
SplineSet
100 800 m 1
 100 1100 l 1
 200 1200 l 1
 100 1300 l 1
 100 1600 l 1
 300 1800 l 1
 700 1800 l 1
 900 1600 l 1
 900 1300 l 1
 800 1200 l 1
 900 1100 l 1
 900 800 l 1
 700 600 l 1
 300 600 l 1
 100 800 l 1
300 900 m 1
 400 800 l 1
 600 800 l 1
 700 900 l 1
 700 1000 l 1
 600 1100 l 1
 400 1100 l 1
 300 1000 l 1
 300 900 l 1
300 1400 m 1
 400 1300 l 1
 600 1300 l 1
 700 1400 l 1
 700 1500 l 1
 600 1600 l 1
 400 1600 l 1
 300 1500 l 1
 300 1400 l 1
700 0 m 1
 1500 1600 l 1
 1700 1600 l 1
 900 0 l 1
 700 0 l 1
1500 0 m 1
 2100 600 l 1
 2100 700 l 1
 2000 800 l 1
 1800 800 l 1
 1700 700 l 1
 1500 700 l 1
 1500 800 l 1
 1700 1000 l 1
 2100 1000 l 1
 2300 800 l 1
 2300 500 l 1
 1800 0 l 1
 2300 0 l 1
 2300 -200 l 1
 1500 -200 l 1
 1500 0 l 1
EndSplineSet
Validated: 1
EndChar

StartChar: uniE183
Encoding: 393 57731 393
Width: 2400
Flags: HMW
LayerCount: 2
Fore
SplineSet
100 800 m 1
 100 1100 l 1
 200 1200 l 1
 100 1300 l 1
 100 1600 l 1
 300 1800 l 1
 700 1800 l 1
 900 1600 l 1
 900 1300 l 1
 800 1200 l 1
 900 1100 l 1
 900 800 l 1
 700 600 l 1
 300 600 l 1
 100 800 l 1
300 900 m 1
 400 800 l 1
 600 800 l 1
 700 900 l 1
 700 1000 l 1
 600 1100 l 1
 400 1100 l 1
 300 1000 l 1
 300 900 l 1
300 1400 m 1
 400 1300 l 1
 600 1300 l 1
 700 1400 l 1
 700 1500 l 1
 600 1600 l 1
 400 1600 l 1
 300 1500 l 1
 300 1400 l 1
700 0 m 1
 1500 1600 l 1
 1700 1600 l 1
 900 0 l 1
 700 0 l 1
1500 0 m 1
 1500 100 l 1
 1700 100 l 1
 1800 0 l 1
 2000 0 l 1
 2100 100 l 1
 2100 200 l 1
 2000 300 l 1
 1700 300 l 1
 1700 500 l 1
 2000 500 l 1
 2100 600 l 1
 2100 700 l 1
 2000 800 l 1
 1800 800 l 1
 1700 700 l 1
 1500 700 l 1
 1500 800 l 1
 1700 1000 l 1
 2100 1000 l 1
 2300 800 l 1
 2300 500 l 1
 2200 400 l 1
 2300 300 l 1
 2300 0 l 1
 2100 -200 l 1
 1700 -200 l 1
 1500 0 l 1
EndSplineSet
Validated: 1
EndChar

StartChar: uniE184
Encoding: 394 57732 394
Width: 2300
Flags: HMW
LayerCount: 2
Fore
SplineSet
100 800 m 1
 100 1100 l 1
 200 1200 l 1
 100 1300 l 1
 100 1600 l 1
 300 1800 l 1
 700 1800 l 1
 900 1600 l 1
 900 1300 l 1
 800 1200 l 1
 900 1100 l 1
 900 800 l 1
 700 600 l 1
 300 600 l 1
 100 800 l 1
300 900 m 1
 400 800 l 1
 600 800 l 1
 700 900 l 1
 700 1000 l 1
 600 1100 l 1
 400 1100 l 1
 300 1000 l 1
 300 900 l 1
300 1400 m 1
 400 1300 l 1
 600 1300 l 1
 700 1400 l 1
 700 1500 l 1
 600 1600 l 1
 400 1600 l 1
 300 1500 l 1
 300 1400 l 1
700 0 m 1
 1500 1600 l 1
 1700 1600 l 1
 900 0 l 1
 700 0 l 1
1400 100 m 1
 1400 600 l 1
 1800 1000 l 1
 2000 1000 l 1
 2000 300 l 1
 2200 300 l 1
 2200 100 l 1
 2000 100 l 1
 2000 -200 l 1
 1800 -200 l 1
 1800 100 l 1
 1400 100 l 1
1600 300 m 1
 1800 300 l 1
 1800 700 l 1
 1600 500 l 1
 1600 300 l 1
EndSplineSet
Validated: 1
EndChar

StartChar: uniE185
Encoding: 395 57733 395
Width: 2500
Flags: HMW
LayerCount: 2
Fore
SplineSet
100 800 m 1
 100 1100 l 1
 200 1200 l 1
 100 1300 l 1
 100 1600 l 1
 300 1800 l 1
 700 1800 l 1
 900 1600 l 1
 900 1300 l 1
 800 1200 l 1
 900 1100 l 1
 900 800 l 1
 700 600 l 1
 300 600 l 1
 100 800 l 1
300 900 m 1
 400 800 l 1
 600 800 l 1
 700 900 l 1
 700 1000 l 1
 600 1100 l 1
 400 1100 l 1
 300 1000 l 1
 300 900 l 1
300 1400 m 1
 400 1300 l 1
 600 1300 l 1
 700 1400 l 1
 700 1500 l 1
 600 1600 l 1
 400 1600 l 1
 300 1500 l 1
 300 1400 l 1
700 0 m 1
 1500 1600 l 1
 1700 1600 l 1
 900 0 l 1
 700 0 l 1
1600 0 m 1
 1600 100 l 1
 1800 100 l 1
 1900 0 l 1
 2100 0 l 1
 2200 100 l 1
 2200 300 l 1
 2100 400 l 1
 1600 400 l 1
 1600 1000 l 1
 2400 1000 l 1
 2400 800 l 1
 1800 800 l 1
 1800 600 l 1
 2200 600 l 1
 2400 400 l 1
 2400 0 l 1
 2200 -200 l 1
 1800 -200 l 1
 1600 0 l 1
EndSplineSet
Validated: 1
EndChar

StartChar: uniE186
Encoding: 396 57734 396
Width: 2300
Flags: HMW
LayerCount: 2
Fore
SplineSet
100 800 m 1
 100 1100 l 1
 200 1200 l 1
 100 1300 l 1
 100 1600 l 1
 300 1800 l 1
 700 1800 l 1
 900 1600 l 1
 900 1300 l 1
 800 1200 l 1
 900 1100 l 1
 900 800 l 1
 700 600 l 1
 300 600 l 1
 100 800 l 1
300 900 m 1
 400 800 l 1
 600 800 l 1
 700 900 l 1
 700 1000 l 1
 600 1100 l 1
 400 1100 l 1
 300 1000 l 1
 300 900 l 1
300 1400 m 1
 400 1300 l 1
 600 1300 l 1
 700 1400 l 1
 700 1500 l 1
 600 1600 l 1
 400 1600 l 1
 300 1500 l 1
 300 1400 l 1
700 0 m 1
 1500 1600 l 1
 1700 1600 l 1
 900 0 l 1
 700 0 l 1
1400 0 m 1
 1400 600 l 1
 1800 1000 l 1
 2000 1000 l 1
 2000 900 l 1
 1600 500 l 1
 2000 500 l 1
 2200 300 l 1
 2200 0 l 1
 2000 -200 l 1
 1600 -200 l 1
 1400 0 l 1
1600 100 m 1
 1700 0 l 1
 1900 0 l 1
 2000 100 l 1
 2000 200 l 1
 1900 300 l 1
 1600 300 l 1
 1600 100 l 1
EndSplineSet
Validated: 1
EndChar

StartChar: uniE187
Encoding: 397 57735 397
Width: 2500
Flags: HMW
LayerCount: 2
Fore
SplineSet
100 800 m 1
 100 1100 l 1
 200 1200 l 1
 100 1300 l 1
 100 1600 l 1
 300 1800 l 1
 700 1800 l 1
 900 1600 l 1
 900 1300 l 1
 800 1200 l 1
 900 1100 l 1
 900 800 l 1
 700 600 l 1
 300 600 l 1
 100 800 l 1
300 900 m 1
 400 800 l 1
 600 800 l 1
 700 900 l 1
 700 1000 l 1
 600 1100 l 1
 400 1100 l 1
 300 1000 l 1
 300 900 l 1
300 1400 m 1
 400 1300 l 1
 600 1300 l 1
 700 1400 l 1
 700 1500 l 1
 600 1600 l 1
 400 1600 l 1
 300 1500 l 1
 300 1400 l 1
700 0 m 1
 1500 1600 l 1
 1700 1600 l 1
 900 0 l 1
 700 0 l 1
1600 800 m 1
 1600 1000 l 1
 2400 1000 l 1
 2400 400 l 1
 2100 100 l 1
 2100 -200 l 1
 1900 -200 l 1
 1900 200 l 1
 2200 500 l 1
 2200 800 l 1
 1600 800 l 1
EndSplineSet
Validated: 1
EndChar

StartChar: uniE188
Encoding: 398 57736 398
Width: 2400
Flags: HMW
LayerCount: 2
Fore
SplineSet
100 800 m 1
 100 1100 l 1
 200 1200 l 1
 100 1300 l 1
 100 1600 l 1
 300 1800 l 1
 700 1800 l 1
 900 1600 l 1
 900 1300 l 1
 800 1200 l 1
 900 1100 l 1
 900 800 l 1
 700 600 l 1
 300 600 l 1
 100 800 l 1
300 900 m 1
 400 800 l 1
 600 800 l 1
 700 900 l 1
 700 1000 l 1
 600 1100 l 1
 400 1100 l 1
 300 1000 l 1
 300 900 l 1
300 1400 m 1
 400 1300 l 1
 600 1300 l 1
 700 1400 l 1
 700 1500 l 1
 600 1600 l 1
 400 1600 l 1
 300 1500 l 1
 300 1400 l 1
700 0 m 1
 1500 1600 l 1
 1700 1600 l 1
 900 0 l 1
 700 0 l 1
1500 0 m 1
 1500 300 l 1
 1600 400 l 1
 1500 500 l 1
 1500 800 l 1
 1700 1000 l 1
 2100 1000 l 1
 2300 800 l 1
 2300 500 l 1
 2200 400 l 1
 2300 300 l 1
 2300 0 l 1
 2100 -200 l 1
 1700 -200 l 1
 1500 0 l 1
1700 100 m 1
 1800 0 l 1
 2000 0 l 1
 2100 100 l 1
 2100 200 l 1
 2000 300 l 1
 1800 300 l 1
 1700 200 l 1
 1700 100 l 1
1700 600 m 1
 1800 500 l 1
 2000 500 l 1
 2100 600 l 1
 2100 700 l 1
 2000 800 l 1
 1800 800 l 1
 1700 700 l 1
 1700 600 l 1
EndSplineSet
Validated: 1
EndChar

StartChar: uniE189
Encoding: 399 57737 399
Width: 2400
Flags: HMW
LayerCount: 2
Fore
SplineSet
100 800 m 1
 100 1100 l 1
 200 1200 l 1
 100 1300 l 1
 100 1600 l 1
 300 1800 l 1
 700 1800 l 1
 900 1600 l 1
 900 1300 l 1
 800 1200 l 1
 900 1100 l 1
 900 800 l 1
 700 600 l 1
 300 600 l 1
 100 800 l 1
300 900 m 1
 400 800 l 1
 600 800 l 1
 700 900 l 1
 700 1000 l 1
 600 1100 l 1
 400 1100 l 1
 300 1000 l 1
 300 900 l 1
300 1400 m 1
 400 1300 l 1
 600 1300 l 1
 700 1400 l 1
 700 1500 l 1
 600 1600 l 1
 400 1600 l 1
 300 1500 l 1
 300 1400 l 1
700 0 m 1
 1500 1600 l 1
 1700 1600 l 1
 900 0 l 1
 700 0 l 1
1500 500 m 1
 1500 800 l 1
 1700 1000 l 1
 2100 1000 l 1
 2300 800 l 1
 2300 200 l 1
 1900 -200 l 1
 1700 -200 l 1
 1700 -100 l 1
 2100 300 l 1
 1700 300 l 1
 1500 500 l 1
1700 600 m 1
 1800 500 l 1
 2100 500 l 1
 2100 700 l 1
 2000 800 l 1
 1800 800 l 1
 1700 700 l 1
 1700 600 l 1
EndSplineSet
Validated: 1
EndChar

StartChar: uniE190
Encoding: 400 57744 400
Width: 2300
Flags: HMW
LayerCount: 2
Fore
SplineSet
100 1300 m 1
 100 1600 l 1
 300 1800 l 1
 700 1800 l 1
 900 1600 l 1
 900 1000 l 1
 500 600 l 1
 300 600 l 1
 300 700 l 1
 700 1100 l 1
 300 1100 l 1
 100 1300 l 1
300 1400 m 1
 400 1300 l 1
 700 1300 l 1
 700 1500 l 1
 600 1600 l 1
 400 1600 l 1
 300 1500 l 1
 300 1400 l 1
600 0 m 1
 1400 1600 l 1
 1600 1600 l 1
 800 0 l 1
 600 0 l 1
1400 0 m 1
 1400 800 l 1
 1600 1000 l 1
 2000 1000 l 1
 2200 800 l 1
 2200 0 l 1
 2000 -200 l 1
 1600 -200 l 1
 1400 0 l 1
1600 100 m 1
 1700 0 l 1
 1900 0 l 1
 1975 75 l 1
 1600 450 l 1
 1600 100 l 1
1625 725 m 1
 2000 350 l 1
 2000 700 l 1
 1900 800 l 1
 1700 800 l 1
 1625 725 l 1
EndSplineSet
Validated: 1
EndChar

StartChar: uniE191
Encoding: 401 57745 401
Width: 2300
Flags: HMW
LayerCount: 2
Fore
SplineSet
100 1300 m 1
 100 1600 l 1
 300 1800 l 1
 700 1800 l 1
 900 1600 l 1
 900 1000 l 1
 500 600 l 1
 300 600 l 1
 300 700 l 1
 700 1100 l 1
 300 1100 l 1
 100 1300 l 1
300 1400 m 1
 400 1300 l 1
 700 1300 l 1
 700 1500 l 1
 600 1600 l 1
 400 1600 l 1
 300 1500 l 1
 300 1400 l 1
600 0 m 1
 1400 1600 l 1
 1600 1600 l 1
 800 0 l 1
 600 0 l 1
1400 0 m 1
 1700 0 l 1
 1700 700 l 1
 1600 600 l 1
 1400 600 l 1
 1400 700 l 1
 1700 1000 l 1
 1900 1000 l 1
 1900 0 l 1
 2200 0 l 1
 2200 -200 l 1
 1400 -200 l 1
 1400 0 l 1
EndSplineSet
Validated: 1
EndChar

StartChar: uniE192
Encoding: 402 57746 402
Width: 2300
Flags: HMW
LayerCount: 2
Fore
SplineSet
100 1300 m 1
 100 1600 l 1
 300 1800 l 1
 700 1800 l 1
 900 1600 l 1
 900 1000 l 1
 500 600 l 1
 300 600 l 1
 300 700 l 1
 700 1100 l 1
 300 1100 l 1
 100 1300 l 1
300 1400 m 1
 400 1300 l 1
 700 1300 l 1
 700 1500 l 1
 600 1600 l 1
 400 1600 l 1
 300 1500 l 1
 300 1400 l 1
600 0 m 1
 1400 1600 l 1
 1600 1600 l 1
 800 0 l 1
 600 0 l 1
1400 0 m 1
 2000 600 l 1
 2000 700 l 1
 1900 800 l 1
 1700 800 l 1
 1600 700 l 1
 1400 700 l 1
 1400 800 l 1
 1600 1000 l 1
 2000 1000 l 1
 2200 800 l 1
 2200 500 l 1
 1700 0 l 1
 2200 0 l 1
 2200 -200 l 1
 1400 -200 l 1
 1400 0 l 1
EndSplineSet
Validated: 1
EndChar

StartChar: uniE193
Encoding: 403 57747 403
Width: 2300
Flags: HMW
LayerCount: 2
Fore
SplineSet
100 1300 m 1
 100 1600 l 1
 300 1800 l 1
 700 1800 l 1
 900 1600 l 1
 900 1000 l 1
 500 600 l 1
 300 600 l 1
 300 700 l 1
 700 1100 l 1
 300 1100 l 1
 100 1300 l 1
300 1400 m 1
 400 1300 l 1
 700 1300 l 1
 700 1500 l 1
 600 1600 l 1
 400 1600 l 1
 300 1500 l 1
 300 1400 l 1
600 0 m 1
 1400 1600 l 1
 1600 1600 l 1
 800 0 l 1
 600 0 l 1
1400 0 m 1
 1400 100 l 1
 1600 100 l 1
 1700 0 l 1
 1900 0 l 1
 2000 100 l 1
 2000 200 l 1
 1900 300 l 1
 1600 300 l 1
 1600 500 l 1
 1900 500 l 1
 2000 600 l 1
 2000 700 l 1
 1900 800 l 1
 1700 800 l 1
 1600 700 l 1
 1400 700 l 1
 1400 800 l 1
 1600 1000 l 1
 2000 1000 l 1
 2200 800 l 1
 2200 500 l 1
 2100 400 l 1
 2200 300 l 1
 2200 0 l 1
 2000 -200 l 1
 1600 -200 l 1
 1400 0 l 1
EndSplineSet
Validated: 1
EndChar

StartChar: uniE194
Encoding: 404 57748 404
Width: 2200
Flags: HMW
LayerCount: 2
Fore
SplineSet
100 1300 m 1
 100 1600 l 1
 300 1800 l 1
 700 1800 l 1
 900 1600 l 1
 900 1000 l 1
 500 600 l 1
 300 600 l 1
 300 700 l 1
 700 1100 l 1
 300 1100 l 1
 100 1300 l 1
300 1400 m 1
 400 1300 l 1
 700 1300 l 1
 700 1500 l 1
 600 1600 l 1
 400 1600 l 1
 300 1500 l 1
 300 1400 l 1
600 0 m 1
 1400 1600 l 1
 1600 1600 l 1
 800 0 l 1
 600 0 l 1
1300 100 m 1
 1300 600 l 1
 1700 1000 l 1
 1900 1000 l 1
 1900 300 l 1
 2100 300 l 1
 2100 100 l 1
 1900 100 l 1
 1900 -200 l 1
 1700 -200 l 1
 1700 100 l 1
 1300 100 l 1
1500 300 m 1
 1700 300 l 1
 1700 700 l 1
 1500 500 l 1
 1500 300 l 1
EndSplineSet
Validated: 1
EndChar

StartChar: uniE195
Encoding: 405 57749 405
Width: 2400
Flags: HMW
LayerCount: 2
Fore
SplineSet
100 1300 m 1
 100 1600 l 1
 300 1800 l 1
 700 1800 l 1
 900 1600 l 1
 900 1000 l 1
 500 600 l 1
 300 600 l 1
 300 700 l 1
 700 1100 l 1
 300 1100 l 1
 100 1300 l 1
300 1400 m 1
 400 1300 l 1
 700 1300 l 1
 700 1500 l 1
 600 1600 l 1
 400 1600 l 1
 300 1500 l 1
 300 1400 l 1
600 0 m 1
 1400 1600 l 1
 1600 1600 l 1
 800 0 l 1
 600 0 l 1
1500 0 m 1
 1500 100 l 1
 1700 100 l 1
 1800 0 l 1
 2000 0 l 1
 2100 100 l 1
 2100 300 l 1
 2000 400 l 1
 1500 400 l 1
 1500 1000 l 1
 2300 1000 l 1
 2300 800 l 1
 1700 800 l 1
 1700 600 l 1
 2100 600 l 1
 2300 400 l 1
 2300 0 l 1
 2100 -200 l 1
 1700 -200 l 1
 1500 0 l 1
EndSplineSet
Validated: 1
EndChar

StartChar: uniE196
Encoding: 406 57750 406
Width: 2200
Flags: HMW
LayerCount: 2
Fore
SplineSet
100 1300 m 1
 100 1600 l 1
 300 1800 l 1
 700 1800 l 1
 900 1600 l 1
 900 1000 l 1
 500 600 l 1
 300 600 l 1
 300 700 l 1
 700 1100 l 1
 300 1100 l 1
 100 1300 l 1
300 1400 m 1
 400 1300 l 1
 700 1300 l 1
 700 1500 l 1
 600 1600 l 1
 400 1600 l 1
 300 1500 l 1
 300 1400 l 1
600 0 m 1
 1400 1600 l 1
 1600 1600 l 1
 800 0 l 1
 600 0 l 1
1300 0 m 1
 1300 600 l 1
 1700 1000 l 1
 1900 1000 l 1
 1900 900 l 1
 1500 500 l 1
 1900 500 l 1
 2100 300 l 1
 2100 0 l 1
 1900 -200 l 1
 1500 -200 l 1
 1300 0 l 1
1500 100 m 1
 1600 0 l 1
 1800 0 l 1
 1900 100 l 1
 1900 200 l 1
 1800 300 l 1
 1500 300 l 1
 1500 100 l 1
EndSplineSet
Validated: 1
EndChar

StartChar: uniE197
Encoding: 407 57751 407
Width: 2400
Flags: HMW
LayerCount: 2
Fore
SplineSet
100 1300 m 1
 100 1600 l 1
 300 1800 l 1
 700 1800 l 1
 900 1600 l 1
 900 1000 l 1
 500 600 l 1
 300 600 l 1
 300 700 l 1
 700 1100 l 1
 300 1100 l 1
 100 1300 l 1
300 1400 m 1
 400 1300 l 1
 700 1300 l 1
 700 1500 l 1
 600 1600 l 1
 400 1600 l 1
 300 1500 l 1
 300 1400 l 1
600 0 m 1
 1400 1600 l 1
 1600 1600 l 1
 800 0 l 1
 600 0 l 1
1500 800 m 1
 1500 1000 l 1
 2300 1000 l 1
 2300 400 l 1
 2000 100 l 1
 2000 -200 l 1
 1800 -200 l 1
 1800 200 l 1
 2100 500 l 1
 2100 800 l 1
 1500 800 l 1
EndSplineSet
Validated: 1
EndChar

StartChar: uniE198
Encoding: 408 57752 408
Width: 2300
Flags: HMW
LayerCount: 2
Fore
SplineSet
100 1300 m 1
 100 1600 l 1
 300 1800 l 1
 700 1800 l 1
 900 1600 l 1
 900 1000 l 1
 500 600 l 1
 300 600 l 1
 300 700 l 1
 700 1100 l 1
 300 1100 l 1
 100 1300 l 1
300 1400 m 1
 400 1300 l 1
 700 1300 l 1
 700 1500 l 1
 600 1600 l 1
 400 1600 l 1
 300 1500 l 1
 300 1400 l 1
600 0 m 1
 1400 1600 l 1
 1600 1600 l 1
 800 0 l 1
 600 0 l 1
1400 0 m 1
 1400 300 l 1
 1500 400 l 1
 1400 500 l 1
 1400 800 l 1
 1600 1000 l 1
 2000 1000 l 1
 2200 800 l 1
 2200 500 l 1
 2100 400 l 1
 2200 300 l 1
 2200 0 l 1
 2000 -200 l 1
 1600 -200 l 1
 1400 0 l 1
1600 100 m 1
 1700 0 l 1
 1900 0 l 1
 2000 100 l 1
 2000 200 l 1
 1900 300 l 1
 1700 300 l 1
 1600 200 l 1
 1600 100 l 1
1600 600 m 1
 1700 500 l 1
 1900 500 l 1
 2000 600 l 1
 2000 700 l 1
 1900 800 l 1
 1700 800 l 1
 1600 700 l 1
 1600 600 l 1
EndSplineSet
Validated: 1
EndChar

StartChar: uniE199
Encoding: 409 57753 409
Width: 2300
Flags: HMW
LayerCount: 2
Fore
SplineSet
100 1300 m 1
 100 1600 l 1
 300 1800 l 1
 700 1800 l 1
 900 1600 l 1
 900 1000 l 1
 500 600 l 1
 300 600 l 1
 300 700 l 1
 700 1100 l 1
 300 1100 l 1
 100 1300 l 1
300 1400 m 1
 400 1300 l 1
 700 1300 l 1
 700 1500 l 1
 600 1600 l 1
 400 1600 l 1
 300 1500 l 1
 300 1400 l 1
600 0 m 1
 1400 1600 l 1
 1600 1600 l 1
 800 0 l 1
 600 0 l 1
1400 500 m 1
 1400 800 l 1
 1600 1000 l 1
 2000 1000 l 1
 2200 800 l 1
 2200 200 l 1
 1800 -200 l 1
 1600 -200 l 1
 1600 -100 l 1
 2000 300 l 1
 1600 300 l 1
 1400 500 l 1
1600 600 m 1
 1700 500 l 1
 2000 500 l 1
 2000 700 l 1
 1900 800 l 1
 1700 800 l 1
 1600 700 l 1
 1600 600 l 1
EndSplineSet
Validated: 1
EndChar

StartChar: quotereversed
Encoding: 410 8219 410
Width: 400
Flags: HMW
LayerCount: 2
Fore
SplineSet
100 1400 m 1
 100 1600 l 1
 300 1600 l 1
 300 1400 l 1
 250 1400 l 1
 300 1200 l 1
 150 1200 l 1
 100 1400 l 1
EndSplineSet
Validated: 1
EndChar

StartChar: uni201F
Encoding: 411 8223 411
Width: 800
Flags: HMW
LayerCount: 2
Fore
SplineSet
100 1400 m 1
 100 1600 l 1
 300 1600 l 1
 300 1400 l 1
 250 1400 l 1
 300 1200 l 1
 150 1200 l 1
 100 1400 l 1
500 1400 m 1
 500 1600 l 1
 700 1600 l 1
 700 1400 l 1
 650 1400 l 1
 700 1200 l 1
 550 1200 l 1
 500 1400 l 1
EndSplineSet
Validated: 1
EndChar

StartChar: uni2105
Encoding: 412 8453 412
Width: 2400
Flags: HMW
LayerCount: 2
Fore
SplineSet
100 800 m 1
 100 1400 l 1
 300 1600 l 1
 700 1600 l 1
 900 1400 l 1
 900 1300 l 1
 700 1300 l 1
 600 1400 l 1
 400 1400 l 1
 300 1300 l 1
 300 900 l 1
 400 800 l 1
 600 800 l 1
 700 900 l 1
 900 900 l 1
 900 800 l 1
 700 600 l 1
 300 600 l 1
 100 800 l 1
700 0 m 1
 1500 1600 l 1
 1700 1600 l 1
 900 0 l 1
 700 0 l 1
1500 200 m 1
 1500 800 l 1
 1700 1000 l 1
 2100 1000 l 1
 2300 800 l 1
 2300 200 l 1
 2100 0 l 1
 1700 0 l 1
 1500 200 l 1
1700 300 m 1
 1800 200 l 1
 2000 200 l 1
 2100 300 l 1
 2100 700 l 1
 2000 800 l 1
 1800 800 l 1
 1700 700 l 1
 1700 300 l 1
EndSplineSet
Validated: 1
EndChar

StartChar: uni2113
Encoding: 413 8467 413
Width: 1200
Flags: HMW
LayerCount: 2
Fore
SplineSet
100 200 m 1
 100 400 l 1
 300 600 l 1
 300 1400 l 1
 500 1600 l 1
 900 1600 l 1
 1100 1400 l 1
 1100 1100 l 1
 500 500 l 1
 500 300 l 1
 600 200 l 1
 800 200 l 1
 900 300 l 1
 1100 300 l 1
 1100 200 l 1
 900 0 l 1
 500 0 l 1
 300 200 l 1
 300 300 l 1
 200 200 l 1
 100 200 l 1
500 800 m 1
 900 1200 l 1
 900 1300 l 1
 800 1400 l 1
 600 1400 l 1
 500 1300 l 1
 500 800 l 1
EndSplineSet
Validated: 1
EndChar

StartChar: uni2116
Encoding: 414 8470 414
Width: 2400
Flags: HMW
LayerCount: 2
Fore
SplineSet
100 0 m 1
 100 1600 l 1
 300 1600 l 1
 300 1350 l 1
 1100 550 l 1
 1100 1600 l 1
 1300 1600 l 1
 1300 0 l 1
 1100 0 l 1
 1100 250 l 1
 300 1050 l 1
 300 0 l 1
 100 0 l 1
1500 600 m 1
 1500 1200 l 1
 1700 1400 l 1
 2100 1400 l 1
 2300 1200 l 1
 2300 600 l 1
 2100 400 l 1
 1700 400 l 1
 1500 600 l 1
1600 0 m 1
 1600 200 l 1
 2200 200 l 1
 2200 0 l 1
 1600 0 l 1
1700 700 m 1
 1800 600 l 1
 2000 600 l 1
 2100 700 l 1
 2100 1100 l 1
 2000 1200 l 1
 1800 1200 l 1
 1700 1100 l 1
 1700 700 l 1
EndSplineSet
Validated: 1
EndChar

